<?xml version="1.0" standalone="no"?>
<!DOCTYPE svg PUBLIC "-//W3C//DTD SVG 1.1//EN" "http://www.w3.org/Graphics/SVG/1.1/DTD/svg11.dtd" >
<svg xmlns="http://www.w3.org/2000/svg">
<metadata></metadata>
<defs>
<font id="trump_gothic_eastbold" horiz-adv-x="790" >
<font-face units-per-em="2048" ascent="1638" descent="-410" />
<missing-glyph horiz-adv-x="307" />
<glyph horiz-adv-x="2048" />
<glyph horiz-adv-x="2048" />
<glyph unicode="&#xd;" horiz-adv-x="682" />
<glyph unicode=" "  horiz-adv-x="307" />
<glyph unicode="&#x09;" horiz-adv-x="307" />
<glyph unicode="&#xa0;" horiz-adv-x="307" />
<glyph unicode="!" horiz-adv-x="335" d="M33 104q0 59 40 94t99 35q63 0 96 -37.5t33 -99.5q0 -55 -41 -88t-98 -33q-49 0 -89 40t-40 89zM61 1571h224l-31 -1262h-164z" />
<glyph unicode="&#x22;" horiz-adv-x="518" d="M43 1571h205l-31 -430h-143zM274 1571h205l-30 -430h-144z" />
<glyph unicode="#" horiz-adv-x="718" d="M23 799v114h145l29 131h-125v115h149l35 168h117l-35 -168h113l34 168h117l-35 -168h123v-115h-147l-29 -131h127v-114h-152l-32 -148h-117l33 148h-113l-33 -148h-116l32 148h-120zM285 913h112l29 131h-113z" />
<glyph unicode="$" horiz-adv-x="770" d="M61 301v223h209v-196q0 -119 74 -148v484q-74 61 -102.5 87.5t-82 85t-76 115t-22.5 119.5v197q0 152 79 232.5t204 92.5v111h82v-111q127 -12 205 -92t78 -233v-246h-209v219q0 119 -74 148v-515q12 -10 62.5 -50t68.5 -55t55 -53t52.5 -65.5t30 -68.5t14.5 -82v-199 q0 -152 -76 -233.5t-207 -92.5v-106h-82v106q-131 10 -207 93t-76 233zM270 1110q0 -82 74 -160v439q-74 -29 -74 -148v-131zM426 180q74 29 74 148v129q0 55 -74 133v-410z" />
<glyph unicode="%" horiz-adv-x="1540" d="M61 954v340q0 168 58.5 238t199.5 70q143 0 201 -69t58 -239v-340q0 -170 -57.5 -238.5t-201.5 -68.5q-141 0 -199.5 69.5t-58.5 237.5zM246 997q0 -88 15 -121.5t58 -33.5t58.5 33.5t15.5 121.5v254q0 88 -15.5 122t-58.5 34t-58 -34t-15 -122v-254zM489 0l340 1571h213 l-340 -1571h-213zM963 287v340q0 168 58 237.5t200 69.5q143 0 200.5 -68.5t57.5 -238.5v-340q0 -170 -57.5 -238.5t-200.5 -68.5q-141 0 -199.5 69.5t-58.5 237.5zM1147 330q0 -88 15.5 -122t58.5 -34t58 34t15 122v254q0 88 -15 121.5t-58 33.5t-58.5 -33.5t-15.5 -121.5 v-254z" />
<glyph unicode="&#x26;" horiz-adv-x="774" d="M61 281v251q0 113 36 180.5t136 98.5q-100 27 -136 87t-36 171v221q0 168 77 237.5t247 69.5t247 -70.5t77 -236.5v-61h-209v35q0 135 -115 135t-115 -135v-222q0 -76 56.5 -105.5t119.5 -29.5h54v123h209v-123h63v-192h-63v-434q0 -166 -77 -237t-247 -71t-247 70 t-77 238zM270 307q0 -135 115 -135t115 135v408h-54q-63 0 -119.5 -30t-56.5 -105v-273z" />
<glyph unicode="'" horiz-adv-x="286" d="M43 1571h205l-31 -430h-143z" />
<glyph unicode="(" horiz-adv-x="454" d="M86 575q0 174 36 457t126 541h207q-63 -170 -103.5 -394.5t-49.5 -357.5t-9 -227q0 -92 8 -218t48 -349.5t106 -376.5h-207q-57 158 -85 251t-52.5 271t-24.5 403z" />
<glyph unicode=")" horiz-adv-x="456" d="M-2 -348q63 170 103 394t49.5 357.5t9.5 227.5q0 92 -8.5 218t-48.5 349t-105 377h207q57 -158 84.5 -251t52.5 -271.5t25 -403.5q0 -174 -36 -456.5t-126 -540.5h-207z" />
<glyph unicode="*" horiz-adv-x="604" d="M43 1284v100h170l-84 148l86 51l88 -151l84 149l88 -49l-84 -150h170v-98h-172l86 -149l-88 -50l-84 142l-84 -144l-86 52l86 149h-176z" />
<glyph unicode="+" horiz-adv-x="638" d="M53 664v196h170v170h197v-170h170v-196h-170v-170h-197v170h-170z" />
<glyph unicode="," horiz-adv-x="339" d="M-94 -276l180 446h236l-261 -446h-155z" />
<glyph unicode="-" horiz-adv-x="509" d="M49 500v196h408v-196h-408z" />
<glyph unicode="." horiz-adv-x="366" d="M47 104q0 59 40 94t99 35q63 0 96 -37.5t33 -99.5q0 -55 -41 -88t-98 -33q-49 0 -89 40t-40 89z" />
<glyph unicode="/" horiz-adv-x="552" d="M0 0l340 1571h213l-340 -1571h-213z" />
<glyph unicode="0" d="M72 301v967q0 164 91 245.5t232 81.5q160 0 242 -77.5t82 -249.5v-967q0 -166 -91 -247t-232.5 -81t-232.5 82t-91 246zM281 328q0 -80 32.5 -118t81.5 -38t82 38t33 118v913q0 80 -33 118t-82 38t-81.5 -38t-32.5 -118v-913z" />
<glyph unicode="1" horiz-adv-x="532" d="M10 1266v202l260 101h181v-1569h-205v1341z" />
<glyph unicode="2" horiz-adv-x="731" d="M41 0v156q0 98 67.5 237t149.5 256t149.5 248t67.5 213v135q0 80 -32.5 118t-82 38t-82 -38t-32.5 -118v-192h-205v215q0 164 85 245.5t234 81.5q147 0 233.5 -82.5t86.5 -244.5v-181q0 -94 -65.5 -227t-144.5 -243.5t-147.5 -228.5t-72.5 -183h393v-205h-602z" />
<glyph unicode="3" horiz-adv-x="765" d="M61 281v221h205v-199q0 -135 115 -135t115 135v268q0 76 -56.5 106t-120.5 30q-14 0 -38 -5v218q12 -4 38 -5q63 0 120 30t57 106v217q0 135 -115 135t-115 -135v-207h-200q-4 41 -5 69v160q0 307 319.5 307t319.5 -307v-211q0 -109 -37.5 -163t-154.5 -95 q115 -47 153.5 -107.5t38.5 -170.5v-262q0 -307 -319.5 -307t-319.5 307z" />
<glyph unicode="4" horiz-adv-x="761" d="M20 375v205l269 989h329v-989h123v-205h-123v-375h-204v375h-394zM229 580h185v776z" />
<glyph unicode="5" horiz-adv-x="763" d="M61 301v117h205v-94q0 -80 34 -118t83 -38t82 38t33 118v368q0 80 -33 118t-82 38q-45 0 -78 -33t-37 -102h-207v856h588v-226h-383v-448l21 27q23 29 31 36t29.5 25t45 24.5t51.5 6.5q145 0 201.5 -60.5t56.5 -226.5v-426q0 -162 -86 -245t-233 -83q-150 0 -236 82 t-86 246z" />
<glyph unicode="6" horiz-adv-x="778" d="M72 301v963q0 162 86 244.5t233 82.5q150 0 235 -82t85 -245v-117h-205v74q0 80 -33 117.5t-82 37.5t-82 -38t-33 -117v-347l23 27q20 29 28.5 36t30 25.5t45 24.5t52.5 6q145 0 201.5 -60.5t56.5 -225.5v-406q0 -162 -86 -245t-234 -83q-150 0 -235.5 82t-85.5 246z M276 324q0 -80 34 -118t83 -38t82 38t33 118v348q0 80 -33 117.5t-82 37.5t-81.5 -37.5t-32.5 -117.5z" />
<glyph unicode="7" horiz-adv-x="671" d="M10 0l420 1364h-377v205h609v-115l-435 -1454h-217z" />
<glyph unicode="8" horiz-adv-x="770" d="M66 281v333q0 170 131 258q-131 88 -131 258v160q0 307 319.5 307t319.5 -307v-160q0 -172 -132 -258q131 -88 132 -278v-313q0 -307 -319.5 -307t-319.5 307zM270 303q0 -135 115 -135t115 135v330q0 135 -115 135t-115 -135v-330zM270 1092q0 -78 31 -101.5t84 -23.5 t84 23.5t31 101.5v176q0 135 -115 135t-115 -135v-176z" />
<glyph unicode="9" horiz-adv-x="778" d="M66 868v396q0 162 86 244.5t233 82.5q150 0 236 -82t86 -245v-963q0 -162 -86 -245t-234 -83q-150 0 -234.5 82t-84.5 246v117h204v-94q0 -80 33 -118t82 -38t82 38t33 118v376q-25 -39 -41.5 -58t-53 -39.5t-83.5 -20.5q-145 0 -201.5 60t-56.5 226zM270 903 q0 -80 33 -117.5t82 -37.5t82 37.5t33 117.5l2 338q0 80 -34 118t-83 38t-82 -38t-33 -118v-338z" />
<glyph unicode=":" horiz-adv-x="366" d="M47 104q0 59 40 94t99 35q63 0 96 -37.5t33 -99.5q0 -55 -41 -88t-98 -33q-49 0 -89 40t-40 89zM47 772q0 59 40 94t99 35q63 0 96 -38t33 -99q0 -55 -41 -88t-98 -33q-49 0 -89 40t-40 89z" />
<glyph unicode=";" horiz-adv-x="366" d="M-94 -276l180 446h236l-261 -446h-155zM47 772q0 59 40 94t99 35q63 0 96 -38t33 -99q0 -55 -41 -88t-98 -33q-49 0 -89 40t-40 89z" />
<glyph unicode="&#x3c;" horiz-adv-x="428" d="M12 608l201 398h211l-199 -396l199 -424h-213z" />
<glyph unicode="=" horiz-adv-x="638" d="M53 438v197h537v-197h-537zM53 766v197h537v-197h-537z" />
<glyph unicode="&#x3e;" horiz-adv-x="428" d="M10 186l199 396l-199 424h213l199 -422l-201 -398h-211z" />
<glyph unicode="?" horiz-adv-x="761" d="M45 1061v229q0 166 77 236.5t247 70.5t246.5 -69.5t76.5 -237.5v-272q0 -139 -51 -216t-184 -102v-393h-209v584q12 -4 39 -4q39 0 77.5 8t78.5 41t40 86v242q0 135 -114.5 135t-114.5 -135v-203h-209zM221 104q0 59 40 94t99 35q63 0 96 -37.5t33 -99.5q0 -55 -40.5 -88 t-98.5 -33q-49 0 -89 40t-40 89z" />
<glyph unicode="@" horiz-adv-x="1445" d="M43 360q0 162 28.5 315.5t90 292t149.5 242t214 165t276 61.5q154 0 272.5 -59.5t189 -161t105.5 -225.5t35 -263q0 -174 -46 -332.5t-148.5 -270.5t-239.5 -112q-82 0 -140.5 41t-66.5 117q-31 -57 -94.5 -94t-141.5 -37q-59 0 -101 30.5t-42 92.5q0 68 25 184l73 348 q37 182 73 248t113.5 66t132 -29t79.5 -72l16 82h184q-39 -186 -69.5 -329.5t-47 -213t-27.5 -116.5t-15.5 -62.5t-5.5 -23.5t-1 -25q0 -33 15.5 -57.5t46.5 -24.5q76 0 129 96.5t75.5 224.5t22.5 265q0 254 -94 385t-307 131q-143 0 -254 -71.5t-176.5 -195.5t-98 -276.5 t-32.5 -326.5q0 -317 111.5 -449.5t334.5 -132.5q160 0 309 92l29 -188q-88 -53 -162 -77t-176 -24q-303 0 -473 206t-170 564zM612 295q0 -61 54 -62q74 0 106 156l59 287q8 35 9 67q0 63 -56 64q-43 0 -66.5 -35t-39.5 -121l-53 -262q-13 -57 -13 -94z" />
<glyph unicode="A" horiz-adv-x="731" d="M0 0l211 1569h307l213 -1569h-209l-41 348h-231l-41 -348h-209zM276 557h179l-82 690q0 39 -8 113q-6 -55 -7 -113z" />
<glyph unicode="B" horiz-adv-x="804" d="M82 0v1569h358q125 0 202 -82t77 -246v-197q0 -154 -150 -237q170 -63 170 -252v-227q0 -164 -76.5 -246t-201.5 -82h-379zM291 199h125q59 0 86.5 35.5t27.5 119.5v199q0 156 -135 156h-104v-510zM291 903h104q59 0 87 36t28 120v155q0 84 -27.5 120t-87.5 36h-104v-467 z" />
<glyph unicode="C" horiz-adv-x="780" d="M72 301v967q0 164 91 245.5t232.5 81.5t232.5 -80.5t91 -246.5v-246h-209v219q0 80 -33 118t-82 38t-81.5 -38t-32.5 -118v-913q0 -80 32.5 -118t81.5 -38t82 38t33 118v196h209v-223q0 -166 -91 -247t-232.5 -81t-232.5 82t-91 246z" />
<glyph unicode="D" d="M82 0v1569h358q127 0 203 -80t76 -248v-913q0 -168 -76 -248t-203 -80h-358zM291 199h104q59 0 87 35.5t28 119.5v860q0 84 -27.5 120t-87.5 36h-104v-1171z" />
<glyph unicode="E" horiz-adv-x="612" d="M82 0v1569h500v-209h-291v-465h276v-209h-276v-477h291v-209h-500z" />
<glyph unicode="F" horiz-adv-x="591" d="M82 0v1569h500v-209h-291v-465h276v-209h-276v-686h-209z" />
<glyph unicode="G" horiz-adv-x="804" d="M72 301v967q0 166 90 246.5t244 80.5q152 0 242.5 -79.5t90.5 -247.5v-244h-209v217q0 156 -124.5 156t-124.5 -156v-913q0 -156 125 -156q49 0 75.5 12.5t48.5 48.5v371h-139v209h348v-682q-76 -158 -333 -158q-154 0 -244 81t-90 247z" />
<glyph unicode="H" horiz-adv-x="811" d="M82 0v1569h209v-664h229v664h209v-1569h-209v696h-229v-696h-209z" />
<glyph unicode="I" horiz-adv-x="372" d="M82 0v1569h209v-1569h-209z" />
<glyph unicode="J" horiz-adv-x="372" d="M-35 -195h2q49 0 82 38t33 118v1608h209v-1635q0 -166 -91 -246.5t-233 -80.5h-2v198z" />
<glyph unicode="K" horiz-adv-x="780" d="M82 0v1569h209v-1569h-209zM293 784l250 785h209l-238 -778l277 -791h-209z" />
<glyph unicode="L" horiz-adv-x="509" d="M82 0v1569h209v-1360h209v-209h-418z" />
<glyph unicode="M" horiz-adv-x="1187" d="M82 0v1569h338l164 -1059l10 -141l10 143l164 1057h338v-1569h-209v1188l14 112l-32 -108l-185 -1192h-205l-180 1192l-33 108l15 -112v-1188h-209z" />
<glyph unicode="N" horiz-adv-x="917" d="M82 0v1569h264l264 -1077l41 -115l-24 115v1077h209v-1569h-275l-252 1028l-33 109l15 -113v-1024h-209z" />
<glyph unicode="O" d="M72 301v967q0 164 91 245.5t232 81.5q160 0 242 -77.5t82 -249.5v-967q0 -166 -91 -247t-232.5 -81t-232.5 82t-91 246zM281 328q0 -80 32.5 -118t81.5 -38t82 38t33 118v913q0 80 -33 118t-82 38t-81.5 -38t-32.5 -118v-913z" />
<glyph unicode="P" horiz-adv-x="759" d="M82 0v1569h358q127 0 203 -80t76 -248v-252q0 -168 -76 -247.5t-203 -79.5h-149v-662h-209zM291 844h104q59 0 87 35.5t28 119.5v232q0 84 -27.5 119.5t-87.5 35.5h-104v-542z" />
<glyph unicode="Q" d="M72 301v967q0 164 91 245.5t232.5 81.5t232.5 -80.5t91 -246.5v-967q0 -109 -37 -174.5t-123 -108.5q18 -41 55 -119.5t56 -117.5q-31 -12 -88.5 -38t-77.5 -34q-41 88 -119 264q-133 0 -223 81t-90 247zM281 328q0 -80 32.5 -118t81.5 -38t82 38t33 118v913 q0 80 -33 118t-82 38t-81.5 -38t-32.5 -118v-913z" />
<glyph unicode="R" horiz-adv-x="761" d="M82 0v1569h362q127 0 201 -80t74 -248v-252q0 -231 -152 -299l193 -690h-209l-180 645h-80v-645h-209zM291 844h104q59 0 87 35.5t28 119.5v215q0 84 -27.5 120t-87.5 36h-104v-526z" />
<glyph unicode="S" horiz-adv-x="770" d="M61 301v223h209v-196q0 -80 33 -118t82 -38t82 38t33 118v129q0 47 -45 100t-109.5 106.5t-129 112t-110 136t-45.5 159.5v197q0 164 91.5 245.5t232.5 81.5t232.5 -80.5t91.5 -246.5v-246h-209v219q0 80 -33 118t-82 38t-82 -38t-33 -118v-131q0 -66 45 -125 t109.5 -109.5t129 -101.5t110 -122.5t45.5 -151.5v-199q0 -164 -87 -246t-236.5 -82t-237 83t-87.5 245z" />
<glyph unicode="T" horiz-adv-x="618" d="M10 1360v209h598v-209h-194v-1360h-209v1360h-195z" />
<glyph unicode="U" horiz-adv-x="798" d="M76 301v1268h209v-1274q0 -80 32.5 -118t82 -38t82 38t32.5 118v1274h209v-1268q0 -166 -91 -247t-232.5 -81t-232.5 82t-91 246z" />
<glyph unicode="V" horiz-adv-x="690" d="M0 1569h209l131 -1227q0 -57 6 -113q6 55 6 113l129 1227h209l-190 -1569h-307z" />
<glyph unicode="W" horiz-adv-x="1216" d="M0 1569h209l110 -1219q0 -57 7 -112q6 55 6 112l129 1219h295l129 -1211q0 -35 8 -100q8 66 8 100l107 1211h209l-170 -1569h-308l-123 1159q-2 29 -4 74t-4 72q-2 -27 -4 -72t-4 -74l-121 -1159h-307z" />
<glyph unicode="X" horiz-adv-x="782" d="M0 0l274 807l-262 762h211l178 -535l166 535h211l-233 -764l237 -805h-209l-172 588l-192 -588h-209z" />
<glyph unicode="Y" horiz-adv-x="733" d="M0 1571h211l145 -682l166 684h211l-260 -1026v-547h-246v545z" />
<glyph unicode="Z" horiz-adv-x="606" d="M20 0v209l330 1151h-311v209h547v-119l-353 -1241h353v-209h-566z" />
<glyph unicode="[" horiz-adv-x="454" d="M96 -348v1921h361v-189h-160v-1538h160v-194h-361z" />
<glyph unicode="\" horiz-adv-x="598" d="M-117 1573h199l510 -1614h-201z" />
<glyph unicode="]" horiz-adv-x="454" d="M-2 -160h160v1538h-160v195h360v-1921h-360v188z" />
<glyph unicode="^" horiz-adv-x="841" d="M0 969v192h113v117q0 164 63.5 235.5t194.5 71.5q37 0 82 -10v-143h-62q-43 0 -58.5 -34t-15.5 -122v-115h205v117q0 164 63.5 235.5t194.5 71.5q37 0 82 -10v-143h-61q-43 0 -58.5 -34t-15.5 -122v-115h133v-192h-133v-969h-205v969h-205v-969h-204v969h-113z" />
<glyph unicode="_" horiz-adv-x="620" d="M0 -98v196h621v-196h-621z" />
<glyph unicode="`" horiz-adv-x="241" d="M-20 1522h227l94 -207h-192z" />
<glyph unicode="a" horiz-adv-x="684" d="M61 293v80q0 332 220 332h133v114q0 88 -15.5 122t-58.5 34t-58.5 -34t-15.5 -122v-28h-205v71q0 168 67 237.5t212 69.5t211.5 -70.5t66.5 -236.5v-862h-178l-26 94q-16 -41 -49 -74.5t-80 -33.5q-137 0 -180.5 64.5t-43.5 242.5zM266 336q0 -88 15.5 -122t58.5 -34 t58.5 34t15.5 122v211h-74q-41 0 -57.5 -43t-16.5 -133v-35z" />
<glyph unicode="b" horiz-adv-x="700" d="M82 0v1571h205v-492q100 100 149 101q135 0 169 -63.5t34 -250.5v-573q0 -178 -43 -242.5t-180 -64.5q-47 0 -80 33.5t-49 74.5l-27 -94h-178zM287 336q0 -88 15 -122t58 -34t58.5 34t15.5 122v487q0 88 -15.5 122t-58.5 34q-74 0 -73 -131v-512z" />
<glyph unicode="c" horiz-adv-x="669" d="M61 289v590q0 166 67 236.5t212 70.5t211.5 -69.5t66.5 -237.5v-144h-204v101q0 88 -15.5 121.5t-58.5 33.5t-58.5 -33.5t-15.5 -121.5v-504q0 -88 15.5 -122t58.5 -34t58.5 34t15.5 122v123h204v-166q0 -168 -66.5 -237.5t-211.5 -69.5t-212 70.5t-67 236.5z" />
<glyph unicode="d" horiz-adv-x="700" d="M61 293v573q0 186 34 250t169 64q35 0 80 -31t70 -70v492h204v-1571h-178l-26 94q-16 -41 -49 -74.5t-80 -33.5q-137 0 -180.5 64.5t-43.5 242.5zM266 336q0 -88 15.5 -122t58.5 -34t58.5 34t15.5 122v512q0 131 -74 131q-43 0 -58.5 -34t-15.5 -122v-487z" />
<glyph unicode="e" horiz-adv-x="669" d="M61 289v573q0 166 67 236.5t212 70.5t211.5 -69.5t66.5 -237.5v-368h-352v-162q0 -88 15.5 -122t58.5 -34t58.5 34t15.5 122v51h204v-94q0 -168 -66.5 -237.5t-211.5 -69.5t-212 70.5t-67 236.5zM266 686h148v133q0 88 -15.5 122t-58.5 34t-58.5 -34t-15.5 -122v-133z " />
<glyph unicode="f" horiz-adv-x="432" d="M0 969v192h113v117q0 164 63.5 235.5t194.5 71.5q37 0 82 -10v-143h-62q-43 0 -58.5 -34t-15.5 -122v-115h134v-192h-134v-969h-204v969h-113z" />
<glyph unicode="g" horiz-adv-x="675" d="M41 57q0 51 9 89t20.5 57.5t33.5 52.5q-2 4 -8 14.5t-9 16.5t-6 18t-3 27q0 53 63 131q-80 70 -80 256v143q0 166 67 236.5t212 70.5q113 0 164 -26h172v-96h-88q30 -70 30 -178v-7v-143q0 -168 -67.5 -237.5t-218.5 -69.5q-31 0 -43.5 -5.5t-12.5 -25.5q0 -27 18.5 -33 t84.5 -6q139 0 189 -74.5t50 -251.5v-122q0 -164 -74.5 -236t-224.5 -72q-145 0 -211.5 71t-66.5 237v163zM246 35v-98q0 -84 20.5 -120t63.5 -36t63.5 36t20.5 120v57q0 92 -17.5 134t-66.5 42q-51 0 -67.5 -25.5t-16.5 -109.5zM266 762q0 -88 15.5 -122t58.5 -34t58.5 34 t15.5 122v57q0 88 -15.5 122t-58.5 34t-58.5 -34t-15.5 -122v-57z" />
<glyph unicode="h" horiz-adv-x="704" d="M82 4v1567h205v-492q14 35 63 68t86 33q135 0 169 -63.5t34 -250.5v-862h-205v819q0 88 -15.5 122t-58.5 34q-74 0 -73 -131v-844h-205z" />
<glyph unicode="i" horiz-adv-x="350" d="M43 1417q0 55 41 88t98 33q49 0 89 -40t40 -89q0 -59 -40 -94t-99 -35q-63 0 -96 38t-33 99zM74 0v1161h205v-1161h-205z" />
<glyph unicode="j" horiz-adv-x="348" d="M31 -408q41 135 41 347v1222h204v-1231q0 -205 -40 -338h-205zM43 1417q0 55 41 88t98 33q49 0 89 -40t40 -89q0 -59 -40 -94t-99 -35q-63 0 -96 38t-33 99z" />
<glyph unicode="k" horiz-adv-x="710" d="M82 0v1569h205v-1569h-205zM289 594l209 567h209l-201 -561l199 -600h-207z" />
<glyph unicode="l" horiz-adv-x="368" d="M82 0v1571h205v-1571h-205z" />
<glyph unicode="m" horiz-adv-x="1046" d="M72 0v1161h178l26 -94q43 109 170 109q76 0 115 -31t53 -103q61 133 185 134q109 0 145.5 -66t36.5 -242v-868h-205v825q0 88 -15.5 122t-58.5 34t-58 -34t-15 -122v-825h-205v846q0 84 -14.5 109.5t-59.5 25.5q-43 0 -58.5 -34t-15.5 -122v-825h-204z" />
<glyph unicode="n" horiz-adv-x="694" d="M72 0v1161h178l26 -94q43 109 170 109q109 0 146 -66t37 -242v-868h-205v825q0 88 -15.5 122t-58.5 34t-58.5 -34t-15.5 -122v-825h-204z" />
<glyph unicode="o" horiz-adv-x="679" d="M61 289v573q0 166 67 236.5t212 70.5t211.5 -69.5t66.5 -237.5v-573q0 -168 -66.5 -237.5t-211.5 -69.5t-212 70.5t-67 236.5zM266 332q0 -88 15.5 -122t58.5 -34t58.5 34t15.5 122v487q0 88 -15.5 122t-58.5 34t-58.5 -34t-15.5 -122v-487z" />
<glyph unicode="p" horiz-adv-x="690" d="M72 -408v1571h178l26 -94q16 41 49 75t81 34q137 0 180 -64.5t43 -243.5v-573q0 -186 -34 -249.5t-169 -63.5q-37 0 -84 30.5t-66 69.5v-492h-204zM276 315q0 -131 74 -131q43 0 58.5 34t15.5 122v487q0 88 -15.5 122t-58.5 34t-58.5 -34t-15.5 -122v-512z" />
<glyph unicode="q" horiz-adv-x="690" d="M61 297v573q0 178 43 243t181 65q47 0 79.5 -34t49.5 -75l26 94h178v-1571h-204v492q-27 -41 -70 -70.5t-80 -29.5q-135 0 -169 63.5t-34 249.5zM266 340q0 -88 15.5 -122t58.5 -34q74 0 74 131v512q0 88 -15.5 122t-58.5 34t-58.5 -34t-15.5 -122v-487z" />
<glyph unicode="r" horiz-adv-x="534" d="M72 0v1161h178l26 -94q16 41 49 75t81 34l114 -25l-6 -205q-16 0 -55 5t-58 5q-59 0 -92 -36.5t-33 -135.5v-784h-204z" />
<glyph unicode="s" horiz-adv-x="659" d="M41 352v60h205v-78q0 -88 18.5 -122t75.5 -34q74 0 74 115q0 51 -38 98t-93.5 90t-110.5 92.5t-93 122t-38 160.5q0 168 70.5 248t228.5 80q143 0 210.5 -79t67.5 -249v-82h-204v60q0 88 -15.5 121.5t-58.5 33.5q-55 0 -74.5 -26.5t-19.5 -83.5q0 -68 38 -124.5t93 -98.5 t110.5 -86t93 -109.5t37.5 -149.5q0 -170 -67.5 -248.5t-210.5 -78.5h-2q-297 0 -297 368z" />
<glyph unicode="t" horiz-adv-x="442" d="M0 969v192h92v287h205v-287h133v-192h-133v-676q0 -88 15.5 -122t58.5 -34h61v-143q-45 -10 -82 -10q-141 0 -199.5 69.5t-58.5 237.5v678h-92z" />
<glyph unicode="u" horiz-adv-x="694" d="M66 293v868h204v-825q0 -88 15.5 -122t58.5 -34t58.5 34t15.5 122v825h205v-1161h-179l-26 94q-16 -41 -49 -74.5t-80 -33.5q-137 0 -180 64.5t-43 242.5z" />
<glyph unicode="v" horiz-adv-x="612" d="M0 1161h213l86 -844q0 -57 6 -112q6 55 6 112l88 844h213l-155 -1161h-299z" />
<glyph unicode="w" horiz-adv-x="1017" d="M0 1161h213l86 -844q0 -57 6 -112q6 55 6 112l88 844h219l87 -844q0 -57 6 -112q6 55 6 112l88 844h213l-156 -1161h-254l-90 745q-4 25 -6 70t-4 59q0 -14 -4 -60t-4 -71l-88 -743h-254z" />
<glyph unicode="x" horiz-adv-x="636" d="M0 0l182 594l-180 567h203l112 -352l109 352h207l-189 -569l193 -592h-203l-125 367l-108 -367h-201z" />
<glyph unicode="y" horiz-adv-x="632" d="M0 1161h213l98 -844q0 -39 4 -104l4 12q4 61 5 92l96 844h213l-238 -1571h-260l64 299z" />
<glyph unicode="z" horiz-adv-x="552" d="M16 0v190l289 766h-250v205h482v-160l-295 -796h270v-205h-496z" />
<glyph unicode="{" horiz-adv-x="794" d="M0 969v192h113v117q0 164 63.5 235.5t194.5 71.5q37 0 82 -10v-143h-62q-43 0 -58.5 -34t-15.5 -122v-115h134v-192h-134v-969h-204v969h-113zM487 1417q0 55 41 88t99 33q49 0 89 -40t40 -89q0 -59 -40 -94t-100 -35q-63 0 -96 38t-33 99zM518 0v1161h205v-1161h-205z " />
<glyph unicode="|" horiz-adv-x="372" d="M82 -412v1981h209v-1981h-209z" />
<glyph unicode="}" horiz-adv-x="808" d="M0 969v192h113v117q0 164 63.5 235.5t194.5 71.5q37 0 82 -10v-143h-62q-43 0 -58.5 -34t-15.5 -122v-115h134v-192h-134v-969h-204v969h-113zM522 0v1571h205v-1571h-205z" />
<glyph unicode="~" horiz-adv-x="1208" d="M0 969v192h113v117q0 164 63.5 235.5t194.5 71.5q37 0 82 -10v-143h-62q-43 0 -58.5 -34t-15.5 -122v-115h205v117q0 164 63.5 235.5t194.5 71.5q37 0 82 -10v-143h-61q-43 0 -58.5 -34t-15.5 -122v-115h133v-192h-133v-969h-205v969h-205v-969h-204v969h-113zM901 1417 q0 55 41 88t98 33q49 0 89 -40t40 -89q0 -59 -39.5 -94t-99.5 -35q-63 0 -96 38t-33 99zM932 0v1161h205v-1161h-205z" />
<glyph unicode="&#xa1;" horiz-adv-x="335" d="M35 1067q0 55 41 88t98 33q49 0 89 -40t40 -89q0 -59 -40 -94t-99 -35q-63 0 -96 38t-33 99zM51 -408l31 1262h164l28 -1262h-223z" />
<glyph unicode="&#xa2;" horiz-adv-x="669" d="M61 506v590q0 133 43 203.5t136 93.5v178h204v-180q90 -23 132 -92.5t42 -202.5v-144h-204v101q0 88 -15.5 121.5t-58.5 33.5t-58.5 -33.5t-15.5 -121.5v-504q0 -88 15.5 -122t58.5 -34t58.5 34t15.5 122v123h204v-166q0 -135 -41.5 -205t-132.5 -92v-209h-204v209 q-92 20 -135.5 91t-43.5 206z" />
<glyph unicode="&#xa3;" horiz-adv-x="841" d="M53 0v209h72v270h-72v197h72v90h-72v197h72v305q0 188 86 257.5t237.5 69.5t237.5 -68.5t86 -258.5v-105h-209v78q0 80 -32.5 118t-82 38t-82 -38t-32.5 -118v-278h420v-197h-420v-90h420v-197h-420v-270h434v-209h-715z" />
<glyph unicode="&#xa4;" horiz-adv-x="780" d="M12 520v197h60v90h-60v197h60v264q0 164 91 245.5t232.5 81.5t232.5 -80.5t91 -246.5v-164h-209v137q0 80 -33 118t-82 38t-81.5 -38t-32.5 -118v-237h350v-197h-350v-90h350v-197h-350v-192q0 -80 32.5 -118t81.5 -38t82 38t33 118v114h209v-141q0 -166 -91 -247 t-232.5 -81t-232.5 82t-91 246v219h-60z" />
<glyph unicode="&#xa5;" horiz-adv-x="733" d="M0 1571h211l145 -682l166 684h211l-233 -920h129v-196h-156v-90h156v-197h-156v-170h-246v170h-135v197h135v90h-135v196h111z" />
<glyph unicode="&#xa6;" horiz-adv-x="372" d="M82 356h209v-766h-209v766zM82 764v805h209v-805h-209z" />
<glyph unicode="&#xa7;" horiz-adv-x="874" d="M0 969v192h113v117q0 164 63.5 235.5t194.5 71.5q37 0 82 -10v-143h-62q-43 0 -58.5 -34t-15.5 -122v-115h207v287h205v-287h133v-192h-133v-676q0 -88 15.5 -122t58.5 -34h61v-143q-45 -10 -82 -10q-141 0 -199.5 69.5t-58.5 237.5v678h-207v-969h-204v969h-113z" />
<glyph unicode="&#xa8;" horiz-adv-x="643" d="M29 1380q0 59 40 94t99 35q63 0 96 -37.5t33 -99.5q0 -55 -41 -88t-98 -33q-49 0 -89 40t-40 89zM348 1380q0 59 40 94t99 35q63 0 96 -37.5t33 -99.5q0 -55 -40.5 -88t-98.5 -33q-49 0 -89 40t-40 89z" />
<glyph unicode="&#xa9;" horiz-adv-x="1517" d="M63 780.5q0 393.5 188.5 613.5t508 220t508 -220t188.5 -613.5t-187.5 -612.5t-509 -219t-509 219t-187.5 612.5zM246 782.5q0 -282.5 146.5 -466t365.5 -183.5t365.5 183.5t146.5 466t-146.5 466t-365.5 183.5t-365.5 -183.5t-146.5 -466zM475 561v426q0 166 66.5 236.5 t212 70.5t212 -69.5t66.5 -237.5v-102h-205v59q0 88 -15 122t-58 34t-58.5 -34t-15.5 -122v-340q0 -88 15.5 -121.5t58.5 -33.5t58 33.5t15 121.5v82h205v-125q0 -168 -66.5 -237.5t-212 -69.5t-212 70.5t-66.5 236.5z" />
<glyph unicode="&#xaa;" horiz-adv-x="690" d="M61 293v573q0 186 34 250t169 64q35 0 80 -31t70 -70v82h204v-1161h-178l-26 94q-16 -41 -49 -74.5t-80 -33.5q-137 0 -180.5 64.5t-43.5 242.5zM266 336q0 -88 15.5 -122t58.5 -34t58.5 34t15.5 122v512q0 131 -74 131q-43 0 -58.5 -34t-15.5 -122v-487z" />
<glyph unicode="&#xab;" horiz-adv-x="735" d="M12 584l199 422h213l-199 -424l199 -396h-211zM319 584l199 422h213l-199 -424l199 -396h-211z" />
<glyph unicode="&#xac;" horiz-adv-x="804" d="M72 301v967q0 328 344 327q158 0 240.5 -72.5t82.5 -254.5v-246h-209v219q0 80 -32.5 118t-81.5 38q-51 0 -93 -39t-42 -117v-913q0 -78 42 -117t93 -39q49 0 81.5 38t32.5 118v358h-137v209h346v-594q0 -182 -83 -255t-240.5 -73t-250.5 78t-93 250z" />
<glyph unicode="&#xad;" horiz-adv-x="509" d="M49 500v196h408v-196h-408z" />
<glyph unicode="&#xae;" horiz-adv-x="1517" d="M63 780.5q0 393.5 188.5 613.5t508 220t508 -220t188.5 -613.5t-187.5 -612.5t-509 -219t-509 219t-187.5 612.5zM246 782q0 -180 62.5 -325.5t172.5 -229.5v1069h291q145 0 225 -73.5t80 -253.5v-35q0 -268 -151 -320l110 -385q109 84 171.5 228.5t62.5 324.5 q0 283 -146.5 466.5t-365.5 183.5t-365.5 -183.5t-146.5 -466.5zM487 223q123 -90 271 -90q145 0 268 90h-195l-104 357h-37v-357h-203zM690 778h64q59 0 86.5 36t27.5 120v8q0 84 -27.5 120t-86.5 36h-64v-320z" />
<glyph unicode="&#xaf;" horiz-adv-x="1218" d="M0 969v192h113v117q0 164 63.5 235.5t194.5 71.5q37 0 82 -10v-143h-62q-43 0 -58.5 -34t-15.5 -122v-115h205v117q0 164 63.5 235.5t194.5 71.5q37 0 82 -10v-143h-61q-43 0 -58.5 -34t-15.5 -122v-115h133v-192h-133v-969h-205v969h-205v-969h-204v969h-113zM932 0 v1571h205v-1571h-205z" />
<glyph unicode="&#xb0;" horiz-adv-x="1527" d="M82 0v1569h264l264 -1077l41 -115l-24 115v1077h209v-1569h-275l-252 1028l-33 109l15 -113v-1024h-209zM950 750v340q0 168 58.5 237.5t199.5 69.5q143 0 200.5 -68.5t57.5 -238.5v-340q0 -170 -57 -239t-201 -69q-141 0 -199.5 70t-58.5 238zM1006 133v197h407v-197 h-407zM1135 793q0 -88 15 -122t58 -34t58.5 34t15.5 122v254q0 88 -15.5 121.5t-58.5 33.5t-58 -33.5t-15 -121.5v-254z" />
<glyph unicode="&#xb1;" horiz-adv-x="638" d="M53 340v197h537v-197h-537zM53 809v197h170v170h197v-170h170v-197h-170v-170h-197v170h-170z" />
<glyph unicode="&#xb2;" horiz-adv-x="731" d="M41 0v156q0 98 67.5 237t149.5 256t149.5 248t67.5 213v135q0 80 -32.5 118t-82 38t-82 -38t-32.5 -118v-192h-205v215q0 164 85 245.5t234 81.5q147 0 233.5 -82.5t86.5 -244.5v-181q0 -94 -65.5 -227t-144.5 -243.5t-147.5 -228.5t-72.5 -183h393v-205h-602z" />
<glyph unicode="&#xb3;" horiz-adv-x="765" d="M61 281v221h205v-199q0 -135 115 -135t115 135v268q0 76 -56.5 106t-120.5 30q-14 0 -38 -5v218q12 -4 38 -5q63 0 120 30t57 106v217q0 135 -115 135t-115 -135v-207h-200q-4 41 -5 69v160q0 307 319.5 307t319.5 -307v-211q0 -109 -37.5 -163t-154.5 -95 q115 -47 153.5 -107.5t38.5 -170.5v-262q0 -307 -319.5 -307t-319.5 307z" />
<glyph unicode="&#xb4;" horiz-adv-x="241" d="M0 1315l90 207h227l-127 -207h-190z" />
<glyph unicode="&#xb6;" horiz-adv-x="798" d="M59 831v410q0 199 60.5 263.5t218.5 64.5h379v-1747h-127v1626h-101v-1628h-127v684h-24q-158 0 -218.5 64t-60.5 263z" />
<glyph unicode="&#xb7;" horiz-adv-x="854" d="M0 969v192h92v287h205v-287h207v287h205v-287h133v-192h-133v-676q0 -88 15 -122t58 -34h62v-143q-45 -10 -82 -10q-141 0 -199.5 69.5t-58.5 237.5v678h-207v-676q0 -88 15.5 -122t58.5 -34h61v-143q-45 -10 -82 -10q-141 0 -199.5 69.5t-58.5 237.5v678h-92z" />
<glyph unicode="&#xb8;" horiz-adv-x="333" d="M33 -170l86 215h176l-125 -215h-137z" />
<glyph unicode="&#xb9;" horiz-adv-x="532" d="M10 1266v202l260 101h181v-1569h-205v1341z" />
<glyph unicode="&#xba;" horiz-adv-x="638" d="M61 750v340q0 168 58.5 237.5t199.5 69.5q143 0 201 -68.5t58 -238.5v-340q0 -170 -57.5 -239t-201.5 -69q-141 0 -199.5 70t-58.5 238zM117 133v197h407v-197h-407zM246 793q0 -88 15 -122t58 -34t58.5 34t15.5 122v254q0 88 -15.5 121.5t-58.5 33.5t-58 -33.5 t-15 -121.5v-254z" />
<glyph unicode="&#xbb;" horiz-adv-x="735" d="M10 186l199 396l-199 424h213l199 -422l-201 -398h-211zM317 186l199 396l-199 424h213l199 -422l-201 -398h-211z" />
<glyph unicode="&#xbf;" horiz-adv-x="761" d="M59 -117v273q0 139 51.5 216t184.5 101v393h209v-583q-12 4 -39 4q-39 0 -78 -8.5t-79 -41t-40 -85.5v-242q0 -135 115 -135t115 135v203h209v-230q0 -166 -77 -236.5t-247 -70.5t-247 69.5t-77 237.5zM262 1077q0 55 41 88t98 33q49 0 89 -40t40 -89q0 -59 -39.5 -94 t-99.5 -35q-63 0 -96 38t-33 99z" />
<glyph unicode="&#xc0;" horiz-adv-x="731" d="M0 0l211 1569h307l213 -1569h-209l-41 348h-231l-41 -348h-209zM162 1931h227l94 -207h-192zM276 557h179l-82 690q0 39 -8 113q-6 -55 -7 -113z" />
<glyph unicode="&#xc1;" horiz-adv-x="731" d="M0 0l211 1569h307l213 -1569h-209l-41 348h-231l-41 -348h-209zM274 1724l91 207h227l-127 -207h-191zM276 557h179l-82 690q0 39 -8 113q-6 -55 -7 -113z" />
<glyph unicode="&#xc2;" horiz-adv-x="731" d="M0 0l211 1569h307l213 -1569h-209l-41 348h-231l-41 -348h-209zM135 1647l113 288h225l121 -288h-150l-79 168l-74 -168h-156zM276 557h179l-82 690q0 39 -8 113q-6 -55 -7 -113z" />
<glyph unicode="&#xc3;" horiz-adv-x="731" d="M0 0l211 1569h307l213 -1569h-209l-41 348h-231l-41 -348h-209zM133 1786q20 129 127 129q45 0 98.5 -15.5t92.5 -15.5q25 0 41 7t21 14.5t5 9.5l78 -43q0 -63 -41 -116.5t-92 -53.5q-43 0 -92 17.5t-90 17.5q-66 0 -74 -33zM276 557h179l-82 690q0 39 -8 113 q-6 -55 -7 -113z" />
<glyph unicode="&#xc4;" horiz-adv-x="731" d="M0 0l211 1569h307l213 -1569h-209l-41 348h-231l-41 -348h-209zM72 1790q0 59 40 94t99 35q63 0 96 -38t33 -99q0 -55 -41 -88t-98 -33q-49 0 -89 40t-40 89zM276 557h179l-82 690q0 39 -8 113q-6 -55 -7 -113zM391 1790q0 59 40 94t99 35q63 0 96 -38t33 -99 q0 -55 -40.5 -88t-98.5 -33q-49 0 -89 40t-40 89z" />
<glyph unicode="&#xc5;" horiz-adv-x="731" d="M0 0l211 1569h307l213 -1569h-209l-41 348h-231l-41 -348h-209zM152 1808q0 82 55 147.5t162 65.5q104 0 157.5 -67.5t53.5 -147.5q0 -82 -54.5 -148.5t-160.5 -66.5q-102 0 -157.5 62.5t-55.5 154.5zM276 557h179l-82 690q0 39 -8 113q-6 -55 -7 -113zM293 1806 q0 -35 22.5 -54t53.5 -19q29 0 51 22.5t20 52.5q0 29 -22.5 51.5t-52.5 22.5q-31 -2 -51.5 -24.5t-20.5 -51.5z" />
<glyph unicode="&#xc6;" horiz-adv-x="1056" d="M0 0l406 1569h620v-209h-291v-465h277v-209h-277v-477h291v-209h-506l6 348h-231l-88 -348h-207zM344 557h182v717z" />
<glyph unicode="&#xc7;" horiz-adv-x="780" d="M72 301v967q0 164 91 245.5t232.5 81.5t232.5 -80.5t91 -246.5v-246h-209v219q0 80 -33 118t-82 38t-81.5 -38t-32.5 -118v-913q0 -80 32.5 -118t81.5 -38t82 38t33 118v196h209v-223q0 -139 -65.5 -219t-176.5 -100l-106 -187h-138l74 189q-106 20 -170.5 100t-64.5 217 z" />
<glyph unicode="&#xc8;" horiz-adv-x="612" d="M82 0v1569h500v-209h-291v-465h276v-209h-276v-477h291v-209h-500zM125 1931h227l94 -207h-192z" />
<glyph unicode="&#xc9;" horiz-adv-x="612" d="M82 0v1569h500v-209h-291v-465h276v-209h-276v-477h291v-209h-500zM213 1724l90 207h227l-127 -207h-190z" />
<glyph unicode="&#xca;" horiz-adv-x="612" d="M82 0v1569h500v-209h-291v-465h276v-209h-276v-477h291v-209h-500zM106 1647l113 288h225l121 -288h-149l-80 168l-74 -168h-156z" />
<glyph unicode="&#xcb;" horiz-adv-x="612" d="M12 1790q0 59 40 94t100 35q63 0 96 -38t33 -99q0 -55 -41 -88t-99 -33q-49 0 -89 40t-40 89zM82 0v1569h500v-209h-291v-465h276v-209h-276v-477h291v-209h-500zM332 1790q0 59 40 94t99 35q63 0 96 -38t33 -99q0 -55 -41 -88t-98 -33q-49 0 -89 40t-40 89z" />
<glyph unicode="&#xcc;" horiz-adv-x="372" d="M-37 1931h227l95 -207h-193zM82 0v1569h209v-1569h-209z" />
<glyph unicode="&#xcd;" horiz-adv-x="372" d="M82 0v1569h209v-1569h-209zM88 1724l90 207h228l-127 -207h-191z" />
<glyph unicode="&#xce;" horiz-adv-x="372" d="M-43 1647l113 288h225l121 -288h-150l-80 168l-73 -168h-156zM82 0v1569h209v-1569h-209z" />
<glyph unicode="&#xcf;" horiz-adv-x="372" d="M-106 1790q0 59 39.5 94t99.5 35q63 0 96 -38t33 -99q0 -55 -41 -88t-98 -33q-49 0 -89 40t-40 89zM82 0v1569h209v-1569h-209zM213 1790q0 59 40 94t99 35q63 0 96 -38t33 -99q0 -55 -41 -88t-98 -33q-49 0 -89 40t-40 89z" />
<glyph unicode="&#xd0;" horiz-adv-x="796" d="M0 696v197h88v676h358q127 0 203 -80t76 -248v-913q0 -168 -76 -248t-203 -80h-358v696h-88zM297 199h104q59 0 87 35.5t28 119.5v860q0 84 -27.5 120t-87.5 36h-104v-477h111v-197h-111v-497z" />
<glyph unicode="&#xd1;" horiz-adv-x="917" d="M82 0v1569h264l264 -1077l41 -115l-24 115v1077h209v-1569h-275l-252 1028l-33 109l15 -113v-1024h-209zM227 1786q20 129 127 129q45 0 98.5 -15.5t92.5 -15.5q25 0 41 7t21 14.5t5 9.5l78 -43q0 -63 -41 -116.5t-92 -53.5q-43 0 -92 17.5t-90 17.5q-66 0 -74 -33z" />
<glyph unicode="&#xd2;" d="M72 301v967q0 164 91 245.5t232 81.5q160 0 242 -77.5t82 -249.5v-967q0 -166 -91 -247t-232.5 -81t-232.5 82t-91 246zM193 1931h227l94 -207h-192zM281 328q0 -80 32.5 -118t81.5 -38t82 38t33 118v913q0 80 -33 118t-82 38t-81.5 -38t-32.5 -118v-913z" />
<glyph unicode="&#xd3;" d="M72 301v967q0 164 91 245.5t232 81.5q160 0 242 -77.5t82 -249.5v-967q0 -166 -91 -247t-232.5 -81t-232.5 82t-91 246zM281 328q0 -80 32.5 -118t81.5 -38t82 38t33 118v913q0 80 -33 118t-82 38t-81.5 -38t-32.5 -118v-913zM297 1724l90 207h227l-127 -207h-190z" />
<glyph unicode="&#xd4;" d="M72 301v967q0 164 91 245.5t232 81.5q160 0 242 -77.5t82 -249.5v-967q0 -166 -91 -247t-232.5 -81t-232.5 82t-91 246zM166 1647l113 288h225l121 -288h-150l-80 168l-73 -168h-156zM281 328q0 -80 32.5 -118t81.5 -38t82 38t33 118v913q0 80 -33 118t-82 38t-81.5 -38 t-32.5 -118v-913z" />
<glyph unicode="&#xd5;" d="M72 301v967q0 164 91 245.5t232 81.5q160 0 242 -77.5t82 -249.5v-967q0 -166 -91 -247t-232.5 -81t-232.5 82t-91 246zM164 1786q20 129 127 129q45 0 98 -15.5t92 -15.5q25 0 41.5 7t21.5 14.5t5 9.5l78 -43q0 -63 -41 -116.5t-92 -53.5q-43 0 -92.5 17.5t-90.5 17.5 q-66 0 -73 -33zM281 328q0 -80 32.5 -118t81.5 -38t82 38t33 118v913q0 80 -33 118t-82 38t-81.5 -38t-32.5 -118v-913z" />
<glyph unicode="&#xd6;" d="M72 301v967q0 164 91 245.5t232 81.5q160 0 242 -77.5t82 -249.5v-967q0 -166 -91 -247t-232.5 -81t-232.5 82t-91 246zM100 1790q0 59 40 94t100 35q63 0 96 -38t33 -99q0 -55 -41 -88t-99 -33q-49 0 -89 40t-40 89zM281 328q0 -80 32.5 -118t81.5 -38t82 38t33 118v913 q0 80 -33 118t-82 38t-81.5 -38t-32.5 -118v-913zM420 1790q0 59 40 94t99 35q63 0 96 -38t33 -99q0 -55 -41 -88t-98 -33q-49 0 -89 40t-40 89z" />
<glyph unicode="&#xd7;" horiz-adv-x="618" d="M45 641l121 121l-121 121l139 139l121 -121l121 121l139 -139l-121 -121l121 -121l-139 -139l-121 121l-121 -121z" />
<glyph unicode="&#xd8;" d="M72 301v967q0 164 91 245.5t232 81.5q72 0 123 -14l21 94h75l-26 -123q131 -74 131 -284v-967q0 -166 -91 -247t-233 -81q-76 0 -139 25l-23 -107h-75l30 144q-116 84 -116 266zM281 467l190 897q-31 33 -76 33q-49 0 -81.5 -38t-32.5 -118v-774zM303 223q31 -51 92 -51 q49 0 82 38t33 118v858z" />
<glyph unicode="&#xd9;" horiz-adv-x="798" d="M76 301v1268h209v-1274q0 -80 32.5 -118t82 -38t82 38t32.5 118v1274h209v-1268q0 -166 -91 -247t-232.5 -81t-232.5 82t-91 246zM197 1931h227l94 -207h-192z" />
<glyph unicode="&#xda;" horiz-adv-x="798" d="M76 301v1268h209v-1274q0 -80 32.5 -118t82 -38t82 38t32.5 118v1274h209v-1268q0 -166 -91 -247t-232.5 -81t-232.5 82t-91 246zM301 1724l90 207h227l-126 -207h-191z" />
<glyph unicode="&#xdb;" horiz-adv-x="798" d="M76 301v1268h209v-1274q0 -80 32.5 -118t82 -38t82 38t32.5 118v1274h209v-1268q0 -166 -91 -247t-232.5 -81t-232.5 82t-91 246zM170 1647l113 288h225l121 -288h-150l-80 168l-73 -168h-156z" />
<glyph unicode="&#xdc;" horiz-adv-x="798" d="M76 301v1268h209v-1274q0 -80 32.5 -118t82 -38t82 38t32.5 118v1274h209v-1268q0 -166 -91 -247t-232.5 -81t-232.5 82t-91 246zM104 1790q0 59 40 94t100 35q63 0 96 -38t33 -99q0 -55 -41 -88t-99 -33q-49 0 -89 40t-40 89zM424 1790q0 59 40 94t99 35q63 0 96 -38 t33 -99q0 -55 -41 -88t-98 -33q-49 0 -89 40t-40 89z" />
<glyph unicode="&#xdd;" horiz-adv-x="733" d="M0 1571h211l145 -682l166 684h211l-260 -1026v-547h-246v545zM268 1724l90 207h228l-127 -207h-191z" />
<glyph unicode="&#xde;" horiz-adv-x="759" d="M82 0v1569h209v-342h149q141 0 210 -72t69 -256v-242q0 -184 -68.5 -255.5t-210.5 -71.5h-149v-330h-209zM291 522h104q59 0 87 36t28 120v201q0 84 -27.5 119.5t-87.5 35.5h-104v-512z" />
<glyph unicode="&#xdf;" horiz-adv-x="808" d="M0 965v192h113v133q0 162 79.5 234.5t237.5 72.5q152 0 229.5 -63.5t77.5 -210.5q0 -213 -135 -252q84 -31 112.5 -97.5t28.5 -180.5v-512q0 -307 -231 -308h-86v148h4q115 0 115 135v580q0 61 -42 93t-97 40v184q139 18 139 133v29q0 135 -115 135q-53 0 -83 -38 t-30 -152v-1260h-204v965h-113z" />
<glyph unicode="&#xe0;" horiz-adv-x="684" d="M61 293v80q0 332 220 332h133v114q0 88 -15.5 122t-58.5 34t-58.5 -34t-15.5 -122v-28h-205v71q0 168 67 237.5t212 69.5t211.5 -70.5t66.5 -236.5v-862h-178l-26 94q-16 -41 -49 -74.5t-80 -33.5q-137 0 -180.5 64.5t-43.5 242.5zM145 1522h228l94 -207h-193zM266 336 q0 -88 15.5 -122t58.5 -34t58.5 34t15.5 122v211h-74q-41 0 -57.5 -43t-16.5 -133v-35z" />
<glyph unicode="&#xe1;" horiz-adv-x="684" d="M61 293v80q0 332 220 332h133v114q0 88 -15.5 122t-58.5 34t-58.5 -34t-15.5 -122v-28h-205v71q0 168 67 237.5t212 69.5t211.5 -70.5t66.5 -236.5v-862h-178l-26 94q-16 -41 -49 -74.5t-80 -33.5q-137 0 -180.5 64.5t-43.5 242.5zM242 1315l90 207h227l-127 -207h-190z M266 336q0 -88 15.5 -122t58.5 -34t58.5 34t15.5 122v211h-74q-41 0 -57.5 -43t-16.5 -133v-35z" />
<glyph unicode="&#xe2;" horiz-adv-x="684" d="M61 293v80q0 332 220 332h133v114q0 88 -15.5 122t-58.5 34t-58.5 -34t-15.5 -122v-28h-205v71q0 168 67 237.5t212 69.5t211.5 -70.5t66.5 -236.5v-862h-178l-26 94q-16 -41 -49 -74.5t-80 -33.5q-137 0 -180.5 64.5t-43.5 242.5zM113 1237l112 289h226l120 -289h-149 l-80 168l-74 -168h-155zM266 336q0 -88 15.5 -122t58.5 -34t58.5 34t15.5 122v211h-74q-41 0 -57.5 -43t-16.5 -133v-35z" />
<glyph unicode="&#xe3;" horiz-adv-x="684" d="M61 293v80q0 332 220 332h133v114q0 88 -15.5 122t-58.5 34t-58.5 -34t-15.5 -122v-28h-205v71q0 168 67 237.5t212 69.5t211.5 -70.5t66.5 -236.5v-862h-178l-26 94q-16 -41 -49 -74.5t-80 -33.5q-137 0 -180.5 64.5t-43.5 242.5zM111 1376q20 129 127 129q45 0 98 -15 t92 -15q25 0 41 7t21.5 14t5.5 9l77 -43q0 -63 -40.5 -116.5t-92.5 -53.5q-43 0 -92 17.5t-90 17.5q-66 0 -74 -33zM266 336q0 -88 15.5 -122t58.5 -34t58.5 34t15.5 122v211h-74q-41 0 -57.5 -43t-16.5 -133v-35z" />
<glyph unicode="&#xe4;" horiz-adv-x="684" d="M47 1380q0 59 40 94t99 35q63 0 96 -37.5t33 -99.5q0 -55 -41 -88t-98 -33q-49 0 -89 40t-40 89zM61 293v80q0 332 220 332h133v114q0 88 -15.5 122t-58.5 34t-58.5 -34t-15.5 -122v-28h-205v71q0 168 67 237.5t212 69.5t211.5 -70.5t66.5 -236.5v-862h-178l-26 94 q-16 -41 -49 -74.5t-80 -33.5q-137 0 -180.5 64.5t-43.5 242.5zM266 336q0 -88 15.5 -122t58.5 -34t58.5 34t15.5 122v211h-74q-41 0 -57.5 -43t-16.5 -133v-35zM367 1380q0 59 39.5 94t99.5 35q63 0 96 -37.5t33 -99.5q0 -55 -41 -88t-98 -33q-49 0 -89 40t-40 89z" />
<glyph unicode="&#xe5;" horiz-adv-x="684" d="M61 293v80q0 332 220 332h133v114q0 88 -15.5 122t-58.5 34t-58.5 -34t-15.5 -122v-28h-205v71q0 168 67 237.5t212 69.5t211.5 -70.5t66.5 -236.5v-862h-178l-26 94q-16 -41 -49 -74.5t-80 -33.5q-137 0 -180.5 64.5t-43.5 242.5zM127 1399q0 82 55.5 147.5t161.5 65.5 q104 0 157.5 -67.5t53.5 -147.5q0 -82 -54.5 -148.5t-160.5 -66.5q-102 0 -157.5 62.5t-55.5 154.5zM266 336q0 -88 15.5 -122t58.5 -34t58.5 34t15.5 122v211h-74q-41 0 -57.5 -43t-16.5 -133v-35zM268 1397q0 -35 22.5 -54.5t53.5 -19.5q29 0 51.5 22.5t20.5 53.5 q0 29 -22.5 51.5t-53.5 22.5q-31 -2 -51.5 -24.5t-20.5 -51.5z" />
<glyph unicode="&#xe6;" horiz-adv-x="1021" d="M61 293v80q0 332 220 332h133v114q0 88 -15.5 122t-58.5 34t-58.5 -34t-15.5 -122v-28h-205v71q0 168 67 237.5t212 69.5q113 0 176 -41q61 41 176 41q145 0 212 -69.5t67 -237.5v-368h-353v-187q0 -72 16.5 -101.5t57.5 -29.5q43 0 58.5 34t15.5 122v51h205v-94 q0 -168 -66.5 -237.5t-212.5 -69.5q-211 0 -260 155l-18 -43q-16 -41 -49 -74.5t-80 -33.5q-137 0 -180.5 64.5t-43.5 242.5zM266 336q0 -88 15.5 -122t58.5 -34t58.5 34t15.5 122v211h-74q-41 0 -57.5 -43t-16.5 -133v-35zM618 686h148v133q0 88 -15.5 122t-58.5 34 q-41 0 -57.5 -30t-16.5 -101v-158z" />
<glyph unicode="&#xe7;" horiz-adv-x="669" d="M61 289v590q0 166 67 236.5t212 70.5t211.5 -69.5t66.5 -237.5v-144h-204v101q0 88 -15.5 121.5t-58.5 33.5t-58.5 -33.5t-15.5 -121.5v-504q0 -88 15.5 -122t58.5 -34t58.5 34t15.5 122v123h204v-166q0 -137 -44 -208t-138 -89l-104 -182h-137l69 178q-104 16 -153.5 87 t-49.5 214z" />
<glyph unicode="&#xe8;" horiz-adv-x="669" d="M61 289v573q0 166 67 236.5t212 70.5t211.5 -69.5t66.5 -237.5v-368h-352v-162q0 -88 15.5 -122t58.5 -34t58.5 34t15.5 122v51h204v-94q0 -168 -66.5 -237.5t-211.5 -69.5t-212 70.5t-67 236.5zM133 1522h227l95 -207h-193zM266 686h148v133q0 88 -15.5 122t-58.5 34 t-58.5 -34t-15.5 -122v-133z" />
<glyph unicode="&#xe9;" horiz-adv-x="669" d="M61 289v573q0 166 67 236.5t212 70.5t211.5 -69.5t66.5 -237.5v-368h-352v-162q0 -88 15.5 -122t58.5 -34t58.5 34t15.5 122v51h204v-94q0 -168 -66.5 -237.5t-211.5 -69.5t-212 70.5t-67 236.5zM231 1315l91 207h227l-127 -207h-191zM266 686h148v133q0 88 -15.5 122 t-58.5 34t-58.5 -34t-15.5 -122v-133z" />
<glyph unicode="&#xea;" horiz-adv-x="669" d="M61 289v573q0 166 67 236.5t212 70.5t211.5 -69.5t66.5 -237.5v-368h-352v-162q0 -88 15.5 -122t58.5 -34t58.5 34t15.5 122v51h204v-94q0 -168 -66.5 -237.5t-211.5 -69.5t-212 70.5t-67 236.5zM104 1237l113 289h225l121 -289h-149l-80 168l-74 -168h-156zM266 686h148 v133q0 88 -15.5 122t-58.5 34t-58.5 -34t-15.5 -122v-133z" />
<glyph unicode="&#xeb;" horiz-adv-x="669" d="M41 1380q0 59 40 94t99 35q63 0 96 -37.5t33 -99.5q0 -55 -41 -88t-98 -33q-49 0 -89 40t-40 89zM61 289v573q0 166 67 236.5t212 70.5t211.5 -69.5t66.5 -237.5v-368h-352v-162q0 -88 15.5 -122t58.5 -34t58.5 34t15.5 122v51h204v-94q0 -168 -66.5 -237.5t-211.5 -69.5 t-212 70.5t-67 236.5zM266 686h148v133q0 88 -15.5 122t-58.5 34t-58.5 -34t-15.5 -122v-133zM360 1380q0 59 40 94t100 35q63 0 96 -37.5t33 -99.5q0 -55 -41 -88t-99 -33q-49 0 -89 40t-40 89z" />
<glyph unicode="&#xec;" horiz-adv-x="350" d="M-47 1522h227l94 -207h-192zM74 0v1161h205v-1161h-205z" />
<glyph unicode="&#xed;" horiz-adv-x="350" d="M74 0v1161h205v-1161h-205zM78 1315l90 207h227l-127 -207h-190z" />
<glyph unicode="&#xee;" horiz-adv-x="350" d="M-53 1237l112 289h226l121 -289h-150l-80 168l-74 -168h-155zM74 0v1161h205v-1161h-205z" />
<glyph unicode="&#xef;" horiz-adv-x="350" d="M-119 1380q0 59 40 94t99 35q63 0 96.5 -37.5t33.5 -99.5q0 -55 -41 -88t-99 -33q-49 0 -89 40t-40 89zM74 0v1161h205v-1161h-205zM201 1380q0 59 40 94t99 35q63 0 96 -37.5t33 -99.5q0 -55 -41 -88t-98 -33q-49 0 -89 40t-40 89z" />
<glyph unicode="&#xf0;" horiz-adv-x="690" d="M61 289v573q0 166 54.5 236.5t183.5 70.5q78 0 115 -10v86h-80v131h78q-4 33 -20.5 44.5t-51.5 11.5h-143v143q31 2 106.5 6t138.5 4q147 0 170 -209h70v-131l-64 -4v-952q0 -168 -66.5 -237.5t-211.5 -69.5q-168 0 -223.5 66.5t-55.5 240.5zM266 332q0 -88 15.5 -122 t58.5 -34t58.5 34t15.5 122v512q0 72 -16.5 101.5t-57.5 29.5q-43 0 -58.5 -34t-15.5 -122v-487z" />
<glyph unicode="&#xf1;" horiz-adv-x="694" d="M72 0v1161h178l26 -94q43 109 170 109q109 0 146 -66t37 -242v-868h-205v825q0 88 -15.5 122t-58.5 34t-58.5 -34t-15.5 -122v-825h-204zM115 1376q20 129 127 129q45 0 98 -15t92 -15q25 0 41 7t21.5 14t5.5 9l78 -43q0 -63 -41 -116.5t-93 -53.5q-43 0 -92 17.5 t-90 17.5q-66 0 -74 -33z" />
<glyph unicode="&#xf2;" horiz-adv-x="679" d="M61 289v573q0 166 67 236.5t212 70.5t211.5 -69.5t66.5 -237.5v-573q0 -168 -66.5 -237.5t-211.5 -69.5t-212 70.5t-67 236.5zM137 1522h228l94 -207h-193zM266 332q0 -88 15.5 -122t58.5 -34t58.5 34t15.5 122v487q0 88 -15.5 122t-58.5 34t-58.5 -34t-15.5 -122v-487z " />
<glyph unicode="&#xf3;" horiz-adv-x="679" d="M61 289v573q0 166 67 236.5t212 70.5t211.5 -69.5t66.5 -237.5v-573q0 -168 -66.5 -237.5t-211.5 -69.5t-212 70.5t-67 236.5zM238 1315l90 207h227l-127 -207h-190zM266 332q0 -88 15.5 -122t58.5 -34t58.5 34t15.5 122v487q0 88 -15.5 122t-58.5 34t-58.5 -34 t-15.5 -122v-487z" />
<glyph unicode="&#xf4;" horiz-adv-x="679" d="M61 289v573q0 166 67 236.5t212 70.5t211.5 -69.5t66.5 -237.5v-573q0 -168 -66.5 -237.5t-211.5 -69.5t-212 70.5t-67 236.5zM111 1237l112 289h226l120 -289h-149l-80 168l-74 -168h-155zM266 332q0 -88 15.5 -122t58.5 -34t58.5 34t15.5 122v487q0 88 -15.5 122 t-58.5 34t-58.5 -34t-15.5 -122v-487z" />
<glyph unicode="&#xf5;" horiz-adv-x="679" d="M61 289v573q0 166 67 236.5t212 70.5t211.5 -69.5t66.5 -237.5v-573q0 -168 -66.5 -237.5t-211.5 -69.5t-212 70.5t-67 236.5zM109 1376q20 129 127 129q45 0 98 -15t92 -15q25 0 41 7t21.5 14t5.5 9l77 -43q0 -63 -41 -116.5t-92 -53.5q-43 0 -92 17.5t-90 17.5 q-66 0 -74 -33zM266 332q0 -88 15.5 -122t58.5 -34t58.5 34t15.5 122v487q0 88 -15.5 122t-58.5 34t-58.5 -34t-15.5 -122v-487z" />
<glyph unicode="&#xf6;" horiz-adv-x="679" d="M45 1380q0 59 40 94t99 35q63 0 96 -37.5t33 -99.5q0 -55 -41 -88t-98 -33q-49 0 -89 40t-40 89zM61 289v573q0 166 67 236.5t212 70.5t211.5 -69.5t66.5 -237.5v-573q0 -168 -66.5 -237.5t-211.5 -69.5t-212 70.5t-67 236.5zM266 332q0 -88 15.5 -122t58.5 -34t58.5 34 t15.5 122v487q0 88 -15.5 122t-58.5 34t-58.5 -34t-15.5 -122v-487zM365 1380q0 59 39.5 94t99.5 35q63 0 96 -37.5t33 -99.5q0 -55 -41 -88t-98 -33q-49 0 -89 40t-40 89z" />
<glyph unicode="&#xf7;" horiz-adv-x="638" d="M53 664v196h537v-196h-537zM188 426q0 59 40 94t100 35q63 0 96 -38t33 -99q0 -55 -41 -88t-99 -33q-49 0 -89 40t-40 89zM188 1094q0 59 40 94t100 35q63 0 96 -38t33 -100q0 -55 -41 -87.5t-99 -32.5q-49 0 -89 40t-40 89z" />
<glyph unicode="&#xf8;" horiz-adv-x="679" d="M61 289v573q0 166 67 236.5t212 70.5q53 0 88 -8l21 94h75l-24 -116q119 -61 118 -277v-573q0 -168 -66.5 -237.5t-211.5 -69.5q-53 0 -86 8l-21 -99h-75l24 119q-121 60 -121 279zM266 399l119 559q-16 16 -45 17q-43 0 -58.5 -34t-15.5 -122v-420zM297 188 q14 -12 43 -12q43 0 58.5 34t15.5 122v403z" />
<glyph unicode="&#xf9;" horiz-adv-x="694" d="M66 293v868h204v-825q0 -88 15.5 -122t58.5 -34t58.5 34t15.5 122v825h205v-1161h-179l-26 94q-16 -41 -49 -74.5t-80 -33.5q-137 0 -180 64.5t-43 242.5zM145 1522h228l94 -207h-193z" />
<glyph unicode="&#xfa;" horiz-adv-x="694" d="M66 293v868h204v-825q0 -88 15.5 -122t58.5 -34t58.5 34t15.5 122v825h205v-1161h-179l-26 94q-16 -41 -49 -74.5t-80 -33.5q-137 0 -180 64.5t-43 242.5zM250 1315l90 207h227l-127 -207h-190z" />
<glyph unicode="&#xfb;" horiz-adv-x="694" d="M66 293v868h204v-825q0 -88 15.5 -122t58.5 -34t58.5 34t15.5 122v825h205v-1161h-179l-26 94q-16 -41 -49 -74.5t-80 -33.5q-137 0 -180 64.5t-43 242.5zM117 1237l112 289h226l120 -289h-149l-80 168l-74 -168h-155z" />
<glyph unicode="&#xfc;" horiz-adv-x="694" d="M53 1380q0 59 40 94t100 35q63 0 96 -37.5t33 -99.5q0 -55 -41 -88t-99 -33q-49 0 -89 40t-40 89zM66 293v868h204v-825q0 -88 15.5 -122t58.5 -34t58.5 34t15.5 122v825h205v-1161h-179l-26 94q-16 -41 -49 -74.5t-80 -33.5q-137 0 -180 64.5t-43 242.5zM373 1380 q0 59 40 94t99 35q63 0 96 -37.5t33 -99.5q0 -55 -41 -88t-98 -33q-49 0 -89 40t-40 89z" />
<glyph unicode="&#xfd;" horiz-adv-x="632" d="M0 1161h213l98 -844q0 -39 4 -104l4 12q4 61 5 92l96 844h213l-238 -1571h-260l64 299zM219 1315l90 207h228l-127 -207h-191z" />
<glyph unicode="&#xfe;" horiz-adv-x="700" d="M82 -408v1977h205v-500q16 41 49 75t80 34q137 0 180 -64.5t43 -243.5v-573q0 -186 -34 -249.5t-169 -63.5q-37 0 -84 30.5t-65 69.5v-492h-205zM287 315q0 -131 73 -131q43 0 58.5 34t15.5 122v487q0 88 -15.5 122t-58.5 34t-58 -34t-15 -122v-512z" />
<glyph unicode="&#xff;" horiz-adv-x="632" d="M0 1161h213l98 -844q0 -39 4 -104l4 12q4 61 5 92l96 844h213l-238 -1571h-260l64 299zM23 1380q0 59 39.5 94t99.5 35q63 0 96 -37.5t33 -99.5q0 -55 -41 -88t-98 -33q-49 0 -89 40t-40 89zM342 1380q0 59 40 94t99 35q63 0 96 -37.5t33 -99.5q0 -55 -41 -88t-98 -33 q-49 0 -89 40t-40 89z" />
<glyph unicode="&#x152;" horiz-adv-x="1040" d="M72 301v967q0 164 91 245.5t232 81.5q96 0 162 -26h453v-209h-291v-465h276v-209h-276v-477h291v-209h-467q-66 -27 -148 -27q-141 0 -232 82t-91 246zM281 328q0 -80 32.5 -118t81.5 -38q47 0 81 35t34 104v946q0 70 -34 105t-81 35q-49 0 -81.5 -38t-32.5 -118v-913z " />
<glyph unicode="&#x153;" horiz-adv-x="1021" d="M61 289v573q0 166 67 236.5t212 70.5q115 0 176 -41q63 41 176 41q145 0 212 -69.5t67 -237.5v-368h-353v-162q0 -88 15.5 -122t58.5 -34t58.5 34t15.5 122v51h205v-94q0 -168 -66.5 -237.5t-212.5 -69.5q-111 0 -176 38q-63 -39 -176 -38q-145 0 -212 70.5t-67 236.5z M266 332q0 -88 15.5 -122t58.5 -34t58.5 34t15.5 122v487q0 88 -15.5 122t-58.5 34t-58.5 -34t-15.5 -122v-487zM618 686h148v133q0 88 -15.5 122t-58.5 34q-41 0 -57.5 -30t-16.5 -101v-158z" />
<glyph unicode="&#x178;" horiz-adv-x="733" d="M0 1571h211l145 -682l166 684h211l-260 -1026v-547h-246v545zM72 1790q0 59 40 94t99 35q63 0 96 -38t33 -99q0 -55 -41 -88t-98 -33q-49 0 -89 40t-40 89zM391 1790q0 59 40 94t99 35q63 0 96 -38t33 -99q0 -55 -40.5 -88t-98.5 -33q-49 0 -89 40t-40 89z" />
<glyph unicode="&#x2c6;" horiz-adv-x="415" d="M-25 1237l113 289h225l121 -289h-149l-80 168l-74 -168h-156z" />
<glyph unicode="&#x2dc;" horiz-adv-x="415" d="M-25 1376q20 129 127 129q45 0 98.5 -15t92.5 -15q25 0 41 7t21 14t5 9l78 -43q0 -63 -41 -116.5t-92 -53.5q-43 0 -92 17.5t-90 17.5q-66 0 -74 -33z" />
<glyph unicode="&#x2000;" horiz-adv-x="1010" />
<glyph unicode="&#x2001;" horiz-adv-x="2021" />
<glyph unicode="&#x2002;" horiz-adv-x="1010" />
<glyph unicode="&#x2003;" horiz-adv-x="2021" />
<glyph unicode="&#x2004;" horiz-adv-x="673" />
<glyph unicode="&#x2005;" horiz-adv-x="505" />
<glyph unicode="&#x2006;" horiz-adv-x="336" />
<glyph unicode="&#x2007;" horiz-adv-x="336" />
<glyph unicode="&#x2008;" horiz-adv-x="252" />
<glyph unicode="&#x2009;" horiz-adv-x="404" />
<glyph unicode="&#x200a;" horiz-adv-x="112" />
<glyph unicode="&#x2010;" horiz-adv-x="509" d="M49 500v196h408v-196h-408z" />
<glyph unicode="&#x2011;" horiz-adv-x="509" d="M49 500v196h408v-196h-408z" />
<glyph unicode="&#x2012;" horiz-adv-x="509" d="M49 500v196h408v-196h-408z" />
<glyph unicode="&#x2013;" horiz-adv-x="659" d="M49 500v196h557v-196h-557z" />
<glyph unicode="&#x2014;" horiz-adv-x="935" d="M49 500v196h834v-196h-834z" />
<glyph unicode="&#x2018;" horiz-adv-x="346" d="M-37 1122l260 447h156l-180 -447h-236z" />
<glyph unicode="&#x2019;" horiz-adv-x="348" d="M-35 1122l180 447h236l-260 -447h-156z" />
<glyph unicode="&#x201a;" horiz-adv-x="339" d="M-94 -276l180 446h236l-261 -446h-155z" />
<glyph unicode="&#x201c;" horiz-adv-x="630" d="M-37 1122l260 447h156l-180 -447h-236zM248 1122l260 447h156l-181 -447h-235z" />
<glyph unicode="&#x201d;" horiz-adv-x="632" d="M-35 1122l180 447h236l-260 -447h-156zM250 1122l180 447h236l-260 -447h-156z" />
<glyph unicode="&#x201e;" horiz-adv-x="624" d="M-94 -276l180 446h236l-261 -446h-155zM190 -276l181 446h235l-260 -446h-156z" />
<glyph unicode="&#x2022;" horiz-adv-x="581" d="M45 705q0 102 74 175.5t178 73.5q90 0 169 -59t79 -190q0 -113 -74 -181.5t-170 -68.5q-106 0 -181 70.5t-75 179.5z" />
<glyph unicode="&#x2026;" horiz-adv-x="999" d="M47 104q0 59 40 94t99 35q63 0 96 -37.5t33 -99.5q0 -55 -41 -88t-98 -33q-49 0 -89 40t-40 89zM362 104q0 59 40 94t100 35q63 0 96 -37.5t33 -99.5q0 -55 -41 -88t-98 -33q-49 0 -89.5 40t-40.5 89zM680 104q0 59 40 94t99 35q63 0 96 -37.5t33 -99.5q0 -55 -41 -88 t-98 -33q-49 0 -89 40t-40 89z" />
<glyph unicode="&#x202f;" horiz-adv-x="404" />
<glyph unicode="&#x2039;" horiz-adv-x="428" d="M12 608l201 398h211l-199 -396l199 -424h-213z" />
<glyph unicode="&#x203a;" horiz-adv-x="428" d="M10 186l199 396l-199 424h213l199 -422l-201 -398h-211z" />
<glyph unicode="&#x205f;" horiz-adv-x="505" />
<glyph unicode="&#x20ac;" horiz-adv-x="780" d="M12 520v197h60v90h-60v197h60v264q0 164 91 245.5t232.5 81.5t232.5 -80.5t91 -246.5v-164h-209v137q0 80 -33 118t-82 38t-81.5 -38t-32.5 -118v-237h350v-197h-350v-90h350v-197h-350v-192q0 -80 32.5 -118t81.5 -38t82 38t33 118v114h209v-141q0 -166 -91 -247 t-232.5 -81t-232.5 82t-91 246v219h-60z" />
<glyph unicode="&#x2122;" horiz-adv-x="1308" d="M35 1421v148h436v-148h-143v-573h-150v573h-143zM520 848v721h246l119 -502l8 -121l8 121l160 502h207v-721h-150v514l12 96l-28 -92l-144 -518h-143l-131 518l-29 92l13 -96v-514h-148z" />
<glyph unicode="&#xfb01;" horiz-adv-x="794" d="M0 969v192h113v117q0 164 63.5 235.5t194.5 71.5q37 0 82 -10v-143h-62q-43 0 -58.5 -34t-15.5 -122v-115h134v-192h-134v-969h-204v969h-113zM487 1417q0 55 41 88t99 33q49 0 89 -40t40 -89q0 -59 -40 -94t-100 -35q-63 0 -96 38t-33 99zM518 0v1161h205v-1161h-205z " />
<glyph unicode="&#xfb02;" horiz-adv-x="808" d="M0 969v192h113v117q0 164 63.5 235.5t194.5 71.5q37 0 82 -10v-143h-62q-43 0 -58.5 -34t-15.5 -122v-115h134v-192h-134v-969h-204v969h-113zM522 0v1571h205v-1571h-205z" />
<glyph unicode="&#xfb03;" horiz-adv-x="1214" d="M0 969v192h113v117q0 164 63.5 235.5t194.5 71.5q37 0 82 -10v-143h-62q-43 0 -58.5 -34t-15.5 -122v-115h134v-192h-134v-969h-204v969h-113zM432 969v192h113v117q0 164 63.5 235.5t194.5 71.5q37 0 82 -10v-143h-62q-43 0 -58.5 -34t-15.5 -122v-115h134v-192h-134 v-969h-204v969h-113zM907 1417q0 55 41 88t98 33q49 0 89 -40t40 -89q0 -59 -40 -94t-99 -35q-63 0 -96 38t-33 99zM938 0v1161h205v-1161h-205z" />
<glyph unicode="&#xfb04;" horiz-adv-x="1232" d="M0 969v192h113v117q0 164 63.5 235.5t194.5 71.5q37 0 82 -10v-143h-62q-43 0 -58.5 -34t-15.5 -122v-115h134v-192h-134v-969h-204v969h-113zM432 969v192h113v117q0 164 63.5 235.5t194.5 71.5q37 0 82 -10v-143h-62q-43 0 -58.5 -34t-15.5 -122v-115h134v-192h-134 v-969h-204v969h-113zM946 0v1571h205v-1571h-205z" />
</font>
</defs>
</svg>
