<?xml version="1.0" standalone="no"?>
<!DOCTYPE svg PUBLIC "-//W3C//DTD SVG 1.1//EN" "http://www.w3.org/Graphics/SVG/1.1/DTD/svg11.dtd" >
<svg xmlns="http://www.w3.org/2000/svg">
<metadata>Generated by IcoMoon</metadata>
<defs>
<font id="icomoon" horiz-adv-x="512">
<font-face units-per-em="512" ascent="480" descent="-32" />
<missing-glyph horiz-adv-x="512" />
<glyph unicode="&#x20;" d="" horiz-adv-x="256" />
<glyph unicode="&#xe600;" d="M446.059 385.941l-60.117 60.118c-18.669 18.668-55.542 33.941-81.942 33.941h-224c-26.4 0-48-21.6-48-48v-416c0-26.4 21.6-48 48-48h352c26.4 0 48 21.6 48 48v288c0 26.4-15.273 63.273-33.941 81.941zM320 412.219c1.098-0.402 2.226-0.84 3.379-1.318 9.030-3.741 15.299-8.088 17.308-10.097l60.118-60.119c2.009-2.009 6.356-8.277 10.097-17.307 0.478-1.153 0.916-2.281 1.318-3.378h-92.22v92.219zM416 32h-320v384h192v-128h128v-256zM128 224h256v-32h-256zM128 160h256v-32h-256zM128 96h256v-32h-256z" />
<glyph unicode="&#xe601;" d="M320 192c52.935 0 100.935-21.533 135.701-56.299l-45.234-45.234c-23.177 23.178-55.178 37.533-90.467 37.533s-67.289-14.355-90.467-37.533l-45.234 45.234c34.766 34.766 82.766 56.299 135.701 56.299zM93.726 226.274c60.44 60.44 140.799 93.726 226.274 93.726s165.834-33.286 226.275-93.726l-45.255-45.254c-48.353 48.352-112.64 74.98-181.020 74.98-68.381 0-132.667-26.628-181.019-74.981l-45.255 45.255zM494.392 412.781c53.351-22.566 101.258-54.864 142.391-95.998v0l-45.254-45.254c-72.528 72.528-168.96 112.471-271.529 112.471-102.57 0-199-39.943-271.529-112.471l-45.255 45.255c41.134 41.133 89.041 73.431 142.392 95.997 55.252 23.369 113.926 35.219 174.392 35.219s119.139-11.85 174.392-35.219zM288 32c0 17.673 14.327 32 32 32s32-14.327 32-32c0-17.673-14.327-32-32-32s-32 14.327-32 32z" horiz-adv-x="640" />
<glyph unicode="&#xe602;" d="M512 176l-96 96v144h-64v-80l-96 96-256-256v-16h64v-160h160v96h64v-96h160v160h64z" />
<glyph unicode="&#xe603;" d="M0-32h256v512h-256v-512zM160 416h64v-64h-64v64zM160 288h64v-64h-64v64zM160 160h64v-64h-64v64zM32 416h64v-64h-64v64zM32 288h64v-64h-64v64zM32 160h64v-64h-64v64zM288 320h224v-32h-224zM288-32h64v128h96v-128h64v288h-224z" />
<glyph unicode="&#xe604;" d="M299.221 480c6.649 0 12.19-2.216 16.623-7.757 7.757-8.866 7.757-23.272-2.216-31.031l-246.026-218.32 247.134-216.104c8.866-7.757 9.974-22.164 2.216-31.031s-22.164-9.974-31.031-2.216l-285.922 249.351 284.814 251.567c4.433 3.325 9.974 5.541 14.407 5.541z" horiz-adv-x="322" />
<glyph unicode="&#xe605;" d="M256 480c-141.385 0-256-114.615-256-256s114.615-256 256-256 256 114.615 256 256-114.615 256-256 256zM208 64l-106 138 47 49 59-75 185 151 23-23-208-240z" />
<glyph unicode="&#xe606;" d="M634.53 148.148c7.293 13.858-0.73 28.445-15.316 53.242l-36.467 64.183c-9.481 16.775-17.505 30.632-28.444 40.844 11.669 11.669 18.963 26.986 18.963 44.49v64.911c0 35.009-29.903 63.453-67.1 63.453h-375.613c-36.467 0-66.371-28.445-66.371-63.453v-64.911c0-17.505 7.293-33.55 19.692-45.219-10.211-9.482-18.234-22.609-26.986-40.114l-36.467-63.453c-16.046-26.257-25.527-40.844-17.505-55.43 0.729-1.459 2.188-2.918 2.918-4.376-3.647-5.835-5.835-13.128-5.835-20.421v-115.966c0-21.88 17.505-39.385 38.656-39.385h566.701c21.151 0 38.655 17.505 38.655 39.385v116.695c0.73 10.211-2.918 18.963-9.481 25.527zM556.49 250.986c-156.080-11.669-220.991 14.587-272.046 37.197h223.18c5.106 0 10.94 0.73 16.045 2.188 12.399-3.647 18.234-13.857 32.821-39.385v0zM282.986 349.447c4.376-15.316 2.918-20.422 2.918-20.422s-2.188-1.458-10.211-1.458c-5.835 0-13.128 0.73-21.881 1.458l-5.106 0.73-56.16-2.918c-40.844 0-53.242 2.918-56.889 5.106 0 1.459 0 3.647 0.73 5.106 0 2.918 0.73 6.564 0.73 10.94v5.835c0 6.564-1.458 13.128-2.917 18.963-0.73 3.646-2.188 8.752-2.188 11.669 1.458 0 3.647 0.73 7.293 0.73 8.023 0 18.963-1.459 33.55-5.106l1.458-0.73h64.912c16.046 2.918 28.445 4.376 36.467 4.376 4.376 0 6.564-0.729 8.023-0.729 0-2.188-0.729-5.106-0.729-8.023-1.459-6.564-2.918-16.046 0-25.527zM514.918 345.8c4.376-15.316 2.188-20.421 2.918-20.421 0 0-2.188-1.459-10.211-1.459-5.835 0-13.128 0.729-21.88 1.459l-5.106 0.729-56.159-2.188c-40.844 0-53.242 2.917-56.889 5.106 0 1.459 0 2.917 0.729 5.106 0 2.917 0.729 6.564 0.729 10.94v5.835c0 6.564-1.459 13.128-2.918 18.963-0.729 3.647-2.188 8.752-2.188 11.669 1.459 0 3.647 0.73 7.293 0.73 8.023 0 18.963-1.459 33.55-5.106l1.459-0.73h64.183c16.046 2.918 28.445 4.376 37.197 4.376 4.376 0 6.564-0.729 8.023-0.729 0-2.188-0.73-5.106-0.73-8.023-1.458-6.564-2.918-16.775 0-26.256zM94.815 416.547c0 18.233 16.046 32.82 35.738 32.82h376.342c19.692 0 35.738-14.587 35.738-32.82v-19.692c-0.73 1.458-1.458 2.917-2.918 4.376-8.752 10.211-22.61 10.94-32.091 10.94-10.211 0-24.068-1.459-41.572-5.106h-56.889c-16.046 3.647-28.445 5.106-38.656 5.106-14.587 0-25.527-3.647-32.091-12.399-9.481-11.67-5.835-26.986-2.918-38.656 0.729-4.376 2.188-8.752 2.188-11.669v-5.835c0-2.188 0-5.106-0.729-8.023-0.729-4.376-0.729-9.482 0-14.587h-21.151c2.918 11.67 0 24.798-2.918 35.738-0.729 3.647 0 8.752 0.729 13.858 1.459 9.481 3.647 22.609-5.835 32.82-8.752 10.211-22.61 10.94-32.82 10.94s-24.069-1.459-40.844-5.106h-56.889c-16.046 3.647-28.445 5.106-38.656 5.106-14.587 0-25.527-3.647-32.091-12.399-9.481-11.67-5.835-26.986-2.918-38.656 0.73-4.376 2.188-8.752 2.188-11.669v-5.835c0-2.188 0-5.106-0.73-8.023 0-2.917-0.73-7.293-0.73-10.94-5.835 5.835-9.481 13.857-9.481 21.88v67.829zM47.407 186.803l36.467 64.911c13.858 24.798 19.692 35.008 32.091 37.926 4.376-0.73 9.481-1.458 14.587-1.458h70.746c13.857-3.647 36.467-10.94 66.37-26.257 42.302-22.609 101.379-43.76 219.533-43.76 25.527 0 54.701 1.459 86.063 3.647l19.692-34.279c4.376-8.023 9.481-17.505 12.399-22.61-10.211-1.459-33.55-1.459-59.807-1.459h-450.735c-26.986 0-50.325 0-61.265 1.459 2.917 4.376 8.023 13.128 13.858 21.88zM613.379 7.385c0-4.376-3.646-8.023-8.023-8.023h-566.701c-4.376 0-8.023 3.647-8.023 8.023v115.236c0 4.376 3.646 8.023 8.023 8.023h567.43c4.376 0 8.023-3.647 8.023-8.023-0.73 0-0.73-115.236-0.73-115.236z" horiz-adv-x="644" />
<glyph unicode="&#xe607;" d="M252.587 222.862l-74.335-3.793c0 0-5.31 65.991-9.102 82.678-2.275 10.619-26.548 60.681-21.997 91.781 4.551 27.306 37.167 86.471 56.889 86.471 22.756 0 72.818-67.508 72.818-119.088 0-18.204-15.929-71.3-15.929-71.3l-8.344-66.75zM232.865 118.187c-18.963-9.861-40.96-6.068-53.096-1.517-32.617 12.137-11.378 90.263-11.378 90.263h93.298c0 0-3.793-75.852-28.823-88.746zM25.031 77.985l74.335-3.793c0 0 5.309 65.991 9.102 82.678 2.275 10.62 26.548 60.682 21.997 91.781-4.551 27.306-37.167 86.471-56.889 86.471-22.755 0-72.818-67.508-72.818-119.088 0-18.204 15.929-71.3 15.929-71.3l8.343-66.75zM44.752-25.932c18.963-9.861 40.96-6.068 53.096-1.517 32.617 12.137 11.378 90.263 11.378 90.263h-93.298c0-0.759 3.793-76.611 28.823-88.746z" horiz-adv-x="279" />
<glyph unicode="&#xe608;" d="M533.333 480h-512c-12.8 0-21.334-6.4-21.334-19.2v-471.466c0-10.666 8.534-21.334 21.334-21.334h512c12.8 0 21.333 8.534 21.333 21.334v471.466c0 12.8-10.667 19.2-21.333 19.2zM490.666 83.2c0-19.2-25.6-29.866-46.933-29.866h-332.8c-21.334 0-46.934 10.666-46.934 29.866v181.334c21.334-6.4 19.2-14.934 27.733-19.2 38.4-25.6 78.933-49.066 115.2-76.8 19.2-14.933 44.8-29.866 70.4-29.866v0c25.6 0 49.067 14.933 68.267 29.866 36.267 27.733 81.067 51.2 117.334 76.8 8.534 6.4 6.4 10.666 27.733 19.2v-181.333zM441.6 268.8c-36.267-25.6-70.4-51.2-106.666-76.8-14.933-8.534-38.4-32-57.6-32v0c-19.2 0-42.666 23.466-57.6 34.134-34.133 25.6-70.4 51.2-106.666 74.666-17.067 10.666-38.4 38.4-38.4 59.733s10.666 44.8 36.267 44.8h334.933c19.2 0 36.267-19.2 36.267-38.4-2.134-25.6-21.334-51.2-40.534-66.133z" horiz-adv-x="555" />
<glyph unicode="&#xe609;" d="M554.667 452.267v-471.466c0-12.8-10.667-10.666-21.333-10.666h-341.334v170.667h66.133l10.666 85.334h-76.8v42.666c0 21.334 8.534 40.534 38.4 40.534h46.934v61.866c-21.334 0-27.733 2.134-55.466 2.134-55.466 0-93.867-34.134-93.867-98.134v-51.2h-64v-85.334h64v-170.667h-106.666c-10.666 0-21.334 0-21.334 10.666v473.6c0 10.666 8.534 27.733 21.334 27.733h512c10.667 0 21.333-17.067 21.333-27.733z" horiz-adv-x="555" />
<glyph unicode="&#xe60a;" d="M533.333 480h-512c-12.8 0-21.334-6.4-21.334-17.067v-473.6c0-12.8 8.534-21.333 21.334-21.333h512c12.8 0 21.333 10.666 21.333 21.334v473.6c0 10.666-10.667 17.067-21.333 17.067zM138.667 164.267c-2.133 4.267-2.133 8.534-4.267 14.933-2.133 21.334 0 51.2 6.4 59.733 4.267 6.4 8.534 8.534 12.8 8.534 2.133 0 6.4-2.133 66.133-25.6 0 0 0 0 17.066-6.4 6.4-2.134 10.666-8.534 10.666-17.067s-4.267-12.8-10.666-14.933c0 0 0 0-25.6-8.534-55.466-17.067-57.6-19.2-61.867-19.2-4.267 2.134-8.534 4.267-10.666 8.534zM277.334 55.466c-2.134-4.267-4.267-6.4-10.666-8.534-14.934-2.134-61.867 14.933-72.534 25.6-2.133 4.267-2.133 6.4-2.133 8.534s0 4.267 0 4.267 2.133 4.267 44.8 55.466c0 0 0 0 12.8 14.933 4.267 4.267 10.666 6.4 19.2 4.267 6.4-2.134 10.666-8.534 10.666-14.933 0 0 0 0 0-25.6-2.134-59.733-2.134-61.866-2.134-64zM268.8 243.2c-2.134 0-12.8-4.267-23.466 14.934-78.933 119.466-78.933 123.733-78.933 123.733 0 4.267 0 8.534 4.267 12.8 10.666 12.8 74.666 29.866 89.6 25.6 4.267-2.133 8.534-4.267 10.666-8.534 0-4.267 8.534-117.334 8.534-142.933 0-23.466-8.534-25.6-10.666-25.6zM371.2 76.8c-4.267-2.134-8.534-2.134-12.8 0-2.134 2.134-4.267 6.4-38.4 59.733l-10.666 17.067c-4.267 6.4-4.267 12.8 2.134 19.2 4.267 6.4 10.666 8.534 17.067 6.4 0 0 0 0 25.6-8.534 55.466-19.2 57.6-19.2 59.733-21.334 4.267-2.134 6.4-6.4 4.267-12.8-2.134-14.933-32-55.466-46.933-59.733zM426.666 245.333c0-4.267-6.4-8.534-10.666-12.8-2.134-2.133-10.666-2.133-74.666-17.066-10.666-2.134-14.933-4.267-19.2-4.267 0 0 0 0 0 0-6.4-2.134-12.8 2.134-17.067 6.4-4.267 6.4-4.267 12.8 0 19.2 0 0 0 0 17.067 21.334 34.134 46.934 36.267 49.066 38.4 51.2 4.267 2.134 10.666 2.134 17.067 0 14.933-6.4 27.733-46.933 49.067-64v0z" horiz-adv-x="555" />
<glyph unicode="&#xe60b;" d="M402.58 392.31h17.357l-15.432 37.125h-104.786v50.565h-36.004v-30.858h-111.867v-19.702h-44.359l-15.431-37.125h17.357v-398.761h-16.876v-25.554h326.912v25.554h-16.875v398.756zM198.139 26.911h-38.574v77.148h38.574v-77.148zM198.139 142.633h-38.574v77.148h38.574v-77.148zM198.139 258.361h-38.574v77.143h38.574v-77.143zM275.287 26.911h-38.574v77.148h38.574v-77.148zM275.287 142.633h-38.574v77.148h38.574v-77.148zM275.287 258.361h-38.574v77.143h38.574v-77.143zM352.435 26.911h-38.574v77.148h38.574v-77.148zM352.435 142.633h-38.574v77.148h38.574v-77.148zM352.435 258.361h-38.574v77.143h38.574v-77.143z" />
<glyph unicode="&#xe60c;" d="M22.165-32c-6.649 0-12.191 2.216-16.623 7.757-7.758 8.866-7.758 23.272 2.216 31.031l247.134 218.321-247.134 216.104c-8.866 7.757-9.974 22.164-2.216 31.031s22.165 9.974 31.030 2.216l284.814-249.351-284.814-251.567c-4.433-3.325-8.866-5.541-14.407-5.541z" horiz-adv-x="322" />
<glyph unicode="&#xe60d;" d="M27.176 352.815c-33.699-36.959-27.176-101.095-25.002-129.359v-2.174c5.435-54.353 38.047-96.748 91.312-119.576 9.784-4.348 18.48-5.435 25.002-7.61 10.871-2.174 14.132-3.261 17.393-6.522v-31.524c0-25.002 21.741-47.83 61.962-65.223 34.786-15.219 79.355-22.828 122.837-22.828 44.569 0 88.051 8.697 122.837 22.828 40.221 17.393 61.962 40.221 61.962 65.223v347.856c0 17.393-10.87 42.395-64.136 59.788-32.611 10.87-76.094 16.305-120.663 16.305-45.656 0-88.051-5.435-120.662-16.305-53.266-17.393-64.136-42.395-64.136-59.788v-31.524c-9.784 2.174-25.002 5.435-42.395 6.522-1.087 0-2.174 0-4.348 0-25.002 0-46.743-8.697-61.962-26.089zM90.225 354.99c1.087 0 2.174 0 3.261 0 20.654-1.087 39.134-6.523 45.656-7.61 2.174 0 4.348-1.087 5.435-1.087 10.87 0 15.219 9.784 16.305 18.48v39.134c0 28.263 71.745 52.178 160.883 52.178s160.883-22.828 160.883-52.178v-347.856c0-28.264-71.745-64.136-160.883-64.136s-160.883 35.873-160.883 64.136v31.524c0 6.522-3.261 11.957-4.348 14.132-14.131 17.393-32.612 13.045-53.266 21.741-41.308 17.393-71.745 50.004-76.094 98.921-3.261 31.524-16.305 132.62 63.049 132.62zM64.136 307.159c-14.132-30.438-21.741-115.227 34.785-152.187 10.871-7.61 33.699-13.044 43.482-13.044 1.087 0 1.087 0 2.174 0 16.305 1.087 16.305 19.567 16.305 19.567v141.317c-2.174 17.393-18.48 21.741-31.524 23.915-9.784 1.087-18.48 1.087-25.002 1.087-20.654 0-32.611-4.348-40.221-20.654zM113.053 175.627c-23.915 15.219-31.525 41.308-33.698 60.875-3.261 27.176 2.174 51.091 7.609 60.875v0 0c1.087 3.261 2.174 3.261 3.261 4.348s5.435 2.174 14.132 2.174v0c5.435 0 13.044 0 22.828-1.087 5.435 0 8.697-2.174 9.783-2.174v-132.62c-7.609 1.087-18.48 4.348-23.915 7.61zM190.233 400.645c0-11.957 14.131-21.741 41.308-29.35 23.915-6.522 56.526-9.784 90.225-9.784s66.31 3.261 90.225 9.784c27.176 7.609 41.308 17.393 41.308 29.35 0 7.61-5.435 14.132-16.305 19.567-3.261 1.087-6.522 0-8.697-2.174s0-6.522 2.174-8.697c7.61-3.261 9.784-7.609 9.784-8.697 0-2.174-2.174-5.435-10.87-9.784-18.48 13.045-60.875 21.741-108.705 21.741-48.917 0-90.225-8.697-108.705-21.741-7.609 4.348-10.87 7.61-10.87 9.784s2.174 5.435 9.784 8.697c3.261 1.087 4.348 5.435 2.174 8.697-1.087 3.261-5.435 4.348-8.696 2.174-8.697-5.435-14.131-11.957-14.131-19.567z" horiz-adv-x="507" />
<glyph unicode="&#xe60e;" d="M40.74 477.798l3.303 1.101c13.213 4.404 27.527-2.202 31.931-15.415l73.772-202.598-50.65-17.617-73.772 202.598c-4.404 13.213 2.202 27.527 15.415 31.931v0zM36.336 454.675l9.91 3.303 70.469-190.486-9.909-3.303-70.469 190.486zM155.251 252.077c30.83 0 58.357-17.617 71.57-42.942l-151.948-56.155c-1.101 5.505-2.202 11.011-2.202 16.516 0 46.245 37.436 82.581 82.581 82.581v0zM122.219 220.146l-12.112 8.809c-11.011-13.213-17.617-28.628-19.82-46.245l12.112-7.707c2.202 16.516 7.707 31.931 19.82 45.144zM77.076 139.767l155.251 58.357c31.931-48.447 68.267-93.591 112.31-129.927-12.112-8.808-24.224-17.617-36.336-25.325l-41.841 40.74 25.325-52.851c-17.617-9.909-35.235-18.719-52.851-26.426l-44.043 68.267 17.617-78.176c-18.719-6.606-38.537-12.112-58.357-16.516l-30.83 80.378v-84.783c-15.415-2.202-29.729-4.404-45.144-5.505 8.808 56.155 6.606 113.411-1.101 171.768v0zM78.177 43.974c0-15.811-12.817-28.628-28.628-28.628s-28.628 12.817-28.628 28.628c0 15.811 12.817 28.628 28.628 28.628s28.628-12.817 28.628-28.628zM296.189 192.62c0-12.77-10.353-23.123-23.123-23.123s-23.123 10.353-23.123 23.123c0 12.77 10.353 23.123 23.123 23.123s23.123-10.353 23.123-23.123zM30.83 92.421c0-8.514-6.901-15.415-15.415-15.415s-15.415 6.901-15.415 15.415c0 8.514 6.902 15.415 15.415 15.415s15.415-6.901 15.415-15.415z" horiz-adv-x="345" />
<glyph unicode="&#xe60f;" d="M159.204 376.836c28.020-6.368 71.323-14.010 123.543-14.010 117.174 0 203.781 22.925 203.781 43.303 0 21.651-90.428 47.125-203.781 47.125-95.522 0-164.298-19.105-185.95-49.672-2.547-3.821-25.472-39.483-39.483-62.408 31.841 14.010 85.334 39.483 101.891 35.661zM640.637 352.637c0 2.548 0 5.094-2.548 8.916-3.821 6.368-14.010 24.199-112.079 47.125-3.821 47.124-117.174 71.323-230.528 71.323-91.702 0-205.054-11.462-230.528-68.776-2.547-6.368-29.294-52.219-45.85-80.239l-19.105-30.567h1.274l31.841-7.642 45.85-10.189 57.314-270.010 1.274-3.821 2.548-2.548c1.274-1.274 42.030-38.209 155.383-36.935 118.448 1.274 141.373 20.378 166.846 42.030l1.274 1.274 3.821 2.548c0 0 1.274 3.821 1.274 3.821l47.125 296.756 45.851-10.189c2.548-12.737 10.189-50.946 26.746-159.204 0-3.821 1.274-14.010 8.915-21.651 7.642-6.368 17.831-8.916 30.567-7.642 8.915 1.274 36.936 5.094 12.736 235.622zM22.925 306.786l12.736 19.104c2.547 3.821 47.124 76.418 52.219 82.786 24.199 35.661 95.523 54.766 196.139 54.766 86.607 0 215.244-19.104 215.244-58.587s-132.457-54.766-216.518-54.766c-53.493 0-98.070 7.642-126.089 15.284-12.737 2.547-73.871-25.473-113.353-47.125l-20.378-11.462zM620.259 141.214c-3.821 0-6.368 0-7.642 1.274s-1.274 5.094-1.274 5.094v1.274c0 0 0 1.274 0 1.274-22.925 150.288-28.020 168.12-29.293 170.667l-2.548 6.368h-6.368l-66.229 15.284-12.736 2.548-2.548-12.736-48.398-305.671c-20.378-17.831-42.030-34.388-149.015-34.388-87.88-1.274-126.089 21.651-136.279 28.020l-57.314 275.104-1.273 7.642-7.642 1.274-20.378 3.821 78.965 39.482c7.642-1.274 15.284-3.821 24.199-5.095 34.388-7.642 70.050-11.462 109.532-11.462 17.831 0 35.661 1.274 50.945 2.548 82.786 3.821 159.204 21.651 183.403 50.946 78.965-17.831 95.523-31.841 98.070-35.662 8.915-86.607 12.736-189.771 3.821-207.602zM245.811 226.548c16.557 0 34.388 2.548 54.766 7.642 3.821 1.274 5.094 3.821 3.821 7.642s-3.821 5.095-7.642 3.821c-26.747-7.642-49.672-7.642-70.050-6.368l-3.821 61.134c0 3.821-3.821 6.368-6.368 5.095-3.821 0-6.368-2.548-5.095-6.368l3.821-58.587c-22.925 3.821-36.935 10.189-36.935 10.189-2.548 1.274-6.368 0-7.642-2.548s0-6.368 2.548-7.642c1.274 0 17.831-8.916 43.304-12.737l3.821-56.040c-25.472 3.821-42.030 11.462-42.030 11.462-2.548 1.274-6.368 0-7.642-2.548s0-6.368 2.548-7.642c1.274-1.274 19.105-8.916 48.398-12.736l5.095-72.597c-29.293 2.548-48.398 10.189-48.398 11.462-2.548 1.274-6.368 0-7.642-2.548s0-6.368 2.548-7.642c1.274-1.274 21.651-10.189 54.766-14.010l3.821-49.671c0-3.821 2.548-5.094 6.368-5.094 0 0 0 0 0 0 3.821 0 6.368 2.548 5.095 6.368l-3.821 47.125c2.548 0 5.095 0 6.368 0 16.557 0 34.388 2.548 54.766 7.642 3.821 1.274 5.094 3.821 3.821 7.642s-3.821 5.094-7.642 3.821c-21.651-6.368-42.030-7.642-58.587-6.368l-5.095 72.597c3.821 0 8.916 0 12.737 0 16.557 0 34.388 2.548 54.766 7.642 3.821 1.274 5.094 3.821 3.821 7.642s-3.821 5.094-7.642 3.821c-24.199-6.368-45.851-7.642-64.955-6.368l-3.821 56.040c6.368-1.274 11.463-1.274 17.831-1.274z" horiz-adv-x="650" />
<glyph unicode="&#xe610;" d="M299.423 368.526c11.666-18.147 15.555-36.293 9.074-40.183l-263.129-169.803c-6.481-3.889-22.035 6.481-33.702 24.628v0c-11.666 18.147-15.555 36.293-9.073 40.183l263.129 169.803c7.777 5.185 22.036-6.481 33.702-24.628v0zM384.972 473.519c-41.478 16.851-86.846-2.593-104.993-42.774l72.588-115.362c32.405 0 63.514 18.147 76.476 50.552 18.147 42.775-2.592 90.734-44.071 107.585zM215.169 56.142c0-7.777-9.073-14.258-20.739-14.258v0c-11.666 0-20.739 6.481-20.739 14.258v238.502c0 7.777 9.073 14.258 20.739 14.258v0c11.666 0 20.739-6.481 20.739-14.258v-238.502zM356.455 27.625c0-32.93-70.22-59.625-156.84-59.625s-156.84 26.695-156.84 59.625c0 32.93 70.22 59.625 156.84 59.625s156.84-26.695 156.84-59.625z" horiz-adv-x="436" />
<glyph unicode="&#xe611;" d="M651.487 269.948c-85.333 73.846-175.589 116.513-290.462 116.513s-206.769-42.666-290.462-116.513c-3.282-1.641-6.564-3.282-8.205-3.282-9.846 0-62.359 52.513-62.359 62.359 0 3.282 1.641 4.923 3.282 8.205 93.538 91.897 228.102 142.769 357.743 142.769s264.205-50.872 357.744-142.769c1.641-3.282 3.282-4.923 3.282-8.205 0-8.205-52.513-62.359-62.359-62.359-3.282 0-6.564 1.641-8.205 3.282zM551.385 169.846c-60.718 47.589-111.589 75.487-190.359 75.487-111.589 0-195.282-77.128-200.205-77.128-8.205 0-60.718 52.513-60.718 62.359 0 3.282 1.641 6.564 3.282 8.205 65.641 65.641 165.743 101.743 257.641 101.743s192-36.103 257.641-101.743c1.641-1.641 3.282-4.923 3.282-8.205 0-8.205-52.513-62.359-60.718-62.359-3.282-1.641-6.564 0-9.846 1.641zM361.026 104.205c-54.154 0-93.538-36.103-98.462-36.103-8.205 0-62.359 52.513-62.359 62.359 0 3.282 1.641 6.564 3.282 8.205 39.385 39.385 103.385 60.718 157.538 60.718s118.154-21.334 157.539-60.718c1.641-1.641 3.282-4.923 3.282-8.205 0-8.205-52.513-62.359-62.359-62.359-4.923-1.641-44.308 36.103-98.462 36.103zM300.308 28.718c0 18.051 47.589 27.897 60.718 27.897s60.718-9.846 60.718-27.897c0-9.846-50.872-60.718-60.718-60.718s-60.718 50.872-60.718 60.718z" horiz-adv-x="722" />
<glyph unicode="&#xe612;" d="M479.968 28.848c-67.392 0-122.032 54.624-122.032 122.032 0 49.44 29.472 91.92 71.744 111.088l-16.224 36.528 2.64-6.384-111.104-149.136v-29.904h16.272v-16.288h-48.832v16.288h16.288v16.288l-46.032 4.32c-8.384-59.216-59.136-104.816-120.672-104.816-67.392-0.016-122.016 54.608-122.016 122.016 0 67.392 54.624 122.016 122.032 122.016 17.616 0 34.32-3.808 49.44-10.512l30.496 76.608-13.84 38.656c-6.080 0-11.744 0-16.272 0-15.264 0-11.184 16.272-11.184 16.272s1.008 14.24 12.208 14.24 11.184-10.176 29.488-10.176c17.52 0 42.704-5.072 42.704-5.072s11.184-15.248-10.16-15.248c-9.664 0-20.304 0-30.512 0l11.568-41.552h176.832l-13.888 31.568h-10.8v16.256h65.072v-16.272h-36.768l47.632-100.16c11.36 3.504 23.44 5.392 35.936 5.392 67.392 0 122.032-54.624 122.032-122.016-0.016-67.408-54.656-122.032-122.048-122.032zM122.032 256.64c-58.416 0-105.76-47.344-105.76-105.76s47.344-105.744 105.76-105.744c53.104 0 96.96 39.184 104.48 90.224l-84.704 8.72c-1.344-7.632-7.696-13.536-15.712-13.536-8.992 0-16.272 7.28-16.272 16.288 0 8.976 7.28 16.288 16.272 16.288 1.92 0 3.712-0.496 5.424-1.12l33.936 85.28c-13.264 5.952-27.936 9.36-43.424 9.36zM146.432 158l81.264-8.592c0.016 0.496 0.080 0.976 0.080 1.472 0 37.6-19.664 70.528-49.232 89.296l-32.112-82.176zM209.232 318.688l-24.688-63.168c35.6-21.312 59.504-60.144 59.504-104.656 0-1.056-0.128-2.128-0.16-3.184l27.616-2.912-62.272 173.92zM399.648 329.664v-9.824h-177.92l64.8-173.424 122.992 161.040-9.872 22.208zM479.968 256.64c-10.192 0-20.016-1.52-29.344-4.224l37.984-86.784c7.712-1.248 13.728-7.68 13.728-15.744 0-8.992-7.28-16.288-16.272-16.288s-16.288 7.28-16.288 16.288c0 4.368 1.776 8.336 4.624 11.28l-38.144 85.952c-36.592-16.64-62.064-53.408-62.064-96.224 0-58.4 47.344-105.744 105.744-105.744s105.744 47.344 105.744 105.744-47.312 105.744-105.712 105.744z" horiz-adv-x="600" />
<glyph unicode="&#xe613;" d="M438.613 41.387h-35.84v-35.84c0-20.48-17.067-35.84-35.84-35.84s-35.84 17.067-35.84 35.84v35.84h-221.867v-35.84c0-20.48-17.067-35.84-35.84-35.84s-35.84 17.067-35.84 35.84v35.84h-37.547v172.374c0 23.893 1.706 40.96 6.827 63.147l29.014 129.707c6.827 46.080 85.334 73.387 184.32 73.387s177.494-27.307 182.613-73.387l30.72-129.707c5.12-22.186 6.827-40.96 6.827-63.147v-172.374zM73.386 169.387c-20.48 0-35.84-17.067-35.84-35.84s17.067-35.84 35.84-35.84 35.84 17.067 35.84 35.84-15.36 35.84-35.84 35.84zM368.64 355.413c-1.707 8.534-8.534 15.36-18.774 15.36h-261.12c-8.534 0-17.067-6.827-18.773-15.36l-20.48-109.226c-1.706-11.947 6.827-22.186 18.773-22.186h303.786c11.947 0 20.48 10.24 18.774 22.186l-22.187 109.226zM310.613 433.92h-182.613c-6.826 0-13.653-5.12-13.653-13.654s6.826-13.654 13.653-13.654h182.613c8.534 0 13.654 6.827 13.654 13.654s-5.12 13.654-13.654 13.654zM365.226 169.387c-20.48 0-35.84-17.067-35.84-35.84s17.067-35.84 35.84-35.84 35.84 17.067 35.84 35.84-15.36 35.84-35.84 35.84z" horiz-adv-x="439" />
<glyph unicode="&#xe614;" d="M330.322 250.426l-120.567-257.651c-6.607-14.865-23.123-23.123-37.987-23.123s-33.032 6.606-39.638 21.471l-120.567 259.303c-9.909 18.167-11.562 37.987-11.562 59.458 0 94.142 75.974 170.116 170.116 170.116s170.116-75.974 170.116-170.116c1.651-21.471-1.651-41.291-9.909-59.458zM170.116 394.116c-46.245 0-85.884-37.987-85.884-85.884s37.987-85.884 85.884-85.884 85.884 37.987 85.884 85.884-37.987 85.884-85.884 85.884z" horiz-adv-x="342" />
<glyph unicode="&#xe615;" d="M274.774 125.014v-20.48c1.707-81.92-54.613-138.24-136.534-138.24-95.573 1.707-138.24 78.507-138.24 167.254 10.24-6.827 47.786-35.84 59.733-35.84 6.827 0 13.654 3.413 15.36 10.24 23.894 63.147 61.44 75.094 126.293 78.507 15.36-30.72 42.666-52.906 73.387-61.44zM512 433.92c0-15.36-6.827-29.014-13.654-42.666-22.187-42.667-97.28-182.614-133.12-215.040-17.067-17.067-37.546-25.6-61.44-25.6-47.786 0-87.040 40.96-87.040 88.746 0 22.186 10.24 44.374 25.6 59.733l182.613 165.547c8.534 8.534 22.187 15.36 35.84 15.36 27.307 0 51.2-18.774 51.2-46.080z" />
<glyph unicode="&#xe616;" d="M367.497 77.313c-9.476 1.494-9.692 27.327-9.692 27.327s27.844 27.328 33.912 64.076c16.326 0 26.407 39.069 10.082 52.814 0.681 14.47 20.984 113.588-81.799 113.588s-82.479-99.118-81.799-113.588c-16.327-13.745-6.244-52.814 10.081-52.814 6.067-36.748 33.913-64.076 33.913-64.076s-0.216-25.833-9.692-27.327c-30.524-4.816-144.503-54.658-144.503-109.313h384c0 54.655-113.979 104.497-144.503 109.313zM172.027 68.595c22.047 13.575 48.813 26.154 70.769 33.712-7.876 11.216-16.647 26.468-22.165 44.531-7.703 6.283-13.972 15.266-17.999 26.301-4.033 11.052-5.561 23.426-4.304 34.842 0.902 8.196 3.239 15.833 6.825 22.544-2.175 23.293-3.707 69.017 26.224 102.366 11.607 12.933 26.278 22.23 43.85 27.843-3.137 32.38-19.58 70.385-83.227 70.385-102.782 0-82.479-99.118-81.799-113.588-16.327-13.745-6.244-52.814 10.081-52.814 6.067-36.748 33.913-64.076 33.913-64.076s-0.216-25.833-9.692-27.327c-30.524-4.817-144.503-54.659-144.503-109.314h164.798c2.355 1.537 4.753 3.070 7.229 4.595z" />
<glyph unicode="&#xe617;" d="M256 480l-256-160h512l-256 160zM400 288l16-32v-192h64v192l16 32h-96zM272 288l16-32v-192h64v192l16 32h-96zM144 288l16-32v-192h64v192l16 32h-96zM16 288l16-32v-192h64v192l16 32h-96zM16 32l-16-64h512l-16 64h-480zM288 384c0-17.673-14.327-32-32-32s-32 14.327-32 32 14.327 32 32 32c17.673 0 32-14.327 32-32z" />
<glyph unicode="&#xe618;" d="M291.158-31.602c-140.63 0-256 115.37-256 256s115.37 256 256 256 256-115.37 256-256-115.37-256-256-256zM291.158 455.139c-128 0-230.742-102.741-230.742-230.742s102.742-230.798 230.742-230.798 230.741 102.741 230.741 230.742-102.741 230.798-230.741 230.798zM425.757 283.107l-31.289 32.484-141.54-136.306-67.527 70.144-32.483-31.232 98.816-102.627z" horiz-adv-x="583" />
<glyph unicode="&#xe619;" d="M256 480c-141.385 0-256-114.615-256-256s114.615-256 256-256 256 114.615 256 256-114.615 256-256 256zM256 16c-114.875 0-208 93.125-208 208s93.125 208 208 208 208-93.125 208-208-93.125-208-208-208zM406.628 246.627l-128.001 128c-12.496 12.497-32.757 12.497-45.254 0s-12.497-32.758 0-45.255l73.372-73.372h-178.745c-17.673 0-32-14.327-32-32s14.327-32 32-32h178.745l-73.373-73.372c-12.497-12.497-12.497-32.759 0-45.256 6.249-6.248 14.439-9.372 22.628-9.372s16.379 3.124 22.627 9.372l128.001 128c12.496 12.497 12.496 32.759 0 45.255z" />
<glyph unicode="&#xf003;" d="M0 45.714v310.857q0 18.857 13.428 32.285t32.285 13.429h420.572q18.857 0 32.286-13.429t13.428-32.285v-310.857q0-18.857-13.428-32.286t-32.286-13.428h-420.572q-18.857 0-32.285 13.428t-13.428 32.286zM36.572 45.714q0-3.714 2.715-6.428t6.428-2.714h420.572q3.714 0 6.428 2.714t2.714 6.428v219.428q-9.143-10.286-19.714-18.857-76.572-58.857-121.714-96.572-14.572-12.286-23.714-19.143t-24.714-13.857-29.286-7h-0.571q-13.714 0-29.285 7t-24.714 13.857-23.714 19.143q-45.143 37.714-121.715 96.572-10.572 8.572-19.715 18.857v-219.428zM36.572 356.572q0-48 42-81.143 55.143-43.428 114.572-90.572 1.714-1.428 10-8.428t13.143-10.714 12.714-9 14.428-7.857 12.286-2.572h0.572q5.714 0 12.286 2.572t14.428 7.857 12.714 9 13.143 10.714 10 8.428q59.428 47.143 114.572 90.572 15.428 12.286 28.714 33t13.286 37.572v7t-0.143 3.714-0.857 3.572-1.572 2.571-2.572 2.143-4 0.714h-420.572q-3.715 0-6.428-2.714t-2.715-6.428z" />
<glyph unicode="&#xf00c;" d="M34.572 210.286q0 11.428 8 19.428l38.857 38.857q8 8 19.428 8t19.428-8l84-84.285 187.429 187.714q8 8 19.428 8t19.428-8l38.857-38.857q8-8 8-19.428t-8-19.428l-245.714-245.714q-8-8-19.428-8t-19.428 8l-142.286 142.286q-8 8-8 19.428z" />
<glyph unicode="&#xf017;" d="M0 219.429q0 59.714 29.428 110.143t79.857 79.857 110.143 29.428 110.143-29.428 79.857-79.857 29.428-110.143-29.428-110.143-79.857-79.857-110.143-29.428-110.143 29.428-79.857 79.857-29.428 110.143zM64 219.429q0-42.286 20.857-78t56.571-56.572 78-20.857 78 20.857 56.572 56.572 20.857 78-20.857 78-56.572 56.572-78 20.857-78-20.857-56.572-56.572-20.857-78zM146.286 192v18.286q0 4 2.571 6.572t6.571 2.571h64v100.572q0 4 2.571 6.572t6.571 2.571h18.286q4 0 6.572-2.571t2.571-6.572v-128q0-4-2.571-6.572t-6.572-2.572h-91.428q-4 0-6.572 2.572t-2.571 6.572z" />
<glyph unicode="&#xf023;" d="M0 64v164.571q0 11.429 8 19.429t19.428 8h9.143v54.857q0 52.572 37.715 90.286t90.286 37.714 90.286-37.714 37.714-90.286v-54.857h9.143q11.428 0 19.428-8t8-19.428v-164.572q0-11.428-8-19.428t-19.428-8h-274.286q-11.428 0-19.428 8t-8 19.428zM91.428 256h146.286v54.857q0 30.286-21.428 51.714t-51.714 21.428-51.715-21.428-21.428-51.714v-54.857z" horiz-adv-x="329" />
<glyph unicode="&#xf02d;" d="M2.857 89.143q0 1.143 0.857 7.714t1.143 10.572q0.285 2.286-0.857 6.143t-0.857 5.572q0.571 3.143 2.285 6t4.715 6.714 4.715 6.714q6.572 10.857 12.857 26.143t8.572 26.143q0.857 2.857 0.143 8.572t-0.143 8q0.857 3.143 4.857 8t4.857 6.572q6 10.286 12 26.286t7.143 25.714q0.285 2.571-0.715 9.143t0.143 8q1.143 3.714 6.285 8.714t6.285 6.429q5.428 7.428 12.143 24.143t7.857 27.572q0.285 2.286-0.857 7.286t-0.572 7.571q0.572 2.286 2.572 5.143t5.143 6.572 4.857 6q2.285 3.428 4.715 8.714t4.285 10 4.572 10.286 5.572 9.143 7.572 6.714 10.286 3.286 13.572-1.571l-0.286-0.857q10.857 2.572 14.572 2.572h217.428q21.143 0 32.572-16t5.143-37.143l-78.286-258.857q-10.286-34-20.428-43.857t-36.714-9.857h-248.286q-7.715 0-10.857-4.286-3.143-4.572-0.285-12.286 6.857-20 41.143-20h263.714q8.286 0 16 4.428t10 11.857l85.714 282q2 6.286 1.428 16.285 10.857-4.285 16.857-12.285 11.428-16.286 5.143-36.857l-78.572-258.857q-5.428-18.286-21.857-30.714t-35-12.428h-263.714q-22 0-42.428 15.286t-28.428 37.572q-6.857 19.143-0.571 36.286zM140.571 265.143q-1.143-3.714 0.571-6.428t5.714-2.714h173.714q3.714 0 7.286 2.714t4.714 6.428l6 18.286q1.143 3.714-0.572 6.428t-5.714 2.714h-173.714q-3.714 0-7.286-2.714t-4.714-6.428zM164.286 338.286q-1.143-3.714 0.571-6.428t5.714-2.714h173.714q3.714 0 7.286 2.714t4.714 6.428l6 18.285q1.143 3.715-0.572 6.429t-5.714 2.714h-173.714q-3.714 0-7.286-2.714t-4.714-6.429z" horiz-adv-x="476" />
<glyph unicode="&#xf030;" d="M0 73.143v256q0 30.286 21.428 51.714t51.715 21.428h64l14.571 38.857q5.428 14 19.857 24.143t29.571 10.143h146.286q15.143 0 29.572-10.143t19.857-24.143l14.572-38.857h64q30.286 0 51.715-21.428t21.428-51.714v-256q0-30.286-21.428-51.714t-51.714-21.428h-402.286q-30.285 0-51.715 21.428t-21.428 51.714zM146.286 201.143q0-52.857 37.572-90.428t90.428-37.572 90.428 37.572 37.572 90.428-37.572 90.428-90.428 37.572-90.428-37.572-37.572-90.428zM192 201.143q0 34 24.143 58.143t58.143 24.143 58.143-24.143 24.143-58.143-24.143-58.143-58.143-24.143-58.143 24.143-24.143 58.143z" horiz-adv-x="549" />
<glyph unicode="&#xf041;" d="M0 292.572q0 60.572 42.857 103.429t103.429 42.857 103.428-42.857 42.857-103.429q0-31.143-9.428-51.143l-104-221.143q-4.572-9.428-13.572-14.857t-19.286-5.428-19.285 5.428-13.285 14.857l-104.285 221.143q-9.428 20-9.428 51.143zM73.143 292.572q0-30.285 21.428-51.714t51.715-21.428 51.714 21.428 21.428 51.714-21.428 51.714-51.714 21.428-51.715-21.428-21.428-51.714z" horiz-adv-x="293" />
<glyph unicode="&#xf06c;" d="M0 71.143q0 10 8.857 21t19.428 18.714 19.428 16 8.857 13.714q0 1.143-4 10.857t-4.572 12.572q-2.572 14.572-2.572 29.714 0 32.857 12.428 62.857t34 52.715 48.715 39.714 58.285 27.286q15.714 5.143 41.428 7.286t51.286 2.571 51 1.714 46.714 6.857 32.428 16.143l8.428 8.429t8.428 8 7.714 5.714 10.428 4.572 12.428 1.285q11.143 0 20.143-13.143t13.572-32 6.857-35.428 2.286-27.428q0-27.143-5.714-55.143-13.143-64-52.714-109.428t-102.143-76.572q-61.143-30.857-125.143-30.857-42.285 0-81.715 13.428-4.286 1.428-25.143 12t-27.428 10.572q-4.572 0-11.285-9.143t-12.857-20-15-20-17.143-9.143q-8.572 0-14.572 3.143t-8.857 6.857-7.715 12q-0.571 1.143-1.715 3.143t-1.571 2.857-0.857 2.714-0.428 3.857zM109.715 164.572q0-7.428 5.428-12.857t12.857-5.428q6.857 0 12.857 5.428 7.714 6.857 21.143 20.286t19.143 18.857q39.143 35.428 76.715 50.286t89.572 14.857q7.428 0 12.857 5.429t5.428 12.857-5.428 12.857-12.857 5.428q-49.143 0-90.857-14.143t-74.143-38.285-67.285-62.714q-5.428-6-5.428-12.857z" />
<glyph unicode="&#xf073;" d="M0 0v365.714q0 14.857 10.857 25.714t25.715 10.857h36.572v27.429q0 18.857 13.428 32.286t32.285 13.428h18.285q18.857 0 32.286-13.428t13.428-32.286v-27.429h109.714v27.429q0 18.857 13.428 32.286t32.286 13.428h18.286q18.857 0 32.286-13.428t13.428-32.286v-27.429h36.572q14.857 0 25.714-10.857t10.857-25.714v-365.714q0-14.857-10.857-25.714t-25.714-10.857h-402.286q-14.857 0-25.715 10.857t-10.857 25.714zM36.572 0h82.285v82.286h-82.285v-82.286zM36.572 100.572h82.285v91.428h-82.285v-91.428zM36.572 210.286h82.285v82.286h-82.285v-82.286zM109.715 347.429q0-3.714 2.715-6.428t6.428-2.714h18.285q3.714 0 6.429 2.714t2.714 6.428v82.286q0 3.714-2.714 6.428t-6.428 2.714h-18.285q-3.715 0-6.428-2.714t-2.715-6.428v-82.286zM137.143 0h91.429v82.286h-91.428v-82.286zM137.143 100.572h91.429v91.428h-91.428v-91.428zM137.143 210.286h91.429v82.286h-91.428v-82.286zM246.857 0h91.429v82.286h-91.428v-82.286zM246.857 100.572h91.429v91.428h-91.428v-91.428zM246.857 210.286h91.429v82.286h-91.428v-82.286zM329.143 347.429q0-3.714 2.714-6.428t6.428-2.714h18.286q3.714 0 6.428 2.714t2.714 6.428v82.286q0 3.714-2.714 6.428t-6.428 2.714h-18.286q-3.714 0-6.428-2.714t-2.714-6.428v-82.286zM356.572 0h82.286v82.286h-82.286v-82.286zM356.572 100.572h82.286v91.428h-82.286v-91.428zM356.572 210.286h82.286v82.286h-82.286v-82.286z" horiz-adv-x="476" />
<glyph unicode="&#xf095;" d="M0 342q0 26.286 14.572 53.143 16 28.857 30.285 34.857 7.143 3.143 19.572 6t20.143 2.857q4 0 6-0.857 5.143-1.714 15.143-21.714 3.143-5.428 8.572-15.428t10-18.143 8.857-15.285q0.857-1.143 5-7.143t6.143-10.143 2-8.143q0-5.714-8.143-14.286t-17.715-15.714-17.715-15.143-8.143-13.143q0-2.572 1.428-6.428t2.428-5.857 4-6.857 3.285-5.428q21.715-39.143 49.715-67.143t67.143-49.714q0.571-0.286 5.429-3.286t6.857-4 5.857-2.428 6.428-1.428q5.143 0 13.143 8.143t15.143 17.714 15.714 17.714 14.286 8.143q4 0 8.143-2t10.143-6.143 7.143-5q7.143-4.286 15.286-8.857t18.143-10 15.428-8.572q20-10 21.714-15.143 0.857-2 0.857-6 0-7.714-2.857-20.143t-6-19.572q-6-14.286-34.857-30.286-26.857-14.572-53.143-14.572-7.714 0-15 1t-16.428 3.572-13.572 4.143-15.857 5.857-14 5.143q-28 10-50 23.714-36.571 22.572-75.572 61.572t-61.572 75.572q-13.715 22-23.715 50-0.857 2.571-5.143 14t-5.857 15.857-4.143 13.572-3.571 16.428-1 15z" horiz-adv-x="403" />
<glyph unicode="&#xf0f4;" d="M0 73.143h512q0-30.286-21.428-51.714t-51.714-21.428h-365.714q-30.285 0-51.715 21.428t-21.428 51.714zM73.143 173.714v210.286q0 7.428 5.428 12.857t12.857 5.428h329.143q45.428 0 77.572-32.143t32.143-77.572-32.143-77.571-77.572-32.143h-18.286v-9.143q0-26.286-18.857-45.143t-45.143-18.857h-201.143q-26.285 0-45.143 18.857t-18.857 45.143zM402.286 237.714h18.286q22.857 0 38.857 16t16 38.857-16 38.857-38.857 16h-18.286v-109.714z" horiz-adv-x="549" />
<glyph unicode="&#xf118;" d="M0 219.429q0 59.714 29.428 110.143t79.857 79.857 110.143 29.428 110.143-29.428 79.857-79.857 29.428-110.143-29.428-110.143-79.857-79.857-110.143-29.428-110.143 29.428-79.857 79.857-29.428 110.143zM36.572 219.429q0-37.143 14.572-71t39-58.286 58.285-39 71-14.572 71 14.572 58.286 39 39 58.286 14.572 71-14.572 71-39 58.285-58.286 39-71 14.572-71-14.572-58.285-39-39-58.285-14.572-71zM109.715 292.572q0 15.143 10.715 25.857t25.857 10.714 25.857-10.714 10.714-25.857-10.714-25.857-25.857-10.714-25.857 10.714-10.715 25.857zM114.857 168.286q-2.285 7.143 1.143 13.857t10.857 9q7.143 2.286 13.857-1.143t9-10.857q7.143-22.857 26.428-37t43.286-14.143 43.286 14.143 26.428 37q2.286 7.428 9.143 10.857t14 1.143 10.572-9 1.143-13.857q-10.572-34.572-39.428-55.714t-65.143-21.143-65.143 21.143-39.428 55.714zM256 292.572q0 15.143 10.714 25.857t25.857 10.714 25.857-10.714 10.714-25.857-10.714-25.857-25.857-10.714-25.857 10.714-10.714 25.857z" />
<glyph unicode="&#xf1b2;" d="M0 109.714v219.428q0 11.429 6.572 20.857t17.428 13.428l201.143 73.143q6.286 2.285 12.571 2.285t12.572-2.285l201.143-73.143q10.857-4 17.428-13.428t6.572-20.857v-219.428q0-10-5.143-18.572t-14-13.428l-201.143-109.714q-8-4.572-17.429-4.572t-17.428 4.572l-201.143 109.714q-8.857 4.857-14 13.428t-5.143 18.572zM38.285 329.714l199.428-72.572 199.429 72.572-199.429 72.571zM256 10l182.857 99.714v181.714l-182.857-66.572v-214.857z" />
</font>
</defs>
</svg>
