<?xml version="1.0" encoding="utf-8"?>
<!-- Generator: Adobe Illustrator 17.0.0, SVG Export Plug-In . SVG Version: 6.00 Build 0)  -->
<!DOCTYPE svg PUBLIC "-//W3C//DTD SVG 1.1//EN" "http://www.w3.org/Graphics/SVG/1.1/DTD/svg11.dtd">
<svg version="1.1" xmlns="http://www.w3.org/2000/svg" xmlns:xlink="http://www.w3.org/1999/xlink" x="0px" y="0px" width="24px"
	 height="50px" viewBox="0 0 24 50" style="enable-background:new 0 0 24 50;" xml:space="preserve">
<style type="text/css">
	.st0{display:none;}
	.st1{display:inline;}
	.st2{fill:#A9AAAA;}
	.st3{display:inline;fill:#8430A6;}
	.st4{font-family:'FontAwesome';}
	.st5{font-size:18.3341;}
	.st6{fill:#8430A6;}
</style>
<g id="source_1_" class="st0">
	<g class="st1">
		<path class="st2" d="M22,1c0.551,0,1,0.449,1,1v20c0,0.551-0.449,1-1,1H2c-0.551,0-1-0.449-1-1V2c0-0.551,0.449-1,1-1H22 M22,0H2
			C0.9,0,0,0.9,0,2v20c0,1.1,0.9,2,2,2h20c1.1,0,2-0.9,2-2V2C24,0.9,23.1,0,22,0L22,0z"/>
	</g>
	<g class="st1">
		<path class="st2" d="M22,27c0.551,0,1,0.449,1,1v20c0,0.551-0.449,1-1,1H2c-0.551,0-1-0.449-1-1V28c0-0.551,0.449-1,1-1H22 M22,26
			H2c-1.1,0-2,0.9-2,2v20c0,1.1,0.9,2,2,2h20c1.1,0,2-0.9,2-2V28C24,26.9,23.1,26,22,26L22,26z"/>
	</g>
	<text transform="matrix(1 0 0 1 3.1613 45.0894)" class="st3 st4 st5"></text>
</g>
<g id="Layer_3_copy">
	<path class="st2" d="M22,1c0.551,0,1,0.449,1,1v20c0,0.551-0.449,1-1,1H2c-0.551,0-1-0.449-1-1V2c0-0.551,0.449-1,1-1H22 M22,0H2
		C0.9,0,0,0.9,0,2v20c0,1.1,0.9,2,2,2h20c1.1,0,2-0.9,2-2V2C24,0.9,23.1,0,22,0L22,0z"/>
	<path class="st2" d="M22,27c0.551,0,1,0.449,1,1v20c0,0.551-0.449,1-1,1H2c-0.551,0-1-0.449-1-1V28c0-0.551,0.449-1,1-1H22 M22,26
		H2c-1.1,0-2,0.9-2,2v20c0,1.1,0.9,2,2,2h20c1.1,0,2-0.9,2-2V28C24,26.9,23.1,26,22,26L22,26z"/>
	<g>
		<path class="st6" d="M19.983,35.854l-7.413,7.413l-1.392,1.393c-0.185,0.184-0.44,0.286-0.696,0.286
			c-0.256,0-0.512-0.103-0.696-0.286l-1.393-1.393L4.687,39.56C4.502,39.376,4.4,39.12,4.4,38.864c0-0.257,0.103-0.513,0.287-0.696
			l1.393-1.393c0.185-0.185,0.44-0.287,0.696-0.287s0.512,0.103,0.696,0.287l3.01,3.021l6.716-6.728
			c0.185-0.184,0.44-0.286,0.696-0.286s0.512,0.103,0.696,0.286l1.393,1.393c0.185,0.185,0.286,0.44,0.286,0.696
			S20.168,35.669,19.983,35.854z"/>
	</g>
</g>
</svg>
