<?xml version="1.0" encoding="utf-8"?>
<!-- Generator: Adobe Illustrator 18.0.0, SVG Export Plug-In . SVG Version: 6.00 Build 0)  -->
<!DOCTYPE svg PUBLIC "-//W3C//DTD SVG 1.1//EN" "http://www.w3.org/Graphics/SVG/1.1/DTD/svg11.dtd">
<svg version="1.1" id="Layer_1" xmlns="http://www.w3.org/2000/svg" xmlns:xlink="http://www.w3.org/1999/xlink" x="0px" y="0px"
	 viewBox="0.1 0 14 29" enable-background="new 0.1 0 14 29" xml:space="preserve">
<symbol  id="checkbox-checked" viewBox="-7 -7 14 14">
	<path fill="#FFFFFF" d="M5.8,6.4c0.3,0,0.6-0.3,0.6-0.6V-5.8c0-0.3-0.3-0.6-0.6-0.6H-5.8c-0.3,0-0.6,0.3-0.6,0.6V5.8
		c0,0.3,0.3,0.6,0.6,0.6H5.8"/>
	<path fill="#A9AAAA" d="M5.8,6.4c0.3,0,0.6-0.3,0.6-0.6V-5.8c0-0.3-0.3-0.6-0.6-0.6H-5.8c-0.3,0-0.6,0.3-0.6,0.6V5.8
		c0,0.3,0.3,0.6,0.6,0.6H5.8 M5.8,7H-5.8C-6.5,7-7,6.5-7,5.8V-5.8C-7-6.5-6.5-7-5.8-7H5.8C6.5-7,7-6.5,7-5.8V5.8C7,6.5,6.5,7,5.8,7
		L5.8,7z"/>
	<g>
		<path fill="#8430A6" d="M4.7,1.3L0.3-3.1l-0.8-0.8C-0.6-4-0.7-4.1-0.9-4.1C-1-4.1-1.2-4-1.3-3.9l-0.8,0.8l-2.2,2.2
			c-0.1,0.1-0.2,0.3-0.2,0.4c0,0.1,0.1,0.3,0.2,0.4l0.8,0.8C-3.3,0.8-3.2,0.9-3,0.9c0.1,0,0.3-0.1,0.4-0.2L-0.9-1L3,2.9
			C3.1,3,3.3,3,3.4,3S3.7,3,3.8,2.9l0.8-0.8C4.8,2,4.8,1.8,4.8,1.7S4.8,1.4,4.7,1.3z"/>
	</g>
</symbol>
<symbol  id="checkbox-unchecked" viewBox="-7 -7 14 14">
	<path fill="#FFFFFF" d="M5.8,6.4c0.3,0,0.6-0.3,0.6-0.6V-5.8c0-0.3-0.3-0.6-0.6-0.6H-5.8c-0.3,0-0.6,0.3-0.6,0.6V5.8
		c0,0.3,0.3,0.6,0.6,0.6H5.8"/>
	<path fill="#A9AAAA" d="M5.8,6.4c0.3,0,0.6-0.3,0.6-0.6V-5.8c0-0.3-0.3-0.6-0.6-0.6H-5.8c-0.3,0-0.6,0.3-0.6,0.6V5.8
		c0,0.3,0.3,0.6,0.6,0.6H5.8 M5.8,7H-5.8C-6.5,7-7,6.5-7,5.8V-5.8C-7-6.5-6.5-7-5.8-7H5.8C6.5-7,7-6.5,7-5.8V5.8C7,6.5,6.5,7,5.8,7
		L5.8,7z"/>
</symbol>
<g id="source_1_" display="none">
	<g display="inline">
		<path fill="#A9AAAA" d="M22,1c0.6,0,1,0.4,1,1v20c0,0.6-0.4,1-1,1H2c-0.6,0-1-0.4-1-1V2c0-0.6,0.4-1,1-1H22 M22,0H2
			C0.9,0,0,0.9,0,2v20c0,1.1,0.9,2,2,2h20c1.1,0,2-0.9,2-2V2C24,0.9,23.1,0,22,0L22,0z"/>
	</g>
	<g display="inline">
		<path fill="#A9AAAA" d="M22,27c0.6,0,1,0.4,1,1v20c0,0.6-0.4,1-1,1H2c-0.6,0-1-0.4-1-1V28c0-0.6,0.4-1,1-1H22 M22,26H2
			c-1.1,0-2,0.9-2,2v20c0,1.1,0.9,2,2,2h20c1.1,0,2-0.9,2-2V28C24,26.9,23.1,26,22,26L22,26z"/>
	</g>
	
		<text transform="matrix(1 0 0 1 3.1613 45.0894)" display="inline" fill="#8430A6" font-family="'FontAwesome'" font-size="18.3341"></text>
</g>
<use xlink:href="#checkbox-checked"  width="14" height="14" x="-7" y="-7" transform="matrix(1 0 0 -1 7.0863 22)" overflow="visible"/>
<use xlink:href="#checkbox-unchecked"  width="14" height="14" x="-7" y="-7" transform="matrix(1 0 0 -1 7.0863 7)" overflow="visible"/>
</svg>
