<?xml version="1.0" encoding="utf-8"?>
<!-- Generator: Adobe Illustrator 18.0.0, SVG Export Plug-In . SVG Version: 6.00 Build 0)  -->
<!DOCTYPE svg PUBLIC "-//W3C//DTD SVG 1.1//EN" "http://www.w3.org/Graphics/SVG/1.1/DTD/svg11.dtd">
<svg version="1.1" xmlns="http://www.w3.org/2000/svg" xmlns:xlink="http://www.w3.org/1999/xlink" x="0px" y="0px"
	 viewBox="0 0 45.3 39.5" enable-background="new 0 0 45.3 39.5" xml:space="preserve">
<symbol  id="CTA-apply" viewBox="-62.9 -18 125.9 36">
	<path fill="#209B02" d="M57.9-18H-57.9c-2.8,0-5,2.2-5,5v26c0,2.8,2.2,5,5,5H57.9c2.8,0,5-2.2,5-5v-26C62.9-15.8,60.7-18,57.9-18z"
		/>
	<text transform="matrix(1 0 0 -1 -43.7217 -5)" fill="#FFFFFF" font-family="'HelveticaNeue'" font-size="14">Apply to Rent</text>
</symbol>
<symbol  id="logo-mono" viewBox="-83.8 -22.5 167.7 45.1">
	<g id="logo_2_">
		<g>
			<path fill-rule="evenodd" clip-rule="evenodd" fill="#FFFFFF" d="M-20.6,6.9c0,0.1-0.1,0.2-0.1,0.2C-21,8-21.4,8.8-21.7,9.7
				c-0.2,0.4-0.3,0.9-0.4,1.4c0,0.2-0.1,0.4-0.1,0.6c0,0.3,0,0.5,0.1,0.8c0,0.1,0.1,0.1,0.1,0.2c0.3-0.3,0.5-0.6,0.7-0.9
				c0-0.1,0.1-0.1,0.1-0.2c0.1-0.2,0.2-0.5,0.3-0.7c0.1-0.1,0.1-0.3,0.2-0.4c0-0.1,0.1-0.2,0.1-0.3c0.1-0.3,0.2-0.7,0.3-1
				c0.1-0.2,0.1-0.4,0.1-0.6c0-0.4,0-0.7-0.1-1.1C-20.5,7.1-20.5,7-20.6,6.9z"/>
			<g>
				<path opacity="0.44" fill-rule="evenodd" clip-rule="evenodd" fill="#FFFFFF" d="M-21.8,5.2c-0.3-0.3-0.6-0.5-0.9-0.7
					c-0.2-0.2-0.4-0.3-0.7-0.4c-0.4-0.3-0.9-0.5-1.3-0.8C-24.9,3.1-25,3-25.2,2.9c-0.7-0.4-1.4-0.7-2.1-1.1
					c-0.7-0.3-1.4-0.7-2.1-1.1c-0.8-0.4-1.5-0.9-2.2-1.4c-0.1-0.1-0.2-0.2-0.4-0.3c-0.1-0.1-0.1-0.1-0.2-0.2
					c-0.5-0.4-0.9-0.9-1.3-1.4c-0.4-0.5-0.7-1-1-1.6c0,0,0-0.1-0.1-0.1c-0.2,0-0.1,0.1-0.1,0.2c0,0.2,0,0.4,0.1,0.6
					c0,0.4,0.1,0.7,0.1,1.1c0.1,0,0.1,0,0.2,0c0.3-0.1,0.6,0,0.8,0.3c0.1,0.2,0.3,0.3,0.4,0.5c0.3,0.4,0.6,0.8,1,1.2
					c0.4,0.4,0.4,1,0,1.4c-0.5,0.5-1.1,0.8-1.8,0.9c-0.1,0-0.3,0-0.3,0.1c-0.1,0.3,0,0.7,0.1,1c0,0.4,0.1,0.7,0.2,1.1
					c0.1,0.1,0.2,0,0.3,0c0.7-0.4,1.3-0.9,1.8-1.6c0.2-0.3,0.5-0.6,0.7-0.9c0.2-0.2,0.5-0.3,0.8-0.3c0.2,0,0.4,0.2,0.4,0.4
					c0,0.3,0,0.5,0,0.8c-0.3,1-0.4,1.9-0.6,2.9c0,0.3-0.1,0.5-0.2,0.7c-0.2,0.5-0.5,0.7-1,0.5c-0.2-0.1-0.4-0.2-0.5-0.3
					c-0.3-0.1-0.6-0.2-0.9-0.1c-0.1,0.1,0,0.2,0,0.3c0.2,0.5,0.5,1,0.9,1.5c-1.4-0.9-2.9-1.4-4.4-1.8c-0.1,0-0.1,0-0.2-0.1
					c-0.6,0-1.2,0-1.7,0c-1,0-2,0-3,0c-0.4,0-0.6-0.1-0.7-0.4c-0.1-0.3,0-0.6,0.3-0.8c0.2-0.1,0.4-0.2,0.6-0.4
					c0.3-0.2,0.4-0.6,0.2-0.9c-0.1-0.2-0.2-0.4-0.3-0.5c-0.1-0.1-0.1-0.2-0.2-0.3c-0.3-0.5-0.6-0.9-0.9-1.3
					c-0.1-0.2-0.2-0.4-0.4-0.5c-0.1,0.1-0.1,0.3-0.1,0.4c0,1.2,0,2.4,0.1,3.6c0,0.2,0,0.4,0,0.6c0,0.3-0.1,0.6-0.4,0.8
					C-44,7.3-45.2,7-45.5,6.1C-45.8,5.3-46,4.5-46,3.7c-0.1-0.6-0.1-1.2-0.2-1.8c0-0.1,0-0.2-0.1-0.3c-0.2,0-0.3,0.1-0.3,0.2
					c-1.1,1.6-1.9,3.4-2.3,5.3c-0.1,0.4,0,0.4,0.3,0.4c2.1,0,4,0.6,6,1.2c1.3,0.4,2.5,1.1,3.6,1.7c0.1,0.1,0.2,0.1,0.4,0.1
					c0.1,0,0.1-0.1,0.2-0.2c0.5-1.6,2.1-2.2,3.6-1.6c0.8,0.3,1.8,1.3,1.7,2.5c0,0.4,0,0.8-0.2,1.1c0,0.1-0.1,0.3,0.1,0.3
					c0.7,0,0.7,0,0.7-0.7c0-0.6,0-1.2,0-1.8c0-0.3-0.1-0.5-0.3-0.6c-0.1-0.1-0.2-0.1-0.2-0.2c-0.1-0.1-0.1-0.3-0.1-0.5
					c0.1-0.2,0.2-0.2,0.4-0.2c0.8,0,1.6,0,2.3,0c0.2,0,0.3,0,0.4,0.2c0.1,0.2,0,0.4-0.1,0.5c-0.3,0.2-0.3,0.5-0.3,0.8
					c0,0.7,0,1.3,0,2c0,0.4,0,0.4,0.4,0.5c0.3,0.1,0.4,0.2,0.4,0.6c0,0.4-0.1,0.4-0.4,0.5c-0.1,0-0.2,0-0.2,0
					c-0.1,0.1-0.2,0.2-0.2,0.3c0,0.2,0.1,0.2,0.3,0.2c0.1,0,0.3,0,0.4,0c0.3,0,0.5,0.2,0.7,0.4c0.1,0.3,0,0.5-0.2,0.8
					c-0.6,0.6-2.2,0.9-2.9-0.1c-0.3-0.4-0.4-0.8-0.3-1.2c0-0.3,0-0.4-0.3-0.4c-0.1,0-0.3,0-0.4-0.1c-0.1-0.1-0.1-0.2-0.1-0.4
					c0-0.1,0-0.3-0.1-0.4c-0.1-0.1-0.2,0.1-0.3,0.2c-0.1,0.1-0.2,0.2-0.3,0.3c-0.5,0.5-1.1,0.6-1.8,0.6c-0.1,0-0.2,0-0.2,0
					c-0.7-0.4-1.5-0.6-2-1.2c-0.3-0.4-0.5-0.8-0.5-1.3c0-0.2,0.1-0.3-0.1-0.5c-0.8-0.1-1.6,0-2.4,0.2c-0.8,0.1-1.5,0.2-2.3,0.4
					c-0.1,0-0.3,0-0.4,0.2c0.1,0.2,0.2,0.1,0.4,0.1c0.6,0,0.8,0.3,0.8,0.9c0,0.7-0.5,1.2-1.2,1.2c-0.4,0-0.7,0-1.1-0.2
					c-0.2-0.1-0.3-0.1-0.5,0c-0.3,0.3-0.6,0.2-0.9,0.1c-0.4-0.1-0.7-0.2-1.1-0.4c-0.1,0-0.2-0.1-0.4-0.1c-0.3,0.2-0.7,0.4-1,0.6
					c-0.3,0.2-0.7,0.4-1,0.7c-0.5,0.4-1,0.8-1.5,1.2c-0.2,0.1-0.3,0.3-0.5,0.4c-0.7,0.6-1.5,1.2-2.3,1.7c-0.2,0.2-0.5,0.3-0.7,0.5
					c-0.1,0.1-0.2,0.1-0.3,0.2c0,0,0,0,0,0c0,0,0,0,0,0c0,0,0.1,0,0.1,0c0,0,0.1,0,0.1-0.1c0.4-0.1,0.8-0.2,1.3-0.3
					c0.2,0,0.4-0.1,0.6-0.1c0.4,0,0.9,0,1.3,0c0,0,0.1,0,0.1,0c0.7,0,1.3,0.2,2,0.3c0.2,0.1,0.5,0.1,0.7,0.2
					c0.4,0.1,0.8,0.2,1.1,0.4c0.1,0.1,0.3,0.1,0.4,0.1c0.1,0.1,0.3,0.1,0.4,0.2c0.5,0.2,1.1,0.5,1.6,0.7c0.9,0.4,1.7,0.6,2.6,1
					c0.7,0.2,1.3,0.4,2,0.6c0.4,0.1,0.9,0.2,1.3,0.2c0.1,0,0.2,0,0.3,0c0.2,0,0.4,0,0.5,0c0.3,0,0.7-0.1,1-0.2
					c0.1,0,0.2-0.1,0.4-0.1c0.3-0.2,0.6-0.3,0.9-0.6c0.1-0.1,0.2-0.2,0.3-0.3c0.2-0.3,0.5-0.6,0.7-1c0.2-0.4,0.4-0.8,0.6-1.2
					c0.3-0.6,0.4-1.2,0.6-1.8c0-0.1,0-0.3,0.1-0.4c0,0,0,0,0,0c0,0,0,0,0,0c0,0,0.1,0.1,0.1,0.1c0.1,0.2,0.2,0.5,0.3,0.7
					c0.2,0.5,0.4,1,0.6,1.5c0.2,0.6,0.5,1.1,0.8,1.7c0.4,0.7,1,1.2,1.7,1.6c0.3,0.2,0.5,0.3,0.8,0.4c0.2,0.1,0.3,0.1,0.5,0.1
					c0.2,0,0.4,0.1,0.6,0.1c0.3,0,0.7,0,1-0.1c0.3-0.1,0.5-0.2,0.8-0.4c0,0,0.1-0.1,0.1-0.1c0,0,0,0,0-0.1c0,0,0,0,0,0
					c-0.4-0.3-0.7-0.6-1-1.1c-0.2-0.3-0.3-0.6-0.3-1c0-0.3,0-0.6,0-1c0-0.4,0-0.9,0.1-1.3c0-0.3,0-0.7,0.1-1c0-0.6-0.1-1.1-0.3-1.6
					c-0.1-0.2-0.2-0.4-0.3-0.5c0,0,0-0.1-0.1-0.1c0,0,0,0,0,0c0,0,0,0,0,0c0,0,0.1,0,0.1,0c0.3,0.1,0.5,0.1,0.8,0.2
					c0.2,0,0.4,0.1,0.6,0.1c0.1,0,0.2,0,0.3,0c0.1,0,0.2,0,0.3,0c0.9-0.1,1.7-0.3,2.5-0.7c0.2-0.1,0.3-0.2,0.5-0.2
					c0.2-0.3,0-0.6,0-0.8c-0.2-2,0.1-3.8,0.8-5.7c0.2-0.5,0.4-1,0.6-1.5C-21.8,5.5-21.7,5.4-21.8,5.2z"/>
			</g>
			<g>
				<path fill-rule="evenodd" clip-rule="evenodd" fill="#FFFFFF" d="M15.3,1.8c0-2.1,0-4.2,0-6.3c0-0.3,0-0.7,0-1
					c0-0.6,0.1-1.2,0.2-1.8c0-0.1,0-0.1,0-0.2c0-0.2,0-0.2-0.2-0.2c-0.4,0-0.7,0-1.1,0c0,0-0.1,0-0.1,0c0,0-0.1,0-0.1,0.1
					c0,0.1,0,0.2,0,0.3c0.1,0.5,0.2,1,0.2,1.5c0,0.4,0,0.7,0,1.1c0,5.7,0,11.4,0,17.1c0,0.3,0,0.6,0,1c0,0.6-0.1,1.1-0.2,1.6
					c0,0.1,0,0.1,0,0.2c0,0.1,0,0.1,0.1,0.1c0,0,0.1,0,0.1,0c0.4,0,0.9,0,1.3,0c0,0,0.1,0,0.1,0c0,0,0.1,0,0.1-0.1
					c0-0.1,0-0.1,0-0.2c-0.1-0.4,0-0.9,0-1.3c0-0.3,0.1-0.6,0.2-0.8c0.6-2.2,1.2-4.4,1.8-6.6c0-0.1,0-0.1,0.1-0.2c0,0,0,0,0,0
					c0,0,0,0,0,0c0,0.1,0,0.2,0,0.3c0,2.1,0,4.2,0,6.3c0,0.3,0,0.5,0,0.8c0,0.5-0.1,1-0.2,1.5c0,0.1,0,0.1,0,0.2
					c0,0.1,0,0.2,0.2,0.2c0.4,0,0.8,0,1.2,0c0,0,0.1,0,0.1,0c0,0,0,0,0,0c0-0.1,0-0.2,0-0.2C19,14.8,19,14.4,18.9,14
					c0-0.1,0-0.2,0-0.3c0-0.4,0-0.8,0-1.1c0-3.6,0-7.2,0-10.8c0-2.3,0-4.6,0-6.9c0-0.2,0-0.4,0-0.6c0-0.5,0.1-1,0.2-1.5
					c0-0.1,0-0.2,0-0.3c0-0.1,0-0.1-0.1-0.1c-0.4,0-0.8,0-1.3,0c-0.1,0-0.1,0-0.1,0.1c0,0.1,0,0.2,0,0.3c0.1,0.5,0.2,1,0.2,1.6
					c0,0.3,0,0.7,0,1c0,1.7,0,3.3,0,5c0,0.2,0,0.4-0.1,0.7c-0.6,2.4-1.3,4.8-1.9,7.2c-0.1,0.5-0.3,1.1-0.4,1.6c0,0,0,0,0,0
					c0,0,0,0,0,0c0-0.1,0-0.1,0-0.2c0-0.1,0-0.2,0-0.3C15.3,6.8,15.3,4.3,15.3,1.8C15.3,1.8,15.3,1.8,15.3,1.8z"/>
			</g>
			<g>
				<path fill-rule="evenodd" clip-rule="evenodd" fill="#FFFFFF" d="M71.8,9.7c0-0.1,0-0.2,0-0.3c0-4.9,0-9.7,0-14.6
					c0-0.1,0-0.3,0-0.4c0-0.4,0-0.8,0.1-1.2C72-7,72-7.1,72-7.3c0-0.1,0-0.2,0-0.3c0,0,0-0.1-0.1-0.1c0,0-0.1,0-0.1,0
					c-0.4,0-0.8,0-1.2,0c0,0-0.1,0-0.1,0c0,0-0.1,0-0.1,0.1c0,0.1,0,0.2,0,0.3c0.1,0.2,0.1,0.5,0.1,0.8c0,0.1,0,0.3,0,0.4
					c0,0.6,0,1.2,0,1.7c0,3.4,0,6.8,0,10.2c0,2.3,0,4.6,0,6.9c0,0.3,0,0.6,0,1c0,0.5-0.1,1-0.2,1.4c0,0.1,0,0.2,0,0.3c0,0,0,0,0,0
					c0,0,0.1,0,0.1,0c0.5,0,1,0,1.5,0c0,0,0.1,0,0.1,0c0,0,0,0,0,0c0-0.1,0-0.2,0-0.3c-0.1-0.7,0-1.3,0.1-2c0.3-1.2,0.6-2.4,0.9-3.6
					c0.3-1.1,0.6-2.2,0.9-3.2c0-0.1,0-0.2,0.1-0.2c0,0,0,0,0,0c0,0,0,0,0,0c0,0,0,0.1,0,0.1c0,0.1,0,0.2,0,0.3c0,2,0,4.1,0,6.1
					c0,0.3,0,0.7,0,1c0,0.5-0.1,1-0.2,1.4c0,0.1,0,0.2,0,0.3c0,0,0,0,0,0c0,0,0,0,0.1,0c0.4,0,0.8,0,1.3,0c0,0,0,0,0.1,0
					c0,0,0.1,0,0.1-0.1c0-0.1,0-0.2,0-0.3c-0.1-0.7-0.2-1.5-0.2-2.2c0-5.9,0-11.9,0-17.8c0-0.2,0-0.4,0-0.5c0-0.6,0.1-1.1,0.2-1.7
					c0-0.1,0-0.3,0-0.4c0,0,0,0,0,0c0,0,0,0-0.1,0c-0.4,0-0.9,0-1.3,0c0,0-0.1,0-0.1,0.1c0,0.1,0,0.2,0,0.3c0.1,0.5,0.2,1,0.2,1.4
					c0,0.4,0,0.7,0,1.1c0,1.7,0,3.4,0,5c0,0.2,0,0.5-0.1,0.7c-0.4,1.3-0.7,2.7-1.1,4c-0.4,1.5-0.8,3-1.2,4.5
					C71.9,9.6,71.9,9.7,71.8,9.7c0,0,0,0.1,0,0.1C71.9,9.8,71.9,9.8,71.8,9.7z"/>
			</g>
			<g>
				<path fill-rule="evenodd" clip-rule="evenodd" fill="#FFFFFF" d="M34.3,0.7c0-2,0-3.9,0-5.9c0-0.4,0-0.8,0.1-1.2
					c0-0.3,0.1-0.6,0.1-0.9c0-0.1,0-0.2,0-0.3c0,0,0-0.1-0.1-0.1c0,0-0.1,0-0.1,0c-0.4,0-0.7,0-1.1,0c0,0-0.1,0-0.1,0
					c0,0-0.1,0-0.1,0.1c0,0.1,0,0.2,0,0.3c0.1,0.6,0.2,1.1,0.2,1.7c0,0.3,0,0.6,0,0.9c0,5.7,0,11.4,0,17.1c0,0.3,0,0.5,0,0.8
					c0,0.4,0,0.8-0.1,1.1c0,0.2-0.1,0.4-0.1,0.6c0,0.1,0,0.2,0,0.4c0,0,0,0.1,0.1,0.1c0,0,0.1,0,0.1,0c0.4,0,0.8,0,1.1,0
					c0,0,0.1,0,0.1,0c0,0,0.1,0,0.1-0.1c0-0.1,0-0.1,0-0.2c0-0.2-0.1-0.4-0.1-0.6c0-0.2,0-0.5-0.1-0.7c-0.1-0.9,0-1.8,0-2.6
					c0-0.3,0.1-0.4,0.4-0.6c0.1-0.1,0.3-0.1,0.4,0c0.1,0,0.2,0.1,0.3,0.2c0.1,0.1,0.2,0.2,0.4,0.3c0.1,0.1,0.2,0.1,0.3,0.2
					c0.2,0.1,0.4,0.1,0.6-0.1c0.1,0,0.1-0.1,0.2-0.2c0,0,0,0,0.1,0c0,0,0,0,0,0c0,0,0,0.1,0,0.1c0,0.8,0,1.6,0,2.4
					c0,0.5-0.1,1-0.2,1.4c0,0.1,0,0.2,0,0.3c0,0.1,0,0.1,0.1,0.1c0,0,0,0,0.1,0c0.4,0,0.8,0,1.2,0c0,0,0.1,0,0.1,0c0,0,0,0,0,0
					c0-0.1,0-0.2,0-0.3C38,14.5,38,14,38,13.5c0-0.3,0-0.6,0-0.9c0-5.8,0-11.6,0-17.4c0-0.2,0-0.5,0-0.7c0-0.6,0.1-1.2,0.2-1.7
					c0-0.1,0-0.1,0-0.2c0-0.2,0-0.2-0.2-0.2c-0.3,0-0.7,0-1,0c-0.1,0-0.1,0-0.2,0c0,0-0.1,0-0.1,0.1c0,0.1,0,0.2,0,0.3
					c0.1,0.5,0.2,1.1,0.2,1.6c0,0.3,0,0.6,0,0.9c0,4,0,8,0,12c0,0,0,0.1,0,0.1c0,0.3-0.1,0.6-0.3,0.9c0,0-0.1,0.1-0.1,0.1
					c-0.1,0.1-0.2,0.1-0.4,0c-0.1,0-0.1-0.1-0.2-0.1c-0.1-0.1-0.2-0.2-0.3-0.3c-0.1-0.1-0.1-0.1-0.2-0.2c-0.1-0.1-0.3-0.1-0.5-0.1
					c-0.1,0-0.2,0.1-0.3,0.2c0,0-0.1,0.1-0.1,0.1c0,0,0,0-0.1,0c0,0,0,0,0,0c0,0,0-0.1,0-0.1c0-0.1,0-0.1,0-0.2
					C34.3,5.3,34.3,3,34.3,0.7z"/>
			</g>
			<g>
				<path fill-rule="evenodd" clip-rule="evenodd" fill="#FFFFFF" d="M7.8,1.8c0-2,0-3.9,0-5.9c0-0.1,0-0.2,0-0.3c0,0,0,0,0,0
					c0,0,0.1,0,0.1,0c0.3,0,0.5,0,0.8,0c0.5,0,1,0,1.5,0c0.1,0,0.1,0,0.2,0c0.3,0,0.5,0.1,0.7,0.3c0.1,0.1,0.2,0.2,0.2,0.3
					c0,0,0,0,0.1,0c0,0,0,0,0,0c0,0,0-0.1,0-0.1c0-1.1,0-2.3,0-3.4c0-0.3,0-0.3-0.3-0.3c-1.4,0-2.9,0-4.3,0c-0.1,0-0.2,0-0.3,0
					c0,0,0,0,0,0c0,0.1,0,0.2,0,0.3c0.1,0.6,0.2,1.1,0.2,1.7c0,0.3,0,0.6,0,1c0,5.6,0,11.3,0,16.9c0,0.4,0,0.7,0,1.1
					c0,0.4,0,0.7-0.1,1.1c0,0.2-0.1,0.4-0.1,0.5c0,0.1,0,0.2,0,0.3c0,0,0,0.1,0.1,0.1c0.1,0,0.1,0,0.2,0c1,0,1.9,0,2.9,0
					c0.3,0,0.7,0,1,0c0.1,0,0.1,0,0.2,0c0,0,0,0,0,0c0,0,0,0,0-0.1c0-0.1,0-0.2,0-0.3c0-1,0-2.1,0-3.1c0-0.1,0-0.2,0-0.3
					c0,0,0,0,0,0c0,0,0,0-0.1,0c-0.1,0.1-0.2,0.2-0.2,0.3c-0.2,0.2-0.4,0.3-0.7,0.3c-0.7,0-1.3,0-2,0c0,0,0,0-0.1,0
					c0,0-0.1,0-0.1-0.1c0,0,0,0,0,0c0-0.3,0-0.5,0-0.8c0-0.1,0-0.1,0.1-0.1c0.1,0,0.2,0,0.3,0c0.7,0,1.4,0,2.1,0c0.1,0,0.2,0,0.3,0
					c0,0,0.1,0,0.1-0.1c0-0.1,0-0.1,0-0.2c0-0.8,0-1.7,0-2.5c0-0.1,0-0.2,0-0.3c0,0,0-0.1-0.1-0.1c-0.1,0-0.1,0-0.2,0
					c-0.7,0-1.4,0-2.2,0c-0.1,0-0.2,0-0.3,0c0,0-0.1,0-0.1-0.1c0-0.1,0-0.2,0-0.3C7.8,5.7,7.8,3.7,7.8,1.8C7.8,1.8,7.8,1.8,7.8,1.8z
					"/>
			</g>
			<g>
				<path fill-rule="evenodd" clip-rule="evenodd" fill="#FFFFFF" d="M82.5,2.5c0,1.3,0,2.7,0,4c0,0.5,0,1-0.1,1.5
					c0,0.3-0.1,0.7-0.1,1c0,0.1,0,0.1,0,0.2c0,0.1,0,0.1,0.1,0.1c0.4,0,0.9,0,1.3,0c0.1,0,0.1,0,0.1-0.1c0-0.1,0-0.1,0-0.2
					c0,0,0-0.1,0-0.1c0,0,0-0.1,0-0.1c-0.1-0.5-0.1-1-0.1-1.6c0-0.3,0-0.6,0-1c0-3.5,0-7,0-10.5c0-0.2,0-0.4,0-0.6
					c0-0.5,0-1.1,0.1-1.6c0-0.2,0.1-0.5,0.1-0.7c0-0.1,0-0.2,0-0.3c0-0.1,0-0.2,0-0.3c0,0,0,0,0,0c-0.1,0.1-0.2,0.1-0.3,0.2
					c-0.4,0.3-0.7,0.7-1.1,1.1c-0.5,0.6-0.9,1.2-1.2,1.9c-0.5,0.9-0.9,1.9-1.3,2.9c-0.4,1.2-0.7,2.4-1,3.6c-0.1,0.5-0.2,1.1-0.3,1.7
					c-0.1,0.4-0.1,0.8-0.2,1.3c0,0.4-0.1,0.7-0.1,1.1c-0.1,0.7-0.1,1.5-0.1,2.2c0,0.3,0,0.5,0,0.8c0,0.1,0,0.3,0,0.4
					c0,0.5,0,1,0.1,1.5c0.1,0.8,0.2,1.6,0.4,2.3c0.1,0.4,0.3,0.8,0.4,1.1c0.1,0.2,0.2,0.4,0.3,0.5c0.1,0.2,0.3,0.3,0.4,0.4
					c0.3,0.2,0.6,0.3,0.9,0.3c0.1,0,0.3,0,0.4,0c0.4,0,0.9,0,1.3,0c0.1,0,0.1,0,0.2,0c0,0,0.1,0,0.1-0.1c0,0,0-0.1,0-0.1
					c0-1.3,0-2.6,0-3.8c0,0,0-0.1,0-0.1c0,0,0,0,0,0c0,0,0,0,0,0c-0.1,0.1-0.1,0.2-0.2,0.3c-0.2,0.2-0.4,0.5-0.6,0.6
					c-0.1,0.1-0.2,0.2-0.4,0.2c-0.1,0.1-0.2,0.1-0.4,0.1c-0.2,0-0.4-0.1-0.6-0.2c-0.1-0.1-0.2-0.2-0.3-0.3c-0.1-0.2-0.2-0.3-0.3-0.5
					c-0.2-0.5-0.4-1-0.4-1.5c-0.1-0.8-0.2-1.6-0.2-2.4c0-0.2,0-0.4,0-0.6c0-0.5,0.1-0.9,0.1-1.4c0-0.3,0.1-0.6,0.1-1
					C79.8,4,80,3.4,80.1,2.9c0.3-1.1,0.6-2.2,0.9-3.3C81.2-1,81.5-1.5,81.7-2c0.1-0.3,0.3-0.6,0.5-0.8c0-0.1,0.1-0.1,0.1-0.2
					c0,0,0.1,0,0.1,0c0,0,0,0,0,0c0,0.1,0,0.2,0,0.3C82.5-1,82.5,0.8,82.5,2.5L82.5,2.5z"/>
			</g>
			<g>
				<path fill-rule="evenodd" clip-rule="evenodd" fill="#FFFFFF" d="M54.1,5.9c0,2.2,0,4.4,0,6.6c0,0.4,0,0.8,0,1.2
					c0,0.4-0.1,0.9-0.2,1.3c0,0.1,0,0.2,0,0.3c0,0.1,0,0.1,0.1,0.1c0,0,0.1,0,0.1,0c0.4,0,0.7,0,1.1,0c0,0,0.1,0,0.1,0
					c0,0,0.1,0,0.1-0.1c0-0.1,0-0.2,0-0.3c-0.1-0.6-0.2-1.2-0.2-1.8c0-0.3,0-0.6,0-0.9c0-5.7,0-11.5,0-17.2c0-0.3,0-0.7,0-1
					c0-0.6,0.1-1.1,0.2-1.7c0-0.1,0-0.2,0-0.3c0-0.1-0.1-0.1-0.1-0.1c-0.1,0.1-0.3,0.2-0.4,0.3c-0.3,0.2-0.5,0.5-0.7,0.8
					c-0.3,0.5-0.6,1-0.9,1.5c-0.5,1-0.9,2-1.3,3C51.7-1,51.3,0.3,51,1.6c-0.2,0.7-0.3,1.4-0.4,2.1c-0.1,0.5-0.2,0.9-0.2,1.4
					c-0.1,0.4-0.1,0.9-0.2,1.3c0,0.3-0.1,0.5-0.1,0.8c-0.1,0.9-0.1,1.7-0.1,2.6c0,0.6,0,1.2,0.1,1.8c0,0.4,0.1,0.8,0.1,1.2
					c0,0.3,0.1,0.5,0.1,0.8c0,0.5,0,1,0,1.5c0,0.1,0,0.2,0,0.3c0,0,0,0.1,0.1,0.1c0,0,0,0,0,0c0.5,0,1,0,1.6,0c0.1,0,0.1,0,0.1-0.1
					c0-0.1,0-0.2,0-0.2c-0.1-0.2-0.2-0.5-0.2-0.7c-0.2-0.6-0.4-1.3-0.5-2c-0.1-0.5-0.1-1-0.2-1.4c0-0.3,0-0.7,0-1
					c0-0.6,0-1.1,0.1-1.7c0-0.5,0.1-0.9,0.1-1.4c0.1-1.2,0.3-2.4,0.6-3.7c0.3-1.1,0.6-2.2,1-3.3c0.1-0.4,0.3-0.8,0.5-1.1
					c0.2-0.3,0.3-0.7,0.5-1c0,0,0-0.1,0.1-0.1c0,0,0,0,0,0c0,0,0,0,0,0.1c0,0.1,0,0.2,0,0.3C54.1,0.7,54.1,3.3,54.1,5.9
					C54.1,5.9,54.1,5.9,54.1,5.9z"/>
			</g>
			<g>
				<path fill-rule="evenodd" clip-rule="evenodd" fill="#FFFFFF" d="M-5.7,5.9c0,2.3,0,4.7,0,7c0,0.4,0,0.8-0.1,1.3
					c0,0.3-0.1,0.6-0.1,0.9c0,0.1,0,0.2,0,0.3c0,0,0,0,0,0c0,0,0,0,0.1,0c0.4,0,0.8,0,1.2,0c0,0,0.1,0,0.1,0c0,0,0,0,0,0
					c0-0.1,0-0.2,0-0.3c-0.1-0.4-0.1-0.8-0.1-1.2c0-0.4,0-0.8,0-1.2c0-5.8,0-11.6,0-17.4c0-0.6,0-1.1,0.1-1.7c0-0.3,0.1-0.7,0.2-1
					c0-0.1,0-0.2,0-0.2c0,0,0,0-0.1,0c0,0-0.1,0.1-0.1,0.1C-5-7.5-5.3-7.2-5.5-6.8C-5.8-6.4-6.1-6-6.3-5.5c-0.4,0.7-0.7,1.5-1,2.3
					C-7.8-2-8.2-0.7-8.6,0.6C-8.7,1.3-8.9,2-9.1,2.8c-0.1,0.5-0.2,1.1-0.3,1.6c-0.1,0.4-0.1,0.7-0.2,1.1c0,0.3-0.1,0.5-0.1,0.8
					c0,0.3-0.1,0.7-0.1,1c0,0,0,0.1,0,0.1c0,0.8-0.1,1.6-0.1,2.3c0,0.5,0,1,0.1,1.5c0,0.5,0.1,1,0.2,1.4c0,0.3,0.1,0.5,0.1,0.8
					c0,0.3,0,0.5,0,0.8c0,0.2,0,0.4,0,0.6c0,0.2,0,0.3,0,0.5c0,0,0,0.1,0.1,0.1c0,0,0.1,0,0.1,0c0.5,0,0.9,0,1.4,0c0,0,0.1,0,0.1,0
					c0,0,0.1,0,0.1-0.1c0-0.1,0-0.2,0-0.3c-0.1-0.3-0.2-0.6-0.3-0.8c-0.2-0.6-0.3-1.3-0.4-1.9c-0.1-0.6-0.2-1.2-0.2-1.8
					c0-0.5,0-1.1,0-1.6c0-0.5,0-0.9,0.1-1.4c0-0.3,0-0.5,0.1-0.8c0.1-0.4,0.1-0.8,0.2-1.3C-8.1,5-8.1,4.5-8,4.1
					c0.3-1.7,0.8-3.3,1.4-4.9c0.2-0.5,0.4-1,0.7-1.4c0-0.1,0.1-0.1,0.1-0.2c0,0,0,0,0,0c0,0,0,0,0,0c0,0.1,0,0.2,0,0.3
					C-5.7,0.6-5.7,3.3-5.7,5.9C-5.7,5.9-5.7,5.9-5.7,5.9z"/>
			</g>
			<g>
				<path fill-rule="evenodd" clip-rule="evenodd" fill="#FFFFFF" d="M-21.8,5.2c0,0.1-0.1,0.2-0.1,0.4c-0.2,0.6-0.5,1.1-0.7,1.7
					c-0.2,0.5-0.4,1.1-0.5,1.6c-0.1,0.5-0.2,0.9-0.2,1.4c-0.1,0.7-0.1,1.4,0,2.1c0,0.3,0,0.7,0.1,1c0,0.1,0,0.1,0,0.2
					c0,0.1,0.1,0.2,0.1,0.3c0.1,0.3,0.2,0.7,0.3,1c0.1,0.1,0.1,0.2,0.2,0.4c0.1,0.1,0.2,0.3,0.3,0.4c0.2,0.1,0.3,0.2,0.6,0.2
					c0.4,0,0.8-0.1,1.1-0.4c0.2-0.2,0.4-0.5,0.6-0.8c0,0,0-0.1,0-0.2c0-0.1,0-0.2-0.1-0.3c-0.2-0.7-0.4-1.4-0.6-2.1
					c0-0.1,0-0.1-0.1-0.2c0,0,0,0-0.1,0c0,0-0.1,0.1-0.1,0.1c-0.1,0.1-0.2,0.3-0.2,0.4c-0.1,0.1-0.1,0.2-0.2,0.3
					c-0.1,0.1-0.3,0.1-0.5,0.1c-0.1,0-0.1-0.1-0.1-0.1c-0.3-1,0-1.9,0.3-2.8c0.3-0.8,0.6-1.6,1-2.4c0.1-0.2,0.1-0.3,0.1-0.5
					c0.1-0.2,0.1-0.4,0.2-0.5c0.3-0.8,0.6-1.7,0.8-2.5c0.1-0.5,0.2-1.1,0.3-1.6c0.1-0.7,0.2-1.4,0.2-2c0-0.5,0-1.1,0-1.6
					c0-0.4,0-0.7-0.1-1.1c-0.1-0.9-0.2-1.8-0.4-2.7c-0.1-0.5-0.3-1-0.5-1.4c-0.1-0.3-0.3-0.5-0.5-0.7c-0.1-0.1-0.2-0.3-0.4-0.4
					C-21.4-8-21.7-8-22.1-7.9c-0.3,0.1-0.5,0.2-0.7,0.3c-0.3,0.2-0.6,0.5-0.8,0.7c-0.3,0.3-0.5,0.7-0.8,1.1c0,0,0,0.1,0,0.1
					c0,0.1,0,0.3,0,0.4c0.3,0.9,0.5,1.9,0.7,2.8c0,0.1,0,0.1,0.1,0.2c0,0,0,0,0,0c0,0,0,0,0,0c0-0.1,0-0.1,0.1-0.2
					c0.1-0.4,0.2-0.7,0.4-1c0.1-0.2,0.3-0.5,0.4-0.7c0.1-0.1,0.2-0.2,0.4-0.3c0.2-0.1,0.4-0.2,0.6-0.1c0.2,0,0.3,0.1,0.4,0.2
					c0.1,0.1,0.2,0.2,0.3,0.3c0.2,0.2,0.3,0.5,0.3,0.8c0.1,0.3,0.2,0.7,0.2,1.1c0.1,0.5,0.1,1.1,0.1,1.6c0,1.6-0.3,3.1-0.9,4.5
					c-0.2,0.4-0.4,0.9-0.5,1.3C-21.7,5.2-21.8,5.2-21.8,5.2z"/>
			</g>
			<g>
				<path fill-rule="evenodd" clip-rule="evenodd" fill="#FFFFFF" d="M58.2-5.9c0,0.5,0,1.1,0,1.6c0,0.1,0,0.1,0,0.2c0,0,0,0,0,0
					c0,0,0,0,0,0c0.1-0.1,0.1-0.1,0.2-0.2c0.1-0.1,0.2-0.2,0.3-0.3c0.3-0.2,0.7-0.2,1-0.1c0.1,0,0.2,0.1,0.3,0.2
					c0.2,0.1,0.3,0.3,0.4,0.5c0.1,0.2,0.2,0.5,0.3,0.8c0.2,0.5,0.3,1.1,0.4,1.6c0.1,0.5,0.1,1,0.2,1.4c0,0.3,0,0.6,0,0.9
					c0,0.7,0,1.3,0,2c0,0.5,0,1-0.1,1.5c0,0.4-0.1,0.7-0.1,1.1c0,0.3-0.1,0.7-0.1,1c0,0.3,0,0.5-0.1,0.8c0,0.3-0.1,0.7-0.1,1
					c0,0.4-0.1,0.7-0.1,1.1c0,0,0,0.1,0,0.1c0,0.6,0,1.1-0.1,1.7c0,0.4,0,0.9,0.1,1.3c0.1,0.6,0.2,1.2,0.4,1.8
					c0.1,0.3,0.2,0.5,0.3,0.8c0.1,0.2,0.2,0.3,0.3,0.4c0.2,0.2,0.3,0.3,0.6,0.3c0.1,0,0.3,0,0.4,0c0.1,0,0.2,0,0.3-0.1
					c0.4-0.1,0.3-0.1,0.3-0.5c0-0.9,0-1.9,0-2.8c0-0.1,0-0.2,0-0.3c0,0,0,0,0,0c0,0,0,0,0,0c-0.1,0.1-0.1,0.2-0.2,0.2
					c-0.1,0.1-0.1,0.2-0.2,0.3c-0.1,0.1-0.2,0.1-0.3,0.1c-0.1,0-0.2,0-0.2-0.1c-0.1-0.1-0.1-0.2-0.2-0.3c-0.1-0.2-0.1-0.3-0.1-0.5
					C62,11.5,62,11.2,62,10.9c0-0.3,0-0.6,0-1c0-0.4,0.1-0.8,0.1-1.3c0-0.3,0.1-0.6,0.1-0.9c0-0.4,0.1-0.8,0.1-1.1
					c0-0.2,0-0.5,0.1-0.7c0-0.3,0.1-0.7,0.1-1c0-0.4,0.1-0.8,0.1-1.1c0,0,0-0.1,0-0.1c0.1-1.3,0.1-2.6,0.1-3.9c0-0.4,0-0.9-0.1-1.3
					c0-0.4-0.1-0.8-0.1-1.2c-0.2-1-0.4-2-0.8-2.9c-0.1-0.3-0.3-0.7-0.5-1c-0.2-0.3-0.4-0.6-0.6-0.8c-0.2-0.2-0.4-0.3-0.6-0.4
					C59.6-8,59.3-8,59-8c-0.3,0-0.5,0.1-0.8,0.3c0,0-0.1,0.1-0.1,0.1c0,0.1,0,0.2,0,0.3C58.2-6.8,58.2-6.4,58.2-5.9z"/>
			</g>
			<g>
				<path fill-rule="evenodd" clip-rule="evenodd" fill="#FFFFFF" d="M23.7,15.4c0.6,0,1.2,0,1.8,0c0.1,0,0.1,0,0.2,0
					c0.3,0,0.5,0.1,0.7,0.3c0.1,0.1,0.2,0.1,0.3,0.2c0,0,0,0,0.1,0c0,0,0,0,0,0c0-0.7-0.1-1.4-0.3-2.1c-0.1-0.2-0.2-0.5-0.3-0.7
					c-0.1-0.1-0.2-0.3-0.3-0.4c-0.1-0.1-0.3-0.2-0.5-0.2c-0.2,0-0.4,0-0.7,0c0,0-0.1,0-0.1,0c0,0-0.1,0-0.1-0.1c0-0.1,0-0.2,0-0.3
					c0-0.5,0-1.1,0-1.6c0-5,0-10,0-15c0-0.3,0-0.7,0-1c0-0.6,0.1-1.2,0.2-1.7c0-0.1,0-0.2,0-0.3c0,0,0-0.1-0.1-0.1c0,0,0,0-0.1,0
					c-0.4,0-0.8,0-1.2,0c0,0-0.1,0-0.1,0c0,0,0,0,0,0c0,0.1,0,0.2,0,0.3c0.1,0.5,0.2,1.1,0.2,1.6c0,0.4,0,0.8,0,1.1
					c0,5.5,0,11,0,16.5c0,0.1,0,0.1,0,0.2c0,0.2,0,0.2-0.2,0.2c-0.3,0-0.5,0-0.8,0c-0.2,0-0.3-0.1-0.4-0.1c-0.1-0.1-0.2-0.2-0.3-0.3
					c-0.1-0.1-0.1-0.1-0.2-0.2c0,0,0,0-0.1,0c0,0,0,0,0,0.1c0,0.1,0,0.1,0,0.2c0,1,0,2.1,0,3.1c0,0.1,0,0.1,0,0.2
					c0,0,0.1,0.1,0.1,0.1c0.1,0,0.1,0,0.2,0C22.4,15.4,23.1,15.4,23.7,15.4z"/>
			</g>
			<g>
				<path fill-rule="evenodd" clip-rule="evenodd" fill="#FFFFFF" d="M-14,3.2c0-2.6,0-5.2,0-7.8c0-0.3,0-0.6,0-0.9
					c0-0.6,0.1-1.2,0.2-1.8c0-0.1,0-0.2,0-0.3c0-0.1,0-0.1-0.1-0.1c0,0,0,0-0.1,0c-0.4,0-0.8,0-1.2,0c0,0-0.1,0-0.1,0c0,0,0,0,0,0
					c0,0.1,0,0.2,0,0.3c0.1,0.3,0.1,0.5,0.1,0.8c0,0.1,0,0.1,0,0.2c0,0.5,0,1,0,1.4c0,5.7,0,11.3,0,17c0,0.4,0,0.4-0.4,0.4
					c-0.2,0-0.4,0-0.5,0c-0.2,0-0.4-0.1-0.6-0.2c-0.1-0.1-0.2-0.2-0.3-0.3c-0.1-0.1-0.1-0.1-0.2-0.2c0,0,0,0-0.1,0c0,0,0,0,0,0.1
					c0,0.1,0,0.1,0,0.2c0,1,0,2.1,0,3.1c0,0.1,0,0.1,0,0.2c0,0,0,0,0,0c0,0,0.1,0,0.1,0c0.1,0,0.2,0,0.3,0c1.2,0,2.4,0,3.6,0
					c0.1,0,0.2,0,0.3,0c0.2,0,0.4,0.1,0.6,0.2c0.1,0.1,0.2,0.1,0.3,0.2c0,0,0.1,0,0.1,0c0,0,0,0,0-0.1c0-0.2,0-0.5,0-0.7
					c0-0.2,0-0.5-0.1-0.7c-0.1-0.4-0.2-0.8-0.4-1.2c-0.1-0.1-0.1-0.2-0.2-0.3c-0.1-0.1-0.1-0.1-0.2-0.2c-0.1-0.1-0.3-0.2-0.5-0.2
					c-0.2,0-0.5,0-0.7,0c0,0-0.1,0-0.1,0c0,0,0,0,0,0c0,0,0-0.1,0-0.1c0-0.1,0-0.2,0-0.3C-14,9.1-14,6.1-14,3.2L-14,3.2z"/>
			</g>
			<g>
				<path fill-rule="evenodd" clip-rule="evenodd" fill="#FFFFFF" d="M67.4,3.9c0-2.9,0-5.8,0-8.8c0-0.5,0-1,0.1-1.4
					c0-0.3,0.1-0.5,0.1-0.8c0-0.2,0.1-0.4,0.1-0.5c0,0,0-0.1-0.1-0.1c0,0,0,0,0,0c-0.4,0-0.9,0-1.3,0c-0.1,0-0.1,0-0.1,0.1
					c0,0.1,0,0.2,0,0.3c0.1,0.5,0.1,1.1,0.2,1.6c0,0.3,0,0.6,0,0.9c0,5.9,0,11.8,0,17.7c0,0.5,0,0.9-0.1,1.4c0,0.2-0.1,0.4-0.1,0.6
					c0,0.1,0,0.2,0,0.3c0,0.1,0,0.1,0.1,0.1c0.1,0,0.3,0,0.4,0c0.3,0,0.6,0,0.9,0c0.1,0,0.1,0,0.1-0.1c0-0.1,0-0.1,0-0.2
					c0-0.1,0-0.1,0-0.2c-0.1-0.5-0.1-0.9-0.1-1.4c0-0.6,0-1.2,0-1.8C67.4,9.1,67.4,6.5,67.4,3.9z"/>
			</g>
			<path fill-rule="evenodd" clip-rule="evenodd" fill="#FFFFFF" d="M-80.4,6.4c0.9,0,1.9,0,2.8,0c0.3,0,0.3,0,0.5-0.2
				C-77,6.1-77,6.1-77,6c0-0.1,0-0.2,0-0.3c0-0.1,0-0.2-0.1-0.3c-0.1-0.2-0.3-0.3-0.5-0.4c-0.2-0.1-0.3-0.2-0.4-0.2
				c-0.1,0-0.1-0.1-0.1-0.2c0-0.1,0-0.1,0-0.2c0-0.1,0-0.2,0-0.3c0-3.2,0-6.4,0-9.5c0-0.2,0-0.4,0.1-0.7c0-0.1,0.1-0.2,0.2-0.2
				c0.2,0,0.5,0,0.7,0.1c0.6,0.1,1.1,0.4,1.6,0.7c0.5,0.3,1,0.7,1.4,1.1c0.4,0.4,0.8,0.8,1.3,1.3c0.1,0.1,0.2,0.2,0.3,0.3
				c0.1,0,0.1,0.1,0.2,0.1c0.1,0,0.1,0.1,0.2,0.1c0.1,0,0.3,0,0.4,0c0.2,0,0.4-0.2,0.4-0.4c0-0.2,0-0.4,0-0.7c0-0.3-0.1-0.6-0.2-1
				c0-0.1-0.1-0.2-0.1-0.2C-71.9-5.2-72-5.5-72-5.8c-0.1-0.4-0.1-0.9-0.2-1.3c0-0.1,0-0.2-0.1-0.3c0-0.2-0.2-0.4-0.3-0.6
				c-0.1-0.1-0.2-0.1-0.3-0.1c-0.1,0-0.1,0-0.2,0c-0.1,0-0.2,0-0.2,0.1c-0.2,0.1-0.4,0.2-0.6,0.2c-0.3,0-0.7,0-1,0.1
				c-0.4,0-0.8,0-1.1,0c-0.3,0-0.7,0-1,0c-2,0-3.9,0-5.9,0c-0.1,0-0.2,0-0.3,0c-0.2,0-0.3,0.1-0.4,0.3c0,0,0,0.1,0,0.1
				c0,0.1,0,0.3,0,0.4c0,0.1,0.1,0.2,0.1,0.3c0.2,0.2,0.3,0.3,0.5,0.4c0.1,0.1,0.2,0.1,0.4,0.2c0.1,0,0.1,0.1,0.2,0.2
				c0,0.1,0.1,0.2,0.1,0.3c0,0.1,0,0.1,0,0.2c0,3.1,0,6.2,0,9.2c0,0.1,0,0.1,0,0.2c0,0.1,0,0.2,0,0.3c0,0.1-0.1,0.2-0.2,0.3
				c-0.1,0.1-0.3,0.2-0.5,0.3c-0.2,0.1-0.3,0.2-0.4,0.3c-0.1,0.1-0.2,0.2-0.1,0.4c0,0.1,0,0.2,0,0.3c0,0,0,0.1,0,0.1
				c0,0.1,0.3,0.4,0.4,0.4c0.1,0,0.2,0,0.3,0C-82.2,6.4-81.3,6.4-80.4,6.4z"/>
			<g>
				<path fill-rule="evenodd" clip-rule="evenodd" fill="#FFFFFF" d="M-54.8-9C-54.8-9-54.8-9-54.8-9c0.1-0.1,0.2-0.2,0.3-0.3
					c0,0,0,0,0,0c0,0,0,0,0,0c-0.1,0-0.1,0.1-0.2,0.2C-54.8-9.1-54.8-9.1-54.8-9L-54.8-9L-54.8-9z"/>
			</g>
			<path fill-rule="evenodd" clip-rule="evenodd" fill="#FFFFFF" d="M-34.7-4C-34.7-4.1-34.6-4.1-34.7-4c0-0.1,0-0.2,0.1-0.2
				c0-0.1,0-0.1-0.1-0.1c0,0,0,0-0.1,0c0,0,0,0,0,0C-34.7-4.2-34.7-4.1-34.7-4z"/>
			<path fill-rule="evenodd" clip-rule="evenodd" fill="#FFFFFF" d="M-54.9,18.7C-54.9,18.7-54.9,18.6-54.9,18.7
				C-54.9,18.6-55,18.7-54.9,18.7c-0.1,0-0.1,0-0.1,0C-55,18.7-55,18.7-54.9,18.7C-54.9,18.7-54.9,18.7-54.9,18.7z"/>
			<path fill-rule="evenodd" clip-rule="evenodd" fill="#FFFFFF" d="M71.8,9.7C71.8,9.7,71.8,9.8,71.8,9.7c0,0.1,0,0.1,0,0.1
				C71.9,9.8,71.9,9.8,71.8,9.7C71.9,9.8,71.9,9.7,71.8,9.7L71.8,9.7L71.8,9.7z"/>
			<path fill-rule="evenodd" clip-rule="evenodd" fill="#FFFFFF" d="M-54.6,18.6c-0.1,0-0.1,0-0.1,0.1
				C-54.7,18.7-54.7,18.7-54.6,18.6z"/>
			<path fill-rule="evenodd" clip-rule="evenodd" fill="#FFFFFF" d="M-36.6,6.5C-36.6,6.5-36.6,6.4-36.6,6.5
				c-0.1-0.1-0.1-0.1-0.2-0.1C-36.7,6.5-36.7,6.5-36.6,6.5z"/>
			<g>
				<path fill-rule="evenodd" clip-rule="evenodd" fill="#FFFFFF" d="M-50.9-15.3C-50.9-15.4-50.9-15.4-50.9-15.3
					c0-0.3,0-0.4,0.1-0.6c0-0.2,0-0.3,0.1-0.5c0.1-0.4,0.2-0.7,0.2-1.1c0-0.2,0.1-0.3,0.1-0.5c0.2-0.5,0.3-1,0.5-1.4
					c0-0.1,0.1-0.2,0.1-0.3c0,0,0-0.1,0.1-0.1c0,0,0.1-0.1,0.1,0c0.1,0,0.1,0.1,0.1,0.1c0,0.1,0,0.1,0,0.2c-0.1,0.3-0.2,0.7-0.4,1
					c-0.1,0.2-0.1,0.4-0.2,0.6c0,0.1,0,0.1,0,0.2c-0.1,0.3-0.1,0.5-0.2,0.8c0,0.1,0,0.2-0.1,0.3c-0.1,0.3-0.1,0.5-0.1,0.8
					c0,0.1,0,0.3,0,0.4c0,0.4,0,0.7,0,1.1c0,0.2,0.1,0.4,0.1,0.5c0.1,0.3,0.2,0.6,0.2,0.9c0,0.1,0,0.2,0,0.3c0,0.1,0,0.1,0,0.2
					c0,0,0.1,0.1,0.1,0.1c0.1,0,0.2-0.1,0.2-0.2c0.1-0.1,0.1-0.2,0.2-0.2c0.1-0.1,0.2-0.1,0.2-0.2c0,0,0.1-0.1,0.1-0.1
					c0.1-0.2,0.3-0.4,0.6-0.5c0.2-0.1,0.4-0.1,0.5-0.2c0.4-0.2,0.8-0.4,1.3-0.5c0,0,0.1,0,0.1,0c0,0,0,0.1,0,0.1
					c0,0.1-0.1,0.1-0.1,0.1c-0.1,0-0.2,0.1-0.3,0.1c-0.1,0-0.2,0.1-0.3,0.2c0,0-0.1,0-0.1,0.1c-0.3,0.1-0.5,0.3-0.8,0.4
					c-0.1,0-0.2,0.1-0.2,0.1c-0.1,0-0.2,0.1-0.3,0.2c-0.2,0.2-0.3,0.3-0.5,0.4c-0.1,0.1-0.2,0.2-0.3,0.3c-0.1,0.2-0.3,0.4-0.5,0.6
					c-0.1,0.1-0.1,0.1-0.1,0.2c-0.1,0.2-0.1,0.4-0.2,0.5c0,0.1,0,0.2,0.1,0.3c0.1,0,0.1,0.1,0.2,0.2c0,0,0.1,0.1,0.1,0.1
					c0,0.1,0,0.1-0.1,0.1c-0.1,0-0.2,0-0.2,0c-0.1-0.1-0.1-0.1-0.2-0.2c0,0-0.1-0.1-0.1-0.1c-0.2-0.1-0.2-0.1-0.4-0.1
					c-0.1,0-0.3,0-0.4,0c-0.1,0-0.1,0-0.2,0c-0.4,0.1-0.7,0.1-1.1,0.2c-0.2,0-0.3,0.1-0.5,0.1c-0.1,0-0.2,0.1-0.3,0.2
					c0,0-0.1,0-0.1,0.1c-0.2,0.2-0.4,0.4-0.5,0.5c0,0,0,0,0,0.1c0,0,0,0,0,0c0.1,0,0.3,0,0.4,0c0.2,0,0.5,0,0.7,0
					c0.1,0,0.3,0.1,0.4,0.1c0,0,0.1,0,0.1,0.1c0.1,0.2,0.2,0.5,0.3,0.7c0.1,0.3,0.2,0.6,0.3,0.8c0,0.1,0,0.2,0,0.3
					c0,0.3,0,0.3-0.2,0.4c0,0,0,0,0,0c0,0,0,0,0,0c0.1,0,0.2,0,0.3,0c0.3,0,0.6,0,0.9,0c0.1,0,0.3,0,0.4,0c0.1,0,0.3,0,0.4,0
					c0.2,0,0.4,0,0.7,0c0,0,0.1,0,0.1,0c0.1-0.1,0.2-0.1,0.2-0.2c0.1-0.1,0.2-0.1,0.2-0.2c0.2-0.1,0.3-0.3,0.5-0.3
					c0.2-0.2,0.5-0.3,0.7-0.6c0,0,0.1-0.1,0.1-0.1c0.2-0.1,0.2-0.2,0.4-0.3c0.2-0.2,0.5-0.4,0.7-0.6c0.2-0.2,0.4-0.4,0.6-0.6
					c0.3-0.2,0.5-0.4,0.8-0.6c0.1,0,0.1-0.1,0.2-0.1c0.1-0.1,0.2-0.2,0.3-0.3c0.2-0.3,0.4-0.7,0.5-1c0.1-0.2,0.2-0.4,0.3-0.6
					c0.1-0.2,0.2-0.4,0.2-0.6c0-0.3,0.1-0.5,0.1-0.8c0-0.1,0-0.1,0-0.2c0-0.2,0-0.4,0-0.6c0,0,0,0,0-0.1c0-0.3-0.1-0.6-0.1-0.9
					c0,0,0-0.1,0-0.1c-0.1-0.4-0.1-0.8-0.2-1.2c-0.1-0.3-0.1-0.6-0.2-1c0,0,0-0.1,0-0.1c0-0.2,0-0.3-0.1-0.5c0-0.2,0-0.4,0-0.5
					c0-0.1,0-0.2,0-0.3c0,0,0-0.1,0-0.2c0-0.5,0-1.1,0-1.6c0-0.2,0-0.4,0-0.6c0-0.1,0-0.2,0-0.3c0-0.1,0-0.2,0-0.3c0,0,0,0,0,0
					c0,0,0,0-0.1,0c-0.1,0-0.2,0-0.3,0.1c-0.4,0.1-0.7,0.1-1.1,0.3c0,0,0,0-0.1,0c-0.2,0-0.4,0.1-0.6,0.1c-0.3,0-0.5,0-0.8,0
					c-0.4,0-0.9,0-1.3,0c-0.1,0-0.2,0-0.3,0c-0.4,0-0.8-0.1-1.2-0.2c-0.2,0-0.4,0-0.6-0.1c-0.2,0-0.3,0-0.5-0.1
					c-0.2,0-0.3,0-0.5-0.1c-0.1-0.1-0.3-0.1-0.4-0.1c-0.2,0-0.3-0.1-0.5-0.1c0,0-0.1,0-0.1,0c0,0-0.1,0-0.1,0.1c0,0.2,0,0.3,0,0.5
					c0,0.2-0.1,0.4-0.1,0.7c0,0.2-0.1,0.3-0.2,0.5c-0.1,0.2-0.2,0.4-0.3,0.5c-0.1,0.2-0.2,0.3-0.3,0.5c-0.4,0.7-0.7,1.3-1.1,2
					c-0.1,0.2-0.2,0.4-0.3,0.5c-0.1,0.2-0.2,0.3-0.3,0.5c-0.1,0.2-0.3,0.4-0.4,0.5c-0.1,0.1-0.1,0.2-0.2,0.4c0,0,0,0.1,0,0.2
					c-0.1,0.3-0.1,0.7-0.1,1c0,0,0,0.1,0,0.1c0,0,0,0.1,0.1,0.1c0.1,0,0.1,0,0.2,0c0.1-0.1,0.2-0.1,0.4-0.2c0.3-0.2,0.6-0.4,0.8-0.6
					c0.3-0.2,0.6-0.4,0.9-0.6c0.2-0.1,0.4-0.1,0.6-0.1c0.1,0,0.1,0,0.2,0c0.2,0,0.3,0,0.5,0.1c0.1,0,0.2,0.1,0.4,0.1
					c0.1,0.1,0.2,0.1,0.2,0.2c0.1,0.3,0.3,0.5,0.5,0.7c0,0,0.1,0.1,0.1,0.2c0.1,0.1,0.2,0.2,0.2,0.3c0.1,0,0.1-0.1,0.1-0.2
					C-50.9-15-51-15.1-50.9-15.3z"/>
			</g>
			<g>
				<path fill-rule="evenodd" clip-rule="evenodd" fill="#FFFFFF" d="M-43.2,5.6c0-0.6-0.1-1.2-0.1-1.8c0-0.3,0-0.5,0-0.8
					c0-0.2,0-0.4,0-0.6c0-0.4,0-0.8,0-1.2c0-0.7,0-1.4-0.1-2c0-0.1,0-0.3,0-0.4c0-0.3,0-0.6,0-0.9c0-0.6,0-1.3,0-1.9
					c0-0.2,0-0.4,0-0.7c0-0.2,0-0.5,0-0.7c0-0.4,0-0.8,0-1.3c0-0.1,0-0.2,0-0.3c0,0,0-0.1,0-0.1c0.1-0.2,0-0.4,0.1-0.6
					c0-0.2,0-0.4,0.1-0.5c0-0.2,0-0.3,0-0.5c0,0,0-0.1,0-0.1c0-0.3,0-0.6-0.1-0.9c0-0.1,0-0.1,0-0.2c0-0.4-0.1-0.9-0.1-1.3
					c0-0.1,0-0.3,0-0.4c0-0.1,0-0.3,0-0.4c0,0,0,0,0,0c0,0,0,0,0,0c-0.1,0.2-0.2,0.4-0.3,0.6c-0.1,0.3-0.2,0.5-0.4,0.8
					c0,0.1-0.1,0.1-0.1,0.2c-0.1,0.1-0.2,0.2-0.4,0.3c-0.1,0.1-0.3,0.2-0.4,0.3c0,0-0.1,0-0.1,0.1c-0.1,0.1-0.2,0.2-0.3,0.2
					c0,0-0.1,0.1-0.1,0.1c-0.4,0.4-0.8,0.7-1.2,1.1c-0.1,0.1-0.2,0.2-0.3,0.3C-47.5-8-47.5-8-47.6-7.9c-0.2,0.2-0.4,0.3-0.5,0.4
					C-48.5-7.2-48.7-7-49-6.8c-0.2,0.1-0.3,0.2-0.5,0.2c-0.3,0-0.7,0-1-0.1c-0.1,0-0.3,0-0.4,0c-0.3,0-0.5,0-0.8,0
					c-0.1,0-0.2,0-0.3,0c-0.1,0-0.1,0-0.1,0.1c-0.1,0.5-0.1,0.6-0.2,1c-0.1,0.3-0.2,0.5-0.3,0.7c-0.1,0.2-0.2,0.5-0.3,0.7
					c-0.2,0.4-0.3,0.8-0.5,1.2c-0.1,0.2-0.1,0.4-0.2,0.5c0,0.1-0.1,0.3-0.1,0.4C-53.9-1.6-54-1.3-54-0.9c0,0.3-0.1,0.6-0.1,0.9
					c0,0.1,0,0.3-0.1,0.4c-0.1,0.2-0.1,0.4-0.2,0.6c-0.1,0.3-0.1,0.5-0.2,0.8c-0.1,0.3-0.1,0.6-0.2,0.9c0,0,0,0,0,0
					C-54.9,3-54.9,3.3-55,3.6c-0.1,0.3-0.3,0.6-0.4,0.9c-0.1,0.2-0.1,0.4-0.1,0.6c0,0.1,0,0.2-0.1,0.3c-0.1,0.1,0,0.3,0,0.4
					c0,0.1,0,0.1,0.1,0.2c0.1,0.2,0.2,0.4,0.4,0.5c0.2,0.1,0.3,0.2,0.5,0.2c0.1,0,0.3,0,0.4,0c0.2,0,0.4-0.1,0.6-0.2
					c0,0,0.1,0,0.1-0.1s0-0.1,0.1-0.1c0.1-0.3,0.3-0.6,0.4-0.9c0.2-0.4,0.3-0.8,0.4-1.3c0.1-0.4,0.2-0.7,0.3-1.1
					c0.1-0.3,0.2-0.6,0.3-0.9c0.1-0.3,0.2-0.6,0.3-0.8c0.1-0.2,0.2-0.3,0.2-0.5c0.1-0.3,0.2-0.6,0.3-0.8C-51.1,0-51-0.1-51-0.3
					c0.1-0.1,0.1-0.3,0.2-0.4c0-0.1,0-0.1,0.1-0.2c0.1-0.4,0.2-0.7,0.3-1.1c0-0.1,0-0.1,0.1-0.1c0.3-0.6,0.5-1.2,0.7-1.8
					c0.1-0.2,0.1-0.4,0.2-0.6c0.1-0.2,0.1-0.4,0.3-0.5c0-0.1,0.1-0.1,0.1-0.2c0.1-0.1,0.1-0.2,0.2-0.2c0.1-0.1,0.3-0.1,0.4-0.1
					c0.2,0,0.4,0.1,0.5,0.2c0.2,0.1,0.3,0.3,0.4,0.5c0.1,0.3,0.1,0.5,0.2,0.8c0,0.2,0.1,0.5,0.2,0.7C-47.1-3.2-47-3-47-2.8
					c0.1,0.3,0.2,0.6,0.3,0.9c0,0,0,0.1,0,0.1c0.1,0.4,0.2,0.7,0.3,1.1c0,0,0,0.1,0,0.1c0,0.3,0.1,0.7,0.1,1c0,0.1,0,0.2,0.1,0.3
					c0,0.3,0.1,0.6,0.1,0.9c0,0.2,0.1,0.5,0.1,0.7c0,0.1,0,0.3,0,0.4c0,0.1,0,0.3,0.1,0.4c0,0.3,0.1,0.6,0.1,0.9
					c0,0.2,0.1,0.5,0.1,0.7c0.1,0.3,0.1,0.5,0.2,0.8c0,0.1,0.2,0.5,0.2,0.6c0.1,0.1,0.2,0.2,0.3,0.3c0.1,0,0.2,0.1,0.3,0.1
					c0.1,0,0.2,0,0.3,0c0.2,0,0.5-0.1,0.7-0.2c0.1-0.1,0.2-0.1,0.3-0.2c0.1-0.1,0.2-0.2,0.1-0.4C-43.2,5.8-43.2,5.7-43.2,5.6z"/>
			</g>
			<g>
				<path fill-rule="evenodd" clip-rule="evenodd" fill="#FFFFFF" d="M-60.4,8.9c-0.4,0-0.7,0-1.1,0c-0.1,0-0.1,0-0.2,0
					c0,0-0.1,0-0.1,0.1c0,0.1,0,0.1,0.1,0.2c0.1,0.1,0.1,0.1,0.2,0.1c0.1,0.1,0.2,0.1,0.2,0.2c0.1,0.1,0.1,0.2,0.1,0.3
					c0,0.1,0,0.1,0,0.2c0,0.6,0,1.1,0,1.7c0,0.1,0,0.2,0,0.3c0,0.1,0,0.2-0.1,0.3c-0.1,0.2-0.1,0.3-0.3,0.4c-0.1,0-0.1,0.1-0.2,0.1
					c0,0-0.1,0.1-0.1,0.1c0,0.1,0,0.2,0.1,0.2c0.2,0.1,0.5,0.2,0.7,0.3c0.2,0.1,0.4,0.1,0.6,0.2c0.1,0,0.3,0,0.4,0
					c0.1,0,0.1,0,0.2-0.1c0-0.1,0.1-0.1,0.1-0.2c0-0.1,0-0.3,0-0.4c0-0.1,0.1-0.1,0.1-0.1c0.1,0,0.2,0.1,0.3,0.1
					c0.2,0.1,0.3,0.2,0.5,0.4c0.1,0.1,0.2,0.2,0.3,0.2c0.1,0.1,0.3,0.1,0.5,0.1c0.3,0,0.6-0.2,0.9-0.4c0.2-0.1,0.3-0.3,0.4-0.5
					c0-0.1,0.1-0.1,0.2-0.1c0,0,0.1,0,0.1,0c0.1,0,0.1,0.1,0.2,0.1c0.1,0.1,0.3,0.2,0.4,0.3c0.1,0.1,0.2,0.2,0.4,0.3
					c0.2,0.1,0.3,0.2,0.5,0.1c0.1,0,0.2,0,0.3-0.1c0.3-0.1,0.6-0.3,0.9-0.6c0.2-0.2,0.3-0.5,0.4-0.8c0.1-0.5,0.1-1.1-0.1-1.6
					c-0.1-0.3-0.3-0.6-0.5-0.9C-53.8,9.4-54,9.2-54.2,9c-0.2-0.2-0.3-0.3-0.5-0.5c-0.2-0.2-0.3-0.4-0.4-0.6c0-0.1,0-0.2,0-0.3
					c0-0.1,0-0.2-0.1-0.2c-0.1,0-0.1,0-0.2,0c0,0-0.1,0.1-0.1,0.1c-0.1,0.1-0.1,0.3-0.1,0.5c0,0.3,0,0.5,0,0.8
					c0,0.1,0.1,0.2,0.1,0.4c0.1,0.2,0.2,0.4,0.3,0.6c0.1,0.2,0.2,0.4,0.3,0.6c0.2,0.4,0.2,0.8,0.1,1.2c0,0.2-0.1,0.3-0.2,0.5
					c-0.1,0.2-0.3,0.3-0.6,0.3c-0.2,0-0.3,0-0.5,0c-0.1,0-0.1,0-0.2-0.1c-0.1,0-0.2-0.1-0.2-0.2c0-0.1,0-0.1,0-0.2c0-0.7,0-1.3,0-2
					c0-0.3,0.1-0.5,0.3-0.6c0.1,0,0.1-0.1,0.2-0.2c0.1-0.1,0.1-0.1,0-0.2c0,0,0,0,0,0c0,0-0.1,0-0.1,0c-0.1,0-0.3,0-0.4,0
					c-0.6,0-1.2,0-1.8,0c-0.1,0-0.2,0-0.3,0c-0.1,0-0.1,0.1-0.1,0.1c0,0.1,0,0.1,0.1,0.2c0.1,0.1,0.2,0.1,0.2,0.2
					c0.1,0.1,0.2,0.1,0.3,0.2c0.1,0,0.1,0.1,0.1,0.2c0,0.1,0,0.1,0,0.2c0,0.5,0,1.1,0,1.6c0,0.1,0,0.1,0,0.2c0,0.2-0.1,0.3-0.2,0.4
					c-0.1,0.1-0.3,0.2-0.5,0.2c-0.2,0-0.4,0-0.5,0c0,0-0.1,0-0.1,0c-0.2-0.1-0.3-0.2-0.3-0.4c0-0.2,0-0.4,0-0.5c0-0.5,0-1,0-1.5
					c0-0.1,0-0.1,0-0.2c0-0.1,0.1-0.3,0.2-0.3c0.1,0,0.1-0.1,0.2-0.1c0,0,0.1-0.1,0.1-0.1c0.1,0,0.1-0.1,0.1-0.2c0,0,0-0.1-0.1-0.1
					c-0.1,0-0.1,0-0.2,0C-59.6,8.9-60,8.9-60.4,8.9z"/>
			</g>
			<g>
				<path fill-rule="evenodd" clip-rule="evenodd" fill="#FFFFFF" d="M-66.1,8.9c-0.4,0-0.7,0-1.1,0c-0.1,0-0.1,0-0.2,0
					c0,0-0.1,0.1-0.1,0.1c0,0.1,0,0.1,0.1,0.1c0.1,0.1,0.1,0.1,0.2,0.2c0.1,0.1,0.2,0.1,0.3,0.2c0.1,0.1,0.1,0.2,0.1,0.3
					c0,0,0,0.1,0,0.1c0,0.6,0,1.1,0,1.7c0,0.1,0,0.2,0,0.3c0,0.2-0.1,0.3-0.2,0.4c-0.1,0.1-0.3,0.2-0.5,0.2c-0.2,0-0.4,0-0.5,0
					c-0.1,0-0.1,0-0.2-0.1c-0.1,0-0.2-0.1-0.2-0.2c0-0.1,0-0.1,0-0.2c0-0.7,0-1.3,0-2c0-0.1,0-0.1,0-0.2c0-0.2,0.1-0.3,0.2-0.4
					c0.1,0,0.1-0.1,0.2-0.1c0,0,0.1-0.1,0.1-0.1c0,0,0-0.1,0.1-0.1c0-0.1,0-0.2-0.1-0.2c-0.1,0-0.1,0-0.2,0c-0.8,0-1.5,0-2.3,0
					c-0.1,0-0.1,0-0.2,0c-0.1,0-0.1,0.1-0.1,0.1c0,0.1,0.1,0.1,0.1,0.2c0.1,0.1,0.1,0.1,0.2,0.1c0.1,0,0.1,0.1,0.2,0.1
					c0.1,0.1,0.1,0.2,0.1,0.3c0,0,0,0.1,0,0.1c0,0.6,0,1.2,0,1.8c0,0.2,0,0.3-0.1,0.5c0,0.2-0.2,0.4-0.4,0.5c0,0-0.1,0.1-0.1,0.1
					c-0.1,0.1-0.1,0.2,0,0.3c0,0,0.1,0,0.1,0c0.3,0.1,0.7,0.3,1,0.4c0.2,0.1,0.4,0.1,0.7,0.1c0.1,0,0.2-0.1,0.2-0.2
					c0-0.1,0-0.2,0.1-0.3c0-0.1,0-0.1,0-0.2c0,0,0.1-0.1,0.1-0.1c0.1,0,0.2,0.1,0.3,0.1c0.1,0.1,0.3,0.2,0.4,0.3
					c0.1,0.1,0.2,0.1,0.3,0.2c0.2,0.2,0.4,0.2,0.7,0.2c0.3-0.1,0.6-0.2,0.8-0.4c0.1-0.1,0.2-0.2,0.3-0.3c0,0,0.1-0.1,0.1-0.2
					c0,0,0.1-0.1,0.1,0c0.1,0,0.2,0.1,0.3,0.1c0.1,0.1,0.3,0.2,0.4,0.3c0.1,0.1,0.2,0.2,0.4,0.3c0.1,0,0.1,0.1,0.2,0.1
					c0.1,0,0.2,0.1,0.3,0.1c0.7,0,1.2-0.3,1.5-0.9c0.1-0.2,0.2-0.5,0.3-0.8c0-0.4,0-0.7,0-1.1c-0.1-0.4-0.3-0.8-0.6-1.2
					c-0.2-0.2-0.4-0.4-0.5-0.6c-0.2-0.2-0.3-0.3-0.5-0.5c-0.2-0.2-0.3-0.4-0.4-0.6c0-0.1-0.1-0.2,0-0.3c0-0.1,0-0.2-0.1-0.2
					c-0.1-0.1-0.2-0.1-0.2,0c0,0-0.1,0.1-0.1,0.2c-0.1,0.1-0.1,0.3-0.1,0.4c-0.1,0.4,0,0.8,0.1,1.2c0.1,0.2,0.2,0.4,0.3,0.6
					c0.1,0.2,0.2,0.4,0.3,0.5c0.2,0.4,0.2,0.8,0.2,1.2c0,0.2-0.1,0.3-0.2,0.5c-0.2,0.3-0.4,0.4-0.7,0.4c-0.1,0-0.3,0-0.4,0
					c-0.1,0-0.2,0-0.3-0.1c-0.1-0.1-0.2-0.1-0.2-0.3c0-0.1,0-0.1,0-0.2c0-0.6,0-1.2,0-1.9c0-0.1,0-0.2,0-0.3c0-0.1,0-0.2,0.1-0.3
					c0.1,0,0.1-0.1,0.2-0.1c0.1,0,0.1-0.1,0.2-0.1c0,0,0.1-0.1,0.1-0.1c0-0.1,0-0.1-0.1-0.1c-0.1,0-0.1,0-0.2,0
					C-65.3,8.9-65.7,8.9-66.1,8.9z"/>
			</g>
			<g>
				<path fill-rule="evenodd" clip-rule="evenodd" fill="#FFFFFF" d="M-80.2,15.6c0.3,0,0.6,0,1-0.1c0.3-0.1,0.6-0.1,0.9-0.1
					c0.2,0,0.4,0,0.6,0.1c0.2,0,0.3,0.1,0.5,0.1c0,0,0.1,0,0.1,0c0,0,0.1,0,0.1-0.1c0,0,0-0.1,0-0.1c0-0.1,0-0.3-0.1-0.4
					c-0.1-0.3-0.2-0.5-0.4-0.7c-0.1-0.1-0.1-0.2-0.2-0.2c-0.2-0.2-0.5-0.2-0.7,0c-0.1,0-0.1,0.1-0.2,0.1c-0.2,0.1-0.3,0.3-0.5,0.4
					c-0.1,0.1-0.3,0.2-0.4,0.4c0,0-0.1,0.1-0.2,0.1c-0.4,0.3-0.9,0.1-1.2-0.1c-0.2-0.2-0.3-0.5-0.2-0.8c0-0.1,0.1-0.2,0.2-0.3
					c0.1-0.1,0.3-0.2,0.4-0.3c0.3-0.1,0.5-0.2,0.8-0.2c0.4-0.1,0.8-0.2,1.2-0.3c0.2,0,0.4-0.1,0.6-0.2c0.1-0.1,0.2-0.1,0.4-0.2
					c0.6-0.4,0.9-1.1,0.9-1.8c0-0.1-0.1-0.2-0.1-0.4c-0.1-0.1-0.2-0.3-0.3-0.4c-0.2-0.2-0.4-0.4-0.7-0.5c-0.5-0.3-1-0.5-1.5-0.6
					c-0.4-0.1-0.7-0.1-1.1-0.1c-0.3,0-0.6,0-0.8,0.1c-0.3,0.1-0.5,0.1-0.8,0.2c-0.1,0-0.2,0-0.3,0c-0.1,0-0.3,0-0.4,0
					c-0.1,0-0.2-0.1-0.3-0.1c-0.1,0-0.2,0-0.2,0c-0.1,0-0.1,0.1-0.1,0.1c0,0.2,0,0.4,0.1,0.6c0.2,0.5,0.5,1,0.9,1.4
					c0.1,0.1,0.1,0.1,0.2,0.2c0,0,0.1,0,0.1,0.1c0.1,0,0.2,0,0.2-0.1c0-0.1,0-0.1,0-0.2c0-0.1,0-0.2,0-0.3c0-0.5,0.4-1.2,1.2-1.4
					c0.2,0,0.3,0,0.5,0c0.3,0,0.6,0.1,0.8,0.3c0.2,0.2,0.4,0.4,0.4,0.7c0,0.3-0.1,0.6-0.3,0.9c-0.3,0.4-0.7,0.6-1.1,0.6
					c-0.4,0.1-0.8,0.1-1.1,0.2c-0.3,0.1-0.7,0.2-1,0.3c-0.2,0.1-0.4,0.2-0.5,0.3c-0.3,0.3-0.4,0.7-0.4,1.1c0,0.3,0.2,0.5,0.3,0.7
					c0.2,0.2,0.4,0.4,0.6,0.5c0.4,0.2,0.8,0.4,1.2,0.4C-80.9,15.6-80.6,15.6-80.2,15.6z"/>
			</g>
			<g>
				<path fill-rule="evenodd" clip-rule="evenodd" fill="#FFFFFF" d="M-71.4,11.4c0-0.5,0-1,0-1.4c0-0.1,0-0.2,0-0.3
					c0-0.1,0.1-0.2,0.1-0.3c0.1-0.1,0.1-0.1,0.2-0.2c0.1,0,0.1-0.1,0.1-0.1c0,0,0-0.1,0.1-0.1c0-0.1,0-0.2-0.1-0.2c0,0,0,0-0.1,0
					c-0.6,0-1.1,0-1.7,0c0,0-0.1,0-0.1,0C-72.9,8.9-72.9,9-73,9c0,0.1-0.1,0.2,0,0.2c0,0.1,0,0.2,0,0.3c0,0.1-0.1,0.2-0.2,0.1
					c-0.1,0-0.1,0-0.1,0c-0.1-0.1-0.2-0.1-0.3-0.2C-73.7,9.4-74,9.2-74.2,9c-0.2-0.2-0.5-0.2-0.8-0.2c-0.2,0-0.5,0.1-0.7,0.2
					c-0.2,0.1-0.4,0.3-0.6,0.5c-0.1,0.2-0.1,0.3-0.2,0.5c0,0.2,0,0.4,0,0.6c0,0.2,0.1,0.3,0.2,0.5c0.1,0.2,0.3,0.4,0.5,0.6
					c0.1,0.1,0.2,0.2,0.3,0.4c0.1,0.1,0.1,0.1,0.1,0.2c0,0.1,0,0.1-0.1,0.2c-0.1,0-0.1,0.1-0.2,0.1c-0.1,0-0.2,0.1-0.2,0.1
					c-0.1,0.1-0.1,0.2-0.1,0.3c0,0,0,0.1,0.1,0.1c0.2,0.2,0.3,0.3,0.6,0.4c0,0,0.1,0,0.1,0c0.1,0,0.3,0,0.4-0.1
					c0.2-0.2,0.3-0.4,0.3-0.7c0-0.2,0-0.4-0.1-0.5c-0.1-0.2-0.1-0.4-0.2-0.6c-0.1-0.2-0.1-0.4-0.2-0.6c0-0.1,0-0.3-0.1-0.4
					c0-0.1,0-0.2,0.1-0.3c0.1-0.2,0.3-0.3,0.5-0.4C-74,10-73.8,10-73.6,10c0.2,0,0.4,0.1,0.5,0.1c0.1,0.1,0.2,0.1,0.2,0.3
					c0,0,0,0.1,0,0.1c0,0.4,0,0.8,0,1.2c0,0.2,0,0.3-0.1,0.5c0,0.1-0.1,0.2-0.1,0.3c0,0.1-0.1,0.2-0.2,0.2c-0.1,0-0.1,0.1-0.2,0.1
					c-0.1,0.1-0.1,0.3,0,0.3c0.4,0.2,0.9,0.4,1.3,0.5c0.1,0,0.3,0,0.4,0c0.1,0,0.2-0.1,0.2-0.2c0-0.1,0.1-0.3,0.1-0.4
					c0-0.2,0-0.3,0-0.5C-71.4,12.1-71.4,11.8-71.4,11.4z"/>
			</g>
			<g>
				<path fill-rule="evenodd" clip-rule="evenodd" fill="#FFFFFF" d="M-53.1-15.8c-0.1,0-0.2,0-0.3,0.1c0,0-0.1,0-0.1,0
					c-0.1,0-0.2,0.1-0.3,0.1c-0.2,0.2-0.5,0.3-0.7,0.5c-0.1,0.1-0.2,0.1-0.3,0.2c0,0-0.1,0-0.1,0.1c-0.4,0.3-0.6,0.4-0.9,0.6
					c0,0-0.1,0-0.1,0c-0.1,0-0.2,0.1-0.2,0.1c0,0.1,0,0.1-0.1,0.1c0,0.1-0.1,0.2-0.1,0.2c0,0.1,0,0.2,0,0.2c0,0.1,0,0.2,0,0.3
					c0,0.2,0.1,0.5,0.2,0.7c0,0.1,0.1,0.2,0.2,0.3c0.2,0.2,0.4,0.4,0.6,0.6c0.1,0.1,0.2,0.2,0.3,0.3c0,0,0.1,0,0.1,0c0,0,0,0,0,0
					c0.1-0.2,0.3-0.3,0.5-0.5c0.1-0.1,0.2-0.2,0.4-0.3c0,0,0.1,0,0.1-0.1c0.2-0.2,0.4-0.4,0.7-0.5c0.1,0,0.1-0.1,0.2-0.1
					c0.1-0.1,0.3-0.3,0.5-0.3c0.1-0.1,0.3-0.1,0.4-0.3c0.1-0.1,0.2-0.1,0.3-0.2c0,0,0.1,0,0.1,0c0.3-0.2,0.3-0.1,0.5-0.5
					c0-0.1,0.1-0.2,0.1-0.3c0-0.1,0-0.1,0-0.2c0-0.1-0.1-0.2-0.1-0.3c-0.2-0.3-0.4-0.6-0.6-0.9c0-0.1-0.1-0.1-0.2-0.1
					C-52.6-15.7-52.8-15.8-53.1-15.8z"/>
			</g>
			<g>
				<path fill-rule="evenodd" clip-rule="evenodd" fill="#FFFFFF" d="M-46.2,8.9c-0.4,0-0.7,0-1.1,0c-0.1,0-0.1,0-0.2,0
					c0,0-0.1,0-0.1,0.1c0,0.1,0,0.1,0.1,0.2c0.1,0,0.1,0.1,0.2,0.1c0.1,0.1,0.2,0.1,0.2,0.2c0.1,0.1,0.2,0.2,0.2,0.3
					c0,0.1,0,0.1,0,0.2c0,0.5,0,1.1,0,1.6c0,0.1,0,0.2,0,0.3c0,0.1,0,0.2-0.1,0.3c-0.1,0.2-0.2,0.3-0.3,0.4c0,0-0.1,0.1-0.1,0.1
					c-0.1,0-0.1,0.1-0.1,0.2c0,0.1,0.1,0.1,0.1,0.1c0.4,0.2,0.7,0.3,1.1,0.4c0.1,0,0.2,0,0.2,0.1c0.1,0,0.3,0,0.4,0
					c0.1,0,0.1,0,0.2-0.1c0,0,0-0.1,0.1-0.1c0-0.1,0-0.1,0-0.2c0-0.1,0-0.2,0.1-0.3c0.1,0,0.2,0.1,0.2,0.2c0.1,0.1,0.2,0.2,0.3,0.2
					c0.4,0.3,0.8,0.4,1.3,0.3c0.3-0.1,0.6-0.3,0.7-0.7c0-0.2,0-0.3,0-0.5c-0.1-0.2-0.2-0.4-0.5-0.4c-0.1,0-0.2,0-0.3,0
					c-0.1,0-0.2,0-0.4,0.1c-0.1,0-0.1,0.1-0.2,0.1c0,0-0.1,0.1-0.1,0.1c-0.3,0.3-0.6,0.3-0.9,0.1c-0.1,0-0.1-0.1-0.2-0.2
					c0-0.1,0-0.1-0.1-0.2c0-0.2,0-0.4,0-0.6c0-0.6,0-1.1,0-1.7c0-0.3,0.1-0.5,0.3-0.6c0.1,0,0.1-0.1,0.2-0.2c0.1,0,0.1-0.1,0.1-0.2
					c0,0,0-0.1-0.1-0.1c-0.1,0-0.1,0-0.2,0C-45.4,8.9-45.8,8.9-46.2,8.9z"/>
			</g>
			<g>
				<path fill-rule="evenodd" clip-rule="evenodd" fill="#FFFFFF" d="M-50.5-12.2c0-0.2,0-0.4,0-0.5c0-0.1,0-0.2,0-0.3
					c0-0.1,0-0.1,0-0.2c0,0-0.1-0.1-0.1-0.1c-0.2,0-0.4,0-0.5,0c-0.1,0-0.2,0-0.3,0c-0.2,0-0.3,0.1-0.5,0.1
					c-0.1,0.1-0.2,0.1-0.3,0.2c-0.1,0.1-0.1,0.1-0.2,0.1c-0.1,0-0.1,0.1-0.2,0.1c-0.1,0.1-0.2,0.2-0.3,0.3c-0.1,0-0.2,0.1-0.3,0.2
					c0,0-0.1,0-0.1,0.1c-0.1,0.1-0.3,0.2-0.4,0.3c0,0-0.1,0.1-0.1,0.1c-0.2,0.1-0.3,0.2-0.4,0.4c-0.1,0.1-0.2,0.2-0.3,0.3
					c-0.1,0.1-0.2,0.2-0.2,0.4c0,0.3-0.1,0.5-0.2,0.7c0,0.1,0,0.3,0,0.4c0,0,0,0,0,0c0,0,0,0,0,0c0,0,0,0,0,0
					c0.3-0.3,0.5-0.5,0.8-0.8c0.2-0.2,0.4-0.4,0.7-0.5c0.2-0.1,0.5-0.2,0.7-0.2c0,0,0,0,0.1,0c0.2,0,0.5-0.1,0.7-0.1
					c0.1,0,0.1,0,0.2,0c0.2,0,0.3,0,0.5-0.1c0.1,0,0.2,0,0.3,0c0.1,0,0.1,0,0.2-0.1c0.1-0.1,0.2-0.3,0.2-0.4
					C-50.5-11.8-50.4-12-50.5-12.2C-50.5-12.2-50.5-12.2-50.5-12.2z"/>
			</g>
			<g>
				<path fill-rule="evenodd" clip-rule="evenodd" fill="#FFFFFF" d="M-53.8-7.2c0.4,0,0.8-0.1,1.2-0.2c0,0,0.1,0,0.1-0.1
					c0,0,0.1-0.1,0.1-0.1c0-0.1,0.1-0.1,0-0.2c0-0.2,0-0.5-0.1-0.7c-0.1-0.1-0.1-0.3-0.2-0.4C-52.8-8.9-52.8-9-52.9-9
					c-0.2-0.1-0.4-0.1-0.7-0.1c-0.1,0-0.3,0-0.4,0c-0.1,0-0.2,0-0.2,0.1c-0.2,0.1-0.4,0.4-0.5,0.6c0,0.1,0,0.3,0,0.4
					c0.1,0.3,0.2,0.5,0.3,0.7c0,0,0,0,0.1,0.1c0.1,0,0.2,0.1,0.3,0.1C-53.9-7.2-53.8-7.2-53.8-7.2z"/>
			</g>
			<g>
				<path fill-rule="evenodd" clip-rule="evenodd" fill="#FFFFFF" d="M-50.9-15.3c0,0-0.1,0.1-0.1,0.1c0,0.2,0,0.3,0,0.5
					c0,0.1,0,0.1-0.1,0.1c0.1,0.2,0,0.3,0,0.5c0,0.1-0.1,0.1-0.1,0.2c0,0.1,0,0.1,0.1,0.1c0.1,0,0.2,0,0.3,0c0,0,0.1,0,0-0.1
					c-0.1-0.2-0.1-0.4-0.1-0.6c0-0.1,0-0.2,0-0.3C-50.9-14.9-50.9-15.1-50.9-15.3z"/>
			</g>
			<path fill-rule="evenodd" clip-rule="evenodd" fill="#FFFFFF" d="M-44,11.8c-0.2,0-0.3,0.1-0.5,0.1c-0.2,0-0.3,0.1-0.5,0.1
				c0,0.1,0,0.1,0.1,0.2c0.1,0.1,0.2,0.1,0.3,0c0.1,0,0.2-0.1,0.2-0.1C-44.3,12-44.2,11.9-44,11.8z"/>
			<g>
				<path fill-rule="evenodd" clip-rule="evenodd" fill="#FFFFFF" d="M47.7,4c0-0.7,0-1.4,0-2.1c0-0.5,0-1.1-0.1-1.6
					c0-0.3-0.1-0.7-0.1-1c0-0.2,0-0.4-0.1-0.6C47.3-2,47.2-2.7,47-3.4c-0.2-0.7-0.4-1.4-0.6-2.1c-0.1-0.3-0.3-0.7-0.5-1
					c-0.1-0.2-0.2-0.4-0.4-0.5c-0.2-0.3-0.5-0.5-0.9-0.6c-0.5-0.2-0.9-0.1-1.4,0.2C43-7.2,42.8-7,42.7-6.8c-0.2,0.2-0.3,0.4-0.4,0.7
					c-0.2,0.4-0.4,0.9-0.5,1.3c-0.2,0.7-0.4,1.5-0.5,2.2C41.1-2,41-1.5,41-1c0,0.3-0.1,0.7-0.1,1c-0.1,0.5-0.1,1-0.1,1.6
					c0,0.2,0,0.4,0,0.6c0,1.1,0,2.2,0,3.3c0,0.5,0,1.1,0.1,1.6c0,0.5,0.1,1,0.1,1.5c0.1,1.1,0.3,2.1,0.5,3.1
					c0.1,0.6,0.3,1.2,0.6,1.7c0.1,0.3,0.3,0.6,0.5,0.9c0.2,0.2,0.3,0.4,0.5,0.6c0.2,0.2,0.5,0.3,0.8,0.4c0.5,0.1,1,0,1.4-0.3
					c0.2-0.1,0.3-0.3,0.5-0.4c0.2-0.2,0.4-0.5,0.5-0.8c0.2-0.5,0.4-0.9,0.6-1.4c0.2-0.6,0.3-1.3,0.5-1.9c0.1-0.5,0.2-1.1,0.2-1.6
					c0-0.3,0-0.7,0.1-1c0.1-0.5,0-0.9,0.1-1.4c0-0.2,0-0.4,0-0.7C47.7,5.3,47.7,4.7,47.7,4z M41.9,2c0-0.3,0-0.7,0.1-1
					c0-0.4,0.1-0.8,0.1-1.2c0.1-0.6,0.2-1.2,0.3-1.8c0.1-0.5,0.2-0.9,0.4-1.4C42.9-3.6,43-3.8,43.2-4c0.1-0.2,0.2-0.3,0.4-0.4
					c0.1-0.1,0.3-0.2,0.5-0.2c0.3,0,0.5,0,0.8,0.2c0.1,0.1,0.3,0.3,0.4,0.4c0.2,0.2,0.3,0.5,0.4,0.7c0.1,0.3,0.2,0.6,0.3,0.9
					c0.2,0.6,0.3,1.1,0.4,1.7c0.1,0.3,0.1,0.7,0.1,1c0,0.3,0.1,0.6,0.1,0.9c0.1,0.5,0.1,1.1,0.1,1.6c0,0.6,0,1.2,0,1.8
					c0,0.4,0,0.8,0,1.2c0,0.4,0,0.9-0.1,1.3c0,0.3-0.1,0.6-0.1,0.9c-0.1,0.5-0.1,1-0.2,1.4c-0.1,0.5-0.2,1-0.4,1.5
					c-0.1,0.3-0.2,0.5-0.4,0.8c-0.1,0.2-0.2,0.3-0.4,0.5c-0.1,0.1-0.2,0.2-0.3,0.2c-0.2,0.1-0.3,0.1-0.5,0.1c-0.2,0-0.4-0.1-0.5-0.2
					c-0.1-0.1-0.2-0.2-0.3-0.3c-0.2-0.2-0.3-0.5-0.4-0.7c-0.2-0.4-0.3-0.8-0.4-1.1c-0.2-0.8-0.3-1.7-0.4-2.5
					c-0.1-0.5-0.1-0.9-0.1-1.4c0-0.5-0.1-1-0.1-1.6c0-0.3,0-0.6,0-0.9C41.8,3.2,41.8,2.6,41.9,2z"/>
			</g>
			<g>
				<path fill-rule="evenodd" clip-rule="evenodd" fill="#FFFFFF" d="M3.8,0.4c0-0.7,0-1.4-0.1-2c0-0.5-0.1-1-0.1-1.5
					C3.5-3.9,3.4-4.6,3.2-5.4C3.1-5.8,2.9-6.2,2.7-6.5C2.7-6.7,2.6-6.8,2.5-7C2.4-7.1,2.3-7.2,2.2-7.3C1.9-7.5,1.7-7.6,1.4-7.6
					c0,0-0.1,0-0.1,0c-0.8,0-1.7,0-2.5,0c-0.1,0-0.1,0-0.2,0c0,0-0.1,0-0.1,0.1c0,0.1,0,0.2,0,0.3c0.1,0.5,0.2,1.1,0.2,1.7
					c0,0.3,0,0.7,0,1c0,5.7,0,11.4,0,17c0,0.4,0,0.7,0,1.1c0,0.6-0.1,1.2-0.2,1.7c0,0.1,0,0.2,0,0.3c0,0,0,0.1,0.1,0.1
					c0.1,0,0.1,0,0.2,0c0.2-0.1,0.4-0.2,0.6-0.3c0.3-0.3,0.6-0.6,0.9-0.9c0.4-0.5,0.7-1,1-1.5c0.5-0.9,0.9-1.9,1.2-2.9
					C2.7,8.8,3,7.6,3.2,6.5c0.1-0.5,0.2-1.1,0.3-1.7c0.1-0.4,0.1-0.9,0.2-1.3c0-0.4,0.1-0.7,0.1-1.1c0,0,0-0.1,0-0.1
					C3.8,1.6,3.8,1,3.8,0.4z M-0.2,2.7c0-2.2,0-4.5,0-6.7c0-0.1,0-0.2,0-0.3c0,0,0-0.1,0.1-0.1c0,0,0,0,0,0c0.4,0,0.8,0,1.3,0
					c0.2,0,0.4,0.1,0.6,0.3C1.9-4.1,1.9-4,2-3.9c0.1,0.2,0.2,0.3,0.2,0.5c0.2,0.5,0.2,0.9,0.3,1.4c0.1,0.6,0.1,1.2,0.1,1.8
					c0,0.7,0,1.4-0.1,2.1c0,0,0,0.1,0,0.1c0,0.3-0.1,0.6-0.1,0.9c0,0.4-0.1,0.8-0.2,1.1C2.2,4.7,2.1,5.3,2,5.9
					C1.7,6.8,1.5,7.7,1.1,8.6C1,9,0.8,9.5,0.5,9.9c-0.1,0.2-0.3,0.4-0.4,0.6C0,10.6,0,10.7-0.1,10.7c0,0,0,0-0.1,0c0,0,0,0,0,0
					c0-0.1,0-0.2,0-0.3c0-2.4,0-4.8,0-7.2C-0.2,3-0.2,2.8-0.2,2.7z"/>
			</g>
			<g>
				<path fill-rule="evenodd" clip-rule="evenodd" fill="#FFFFFF" d="M-37.1,6.1c1.4,0,2.9,0,4.3,0c0.3,0,0.6,0.1,0.8,0.2
					c0.1,0,0.2,0.1,0.2,0.1c0,0,0.1,0,0.1,0.1c0.1,0,0.1,0.1,0.2,0.1c0.2,0,0.3,0,0.4-0.2c0-0.1,0.1-0.1,0.1-0.2
					c0-0.1,0.1-0.3,0.1-0.4c0.1-0.5,0.2-0.9,0.3-1.4c0.1-0.6,0.2-1.1,0.3-1.6c0-0.1,0.1-0.2,0.1-0.3c0-0.2,0-0.4,0-0.5
					c0-0.1-0.1-0.2-0.2-0.2c-0.1,0-0.3,0-0.4,0.1c-0.1,0-0.1,0.1-0.2,0.1C-31,2-31.2,2.1-31.3,2.3c-0.2,0.3-0.5,0.6-0.7,0.9
					c-0.2,0.2-0.3,0.4-0.5,0.5C-32.7,3.9-32.8,4-33,4.1c-0.5,0.3-1,0.6-1.6,0.8c-0.7,0.2-1.3,0.3-2,0.3c-0.1,0-0.2,0-0.3-0.1
					C-37,5-37,5-37.1,4.9c0-0.1-0.1-0.2-0.1-0.3c0-0.1,0-0.1,0-0.2c0-1.4,0-2.7,0-4.1c0-0.1,0-0.2,0-0.3c0-0.1,0-0.1,0-0.2
					c0-0.1,0.2-0.2,0.3-0.1c0,0,0.1,0.1,0.1,0.1c0.1,0.1,0.1,0.2,0.1,0.2c0.1,0.2,0.2,0.3,0.3,0.5c0.1,0.2,0.2,0.3,0.4,0.5
					c0.4,0.4,0.9,0.6,1.4,0.6c0.4,0,0.7,0,1.1-0.1c0.4-0.1,0.7-0.3,1-0.6c0.1-0.1,0.1-0.2,0.2-0.2c0.1-0.1,0.1-0.3,0.1-0.4
					c0-0.2,0-0.3-0.2-0.4c-0.1-0.1-0.2-0.2-0.3-0.3c-0.2-0.2-0.5-0.5-0.6-0.8c-0.1-0.2-0.3-0.4-0.4-0.6c-0.1-0.1-0.1-0.2-0.2-0.2
					c0-0.1-0.1-0.1-0.2-0.2c-0.1-0.1-0.2-0.1-0.3,0c-0.1,0-0.1,0.1-0.1,0.2c-0.1,0.1-0.1,0.2-0.2,0.3c-0.1,0.1-0.2,0.3-0.3,0.4
					C-35-1-35.2-0.9-35.5-0.9c-0.2,0-0.4,0-0.6-0.1c-0.2-0.1-0.5-0.3-0.7-0.4c-0.2-0.2-0.3-0.4-0.3-0.6c0-0.1,0-0.1,0-0.2
					c0-1.1,0-2.2,0-3.3c0-0.2,0-0.4,0.1-0.6c0-0.1,0-0.1,0.1-0.1c0-0.1,0.1-0.2,0.2-0.2c0.1,0,0.1,0,0.2,0c0.3,0,0.6,0,0.9,0.1
					c1.3,0.3,2.5,0.8,3.6,1.6c0.5,0.4,0.9,0.8,1.3,1.4c0.1,0.2,0.2,0.3,0.3,0.5c0.1,0.1,0.1,0.2,0.2,0.3c0.1,0.1,0.2,0.1,0.2,0
					c0.1,0,0.1-0.1,0.2-0.1c0,0,0-0.1,0-0.1c0-0.3,0-0.6,0-0.9c0-0.1,0-0.2-0.1-0.3c-0.1-0.2-0.1-0.4-0.2-0.5
					c-0.1-0.3-0.2-0.6-0.2-0.9c-0.1-0.4-0.2-0.9-0.2-1.3c0-0.1-0.1-0.3-0.1-0.4c0-0.1-0.1-0.2-0.1-0.3c0-0.1-0.1-0.1-0.2-0.1
					c-0.1,0-0.1-0.1-0.2,0c-0.1,0-0.1,0.1-0.2,0.1c-0.2,0.1-0.4,0.1-0.6,0.1c-0.5,0-1,0-1.5,0.1c-0.5,0-1,0-1.5,0
					c-2.2,0-4.4,0-6.6,0c-0.1,0-0.2,0-0.3,0c-0.2,0-0.3,0.1-0.2,0.4c0,0.1,0.1,0.2,0.2,0.3c0.1,0.1,0.2,0.2,0.4,0.2
					c0.1,0.1,0.2,0.2,0.4,0.2c0.2,0.1,0.3,0.4,0.3,0.6c0,0.1,0,0.1,0,0.2c0,3.2,0,6.5,0,9.7c0,0.1,0,0.1,0,0.2
					c0,0.3-0.1,0.5-0.3,0.7c-0.1,0.1-0.3,0.2-0.4,0.3c-0.1,0.1-0.2,0.1-0.3,0.2c-0.1,0.1-0.2,0.2-0.2,0.4c0,0.1,0.1,0.3,0.3,0.3
					c0,0,0.1,0,0.1,0c0.1,0,0.1,0,0.2,0C-40,6.1-38.6,6.1-37.1,6.1z"/>
			</g>
			<g>
				<path fill-rule="evenodd" clip-rule="evenodd" fill="#FFFFFF" d="M-80.4,6.1c0.9,0,1.7,0,2.6,0c0.1,0,0.2,0,0.3,0
					c0.1,0,0.2-0.1,0.2-0.2c0-0.2,0-0.3-0.2-0.4c-0.1-0.1-0.2-0.1-0.3-0.2c-0.1-0.1-0.2-0.1-0.4-0.2C-78.2,5-78.3,5-78.4,5
					c-0.1-0.1-0.2-0.2-0.2-0.4c0-0.1,0-0.1,0-0.2c0-3.3,0-6.6,0-10c0-0.2,0-0.4,0.1-0.6c0,0,0-0.1,0-0.1c0.1-0.2,0.2-0.2,0.3-0.3
					c0.2,0,0.5,0,0.7,0c0.7,0.1,1.3,0.4,1.9,0.7c0.5,0.3,1,0.7,1.4,1.1c0.4,0.4,0.9,0.9,1.3,1.3c0.1,0.1,0.2,0.2,0.3,0.2
					c0.1,0,0.1,0.1,0.2,0.1C-72.3-3-72.1-3-72-3c0.1,0,0.1-0.1,0.1-0.1c0-0.1,0-0.3,0-0.4c0-0.4-0.1-0.7-0.3-1.1
					c-0.1-0.3-0.2-0.7-0.3-1c-0.1-0.4-0.2-0.9-0.2-1.3c0-0.2-0.1-0.3-0.1-0.5c0-0.1-0.1-0.2-0.2-0.3c-0.1-0.1-0.2-0.1-0.3-0.1
					c0,0,0,0,0,0c-0.3,0.2-0.5,0.2-0.8,0.2c-0.1,0-0.1,0-0.2,0c-0.7,0-1.5,0.1-2.2,0.1c-2.2,0-4.4,0-6.6,0c-0.1,0-0.1,0-0.2,0
					c-0.1,0-0.1,0-0.2,0.1c-0.1,0-0.1,0.1-0.1,0.1c0,0.2,0,0.3,0.1,0.4c0.1,0.1,0.1,0.1,0.2,0.1c0.1,0.1,0.2,0.1,0.3,0.2
					c0.1,0.1,0.2,0.2,0.3,0.2c0.2,0.1,0.3,0.3,0.3,0.5c0,0.1,0,0.1,0,0.2c0,3.2,0,6.5,0,9.7c0,0.1,0,0.3,0,0.4
					c0,0.1-0.1,0.3-0.2,0.3C-82.7,5-82.8,5.1-83,5.2c-0.1,0.1-0.2,0.1-0.3,0.2c-0.1,0.1-0.2,0.2-0.2,0.4c0,0.1,0.1,0.2,0.2,0.3
					c0.1,0,0.2,0,0.3,0C-82.1,6.1-81.2,6.1-80.4,6.1z"/>
			</g>
			<g>
				<path fill-rule="evenodd" clip-rule="evenodd" fill="#FFFFFF" d="M-31.7,8.9c-0.4,0-0.7,0-1.1,0c-0.1,0-0.1,0-0.2,0
					c0,0,0,0-0.1,0.1c0,0.1,0,0.1,0.1,0.2c0.1,0.1,0.1,0.1,0.2,0.1c0.1,0.1,0.2,0.1,0.3,0.2c0.1,0.1,0.1,0.1,0.1,0.2
					c0,0.1,0,0.1,0,0.2c0,0.9,0,1.8,0,2.8c0,0,0,0,0,0.1c0,0.2,0,0.2-0.2,0.2c-0.2,0-0.3,0-0.5,0c-0.1,0-0.1,0.1-0.1,0.1
					c0,0.1,0,0.2,0,0.3c0,0.1,0.1,0.1,0.2,0.1c0.1,0,0.3,0,0.4,0c0.1,0,0.1,0,0.2,0c0,0,0.1,0.1,0.1,0.1c0,0,0,0.1,0,0.1
					c0,0.1,0,0.3,0,0.4c-0.1,0.5,0.1,0.9,0.5,1.3c0.3,0.3,0.7,0.4,1.2,0.4c0.3,0,0.6-0.1,0.8-0.3c0.1-0.1,0.2-0.1,0.3-0.2
					c0,0,0.1-0.1,0.1-0.1c0.1-0.2,0.1-0.3-0.1-0.5c-0.1-0.1-0.2-0.2-0.4-0.2c-0.2,0-0.3,0-0.4,0.1c-0.1,0.1-0.2,0.2-0.2,0.3
					c0,0.1,0,0.1,0,0.2c0,0.1-0.1,0.2-0.2,0.2c0,0-0.1,0-0.1,0c-0.1,0-0.2-0.1-0.2-0.2c0-0.1,0-0.3,0.1-0.4c0-0.1,0-0.1,0.1-0.2
					c0.1-0.2,0.1-0.4,0.1-0.7c0,0,0-0.1,0-0.1c0-0.1,0.1-0.2,0.2-0.2c0.1,0,0.3,0,0.4,0c0.1,0,0.1,0,0.2,0c0,0,0.1-0.1,0.1-0.1
					c0-0.1,0-0.3,0-0.4c0,0-0.1-0.1-0.1-0.1c-0.1,0-0.1,0-0.2,0c-0.1,0-0.3,0-0.4,0c0,0-0.1,0-0.1-0.1c0-0.1,0-0.1,0-0.2
					c0-0.9,0-1.8,0-2.7c0,0,0,0,0,0c0-0.2,0.1-0.4,0.3-0.5c0.1,0,0.1-0.1,0.2-0.1c0.1-0.1,0.1-0.1,0.1-0.2c0,0,0-0.1-0.1-0.1
					c-0.1,0-0.1,0-0.2,0C-30.9,8.9-31.3,8.9-31.7,8.9z"/>
			</g>
			<g>
				<path fill-rule="evenodd" clip-rule="evenodd" fill="#FFFFFF" d="M-50.3,8.8c-0.4,0-0.8,0.1-1.2,0.3c-0.4,0.2-0.7,0.5-1,0.8
					c-0.2,0.4-0.3,0.8-0.3,1.2c0.1,1.2,1,2.3,2.3,2.5c1.1,0.2,2-0.3,2.5-1.2c0,0,0-0.1,0.1-0.1c0-0.1,0-0.2-0.1-0.2
					c-0.1,0-0.1-0.1-0.2-0.1c-0.9-0.5-1.7-0.9-2.6-1.4c0,0-0.1,0-0.1-0.1c0,0,0-0.1,0-0.1c0,0,0.1-0.1,0.1-0.1
					c0.1-0.1,0.3-0.2,0.5-0.2c0.2-0.1,0.5-0.1,0.7-0.1c0.3,0,0.6,0,0.9,0.1c0.2,0.1,0.4,0.2,0.6,0.3c0.1,0.1,0.2,0.1,0.3,0.2
					c0,0,0.1,0,0.1,0.1c0,0,0.1,0,0.1-0.1c0,0,0-0.1,0-0.1c-0.1-0.2-0.1-0.3-0.2-0.5c-0.4-0.5-0.8-0.9-1.4-1.1
					C-49.8,8.9-49.9,8.8-50.3,8.8z M-51.4,11.2c0-0.1,0-0.1,0.1-0.1c0,0,0.1-0.1,0.1-0.1c0,0,0,0,0.1,0c0.4,0.2,0.7,0.3,1,0.6
					c0.1,0.1,0.2,0.2,0.4,0.3c0.1,0.1,0.1,0.1,0.1,0.2c-0.1,0.3-0.2,0.5-0.4,0.7c-0.1,0.1-0.1,0.1-0.2,0.1c-0.4,0.1-0.8,0-1-0.3
					c-0.1-0.1-0.1-0.2-0.1-0.4c0-0.2-0.1-0.4-0.1-0.5C-51.5,11.6-51.4,11.4-51.4,11.2z"/>
			</g>
			<g>
				<path fill-rule="evenodd" clip-rule="evenodd" fill="#FFFFFF" d="M-33.4,11.3c0-0.3-0.1-0.7-0.2-1c-0.3-0.7-0.9-1.2-1.7-1.5
					c-1.3-0.4-2.7,0.4-3,1.7c-0.1,0.5-0.1,1.1,0.2,1.6c0.1,0.3,0.3,0.5,0.5,0.7c0.2,0.1,0.4,0.3,0.6,0.3c0.1,0,0.2,0.1,0.2,0.1
					c0.1,0.1,0.3,0.2,0.4,0.3c0.2,0.1,0.4,0.2,0.6,0.2c0.4,0,0.8-0.1,1.1-0.3c0.5-0.3,0.8-0.7,1-1.3C-33.5,11.8-33.4,11.6-33.4,11.3
					z M-34.2,11.9c-0.1,0.3-0.3,0.5-0.6,0.6c-0.2,0.1-0.5,0.1-0.7,0c-0.2,0-0.3-0.2-0.3-0.4c0-0.1,0-0.2,0.1-0.3c0,0,0-0.1,0-0.1
					c0,0,0-0.1-0.1-0.1c-0.1,0-0.2,0-0.3,0c-0.4,0-0.6,0.2-0.8,0.5c0,0.1-0.1,0.1-0.1,0.2c0,0,0,0-0.1,0c0,0,0,0-0.1,0
					c0,0,0-0.1-0.1-0.1c-0.1-0.5,0-0.9,0.2-1.3c0.4-0.6,1.1-0.9,1.8-0.7c0.6,0.2,0.9,0.6,0.9,1.2C-34.1,11.6-34.2,11.7-34.2,11.9z"
					/>
			</g>
			<g>
				<path fill="#FFFFFF" d="M-63.2-6.9c-3.2,0-5.8,2.6-5.8,5.8c0,3.2,2.6,5.8,5.8,5.8c3.2,0,5.8-2.6,5.8-5.8
					C-57.4-4.3-60-6.9-63.2-6.9z M-63.1-6.9l0.6,0.1c1.1,0.1,2.2,0.6,3,1.2l0.4,0.3l-4,4V-6.9z M-67.3-5.2l0.4-0.3
					c0.8-0.7,1.9-1.1,3-1.2l0.6-0.1v5.6L-67.3-5.2z M-63.1-1.1l4-4.1l0.4,0.4c0.8,1,1.3,2.3,1.3,3.6c0,2.9-2.3,5.4-5.1,5.7l-0.6,0.1
					V-1.1z M-63.8,4.6C-66.7,4.3-69,1.8-69-1.1c0-1.3,0.5-2.6,1.3-3.6l0.3-0.4l4.1,4.1v5.7L-63.8,4.6z"/>
				<path fill="#FFFFFF" d="M-63.2,5.2c-3.5,0-6.3-2.8-6.3-6.3s2.8-6.3,6.3-6.3c3.5,0,6.3,2.8,6.3,6.3S-59.7,5.2-63.2,5.2L-63.2,5.2
					z M-59.1-4.4l-3.5,3.5v5c2.5-0.3,4.7-2.5,4.7-5.2C-57.9-2.3-58.4-3.5-59.1-4.4L-59.1-4.4z M-67.3-4.4c-0.7,0.9-1.2,2-1.2,3.3
					c0,2.7,2.1,4.9,4.7,5.2v-5L-67.3-4.4L-67.3-4.4z M-62.6-6.3v3.9l2.7-2.7C-60.6-5.8-61.7-6.2-62.6-6.3L-62.6-6.3z M-63.8-6.3
					c-1,0.1-2,0.5-2.7,1.1l2.7,2.7V-6.3L-63.8-6.3z"/>
			</g>
		</g>
	</g>
</symbol>
<symbol  id="tmp-sm-shot_x2F_wide" viewBox="-210.9 -57.4 408.5 114.9">
	<polygon fill="#A8A8A8" points="197.6,-57.4 -210.9,-57.4 -210.9,57.4 197.6,57.4 	"/>
	<text transform="matrix(1 0 0 -1 -120.9902 -10.1294)"><tspan x="0" y="0" fill="#6B6B6B" font-family="'FontAwesome'" font-size="30"></tspan><tspan x="32.1" y="0" fill="#6B6B6B" font-family="'MyriadPro-Regular'" font-size="30"> </tspan><tspan x="38.5" y="0" fill="#6B6B6B" font-family="'ArialMT'" font-size="30">image needed</tspan></text>
</symbol>
<pattern  x="-1720.3" y="-1383.3" width="45.3" height="39.5" patternUnits="userSpaceOnUse" id="hexagon1" viewBox="0 -39.5 45.3 39.5" overflow="visible">
	<g>
		<polygon fill="none" points="0,0 45.3,0 45.3,-39.5 0,-39.5 		"/>
		<path fill="none" d="M34.5-13.5l10.8,6.2V0h-0.5v-6.2L34-12.5L23.1-6.2V0h-1v-6.2l-10.8-6.3L0.5-6.2V0H0v-7.2l10.8-6.2V-26L0-32.2
			v-7.2h0.5v6.2L11.3-27l10.8-6.2v-6.2h1v6.2L34-27l10.8-6.2v-6.2h0.5v7.2L34.5-26V-13.5z M33.5-26l-10.8-6.3L11.8-26v12.5l10.8,6.2
			l10.8-6.2V-26z"/>
		<path fill="#FFFFFF" d="M11.3-32.2l6.3-3.7v-3.7h-6c0.1,0,1.3,0.1,1.7,0.2c1.5,0.4,3.1,1.3,2.5,2.4c-0.7,1-2.2,0.1-3.3-1
			c-0.3-0.3-1-1.2-1-1.3c0,0.1,0.5,1.2,0.6,1.6c0.4,1.5,0.4,3.3-0.8,3.4c-1.2-0.2-1.2-1.9-0.8-3.4c0.1-0.4,0.6-1.5,0.6-1.6
			c-0.1,0.1-0.8,1.1-1,1.3c-1.1,1.1-2.6,2-3.3,1c-0.5-1.1,1.1-2,2.5-2.4c0.4-0.1,1.6-0.2,1.7-0.2H5v3.7L11.3-32.2z"/>
		<polygon points="11.3,-31.8 17.9,-35.7 17.9,-39.5 17.6,-39.5 17.6,-35.8 11.3,-32.2 5,-35.8 5,-39.5 4.7,-39.5 4.7,-35.7 		"/>
		<polygon fill="#FFFFFF" points="11.3,-31.5 18.2,-35.5 18.2,-39.5 17.9,-39.5 17.9,-35.7 11.3,-31.8 4.7,-35.7 4.7,-39.5 
			4.4,-39.5 4.4,-35.5 		"/>
		<polygon points="11.3,-31.2 18.5,-35.3 18.5,-39.5 18.2,-39.5 18.2,-35.5 11.3,-31.5 4.4,-35.5 4.4,-39.5 4.1,-39.5 4.1,-35.3 		
			"/>
		<polygon fill="#FFFFFF" points="11.3,-30.8 18.8,-35.2 18.8,-39.5 18.5,-39.5 18.5,-35.3 11.3,-31.2 4.1,-35.3 4.1,-39.5 
			3.8,-39.5 3.8,-35.2 		"/>
		<polygon points="11.3,-30.5 19.1,-35 19.1,-39.5 18.8,-39.5 18.8,-35.2 11.3,-30.8 3.8,-35.2 3.8,-39.5 3.5,-39.5 3.5,-35 		"/>
		<polygon fill="#FFFFFF" points="11.3,-30.1 19.4,-34.8 19.4,-39.5 19.1,-39.5 19.1,-35 11.3,-30.5 3.5,-35 3.5,-39.5 3.2,-39.5 
			3.2,-34.8 		"/>
		<polygon points="11.3,-29.8 19.7,-34.6 19.7,-39.5 19.4,-39.5 19.4,-34.8 11.3,-30.1 3.2,-34.8 3.2,-39.5 2.9,-39.5 2.9,-34.6 		
			"/>
		<polygon fill="#FFFFFF" points="11.3,-29.4 20,-34.5 20,-39.5 19.7,-39.5 19.7,-34.6 11.3,-29.8 2.9,-34.6 2.9,-39.5 2.6,-39.5 
			2.6,-34.5 		"/>
		<polygon points="11.3,-29.1 20.3,-34.3 20.3,-39.5 20,-39.5 20,-34.5 11.3,-29.4 2.6,-34.5 2.6,-39.5 2.3,-39.5 2.3,-34.3 		"/>
		<polygon fill="#FFFFFF" points="11.3,-28.7 20.6,-34.1 20.6,-39.5 20.3,-39.5 20.3,-34.3 11.3,-29.1 2.3,-34.3 2.3,-39.5 2,-39.5 
			2,-34.1 		"/>
		<polygon points="11.3,-28.4 20.9,-33.9 20.9,-39.5 20.6,-39.5 20.6,-34.1 11.3,-28.7 2,-34.1 2,-39.5 1.7,-39.5 1.7,-33.9 		"/>
		<polygon fill="#FFFFFF" points="11.3,-28 21.2,-33.8 21.2,-39.5 20.9,-39.5 20.9,-33.9 11.3,-28.4 1.7,-33.9 1.7,-39.5 1.4,-39.5 
			1.4,-33.8 		"/>
		<polygon points="11.3,-27.7 21.5,-33.6 21.5,-39.5 21.2,-39.5 21.2,-33.8 11.3,-28 1.4,-33.8 1.4,-39.5 1.1,-39.5 1.1,-33.6 		"/>
		<polygon fill="#FFFFFF" points="11.3,-27.3 21.8,-33.4 21.8,-39.5 21.5,-39.5 21.5,-33.6 11.3,-27.7 1.1,-33.6 1.1,-39.5 
			0.8,-39.5 0.8,-33.4 		"/>
		<polygon points="11.3,-27 22.1,-33.2 22.1,-39.5 21.8,-39.5 21.8,-33.4 11.3,-27.3 0.8,-33.4 0.8,-39.5 0.5,-39.5 0.5,-33.2 		"/>
		<path d="M6.8-36.9c0.7,1,2.2,0.1,3.3-1c0.3-0.3,1-1.2,1-1.3c0,0.1-0.5,1.2-0.6,1.6c-0.4,1.5-0.4,3.3,0.8,3.4
			c1.2-0.2,1.2-1.9,0.8-3.4c-0.1-0.4-0.6-1.5-0.6-1.6c0.1,0.1,0.8,1.1,1,1.3c1.1,1.1,2.6,2,3.3,1c0.5-1.1-1.1-2-2.5-2.4
			c-0.4-0.1-1.6-0.2-1.7-0.2H11c-0.1,0-1.3,0.1-1.7,0.2C7.9-38.8,6.3-38,6.8-36.9z"/>
		<path fill="#FFFFFF" d="M34-32.2l6.3-3.7v-3.7h-6c0.1,0,1.3,0.1,1.7,0.2c1.5,0.4,3.1,1.3,2.5,2.4c-0.7,1-2.2,0.1-3.3-1
			c-0.3-0.3-1-1.2-1-1.3c0,0.1,0.5,1.2,0.6,1.6c0.4,1.5,0.4,3.3-0.8,3.4c-1.2-0.2-1.2-1.9-0.8-3.4c0.1-0.4,0.6-1.5,0.6-1.6
			c-0.1,0.1-0.8,1.1-1,1.3c-1.1,1.1-2.6,2-3.3,1c-0.5-1.1,1.1-2,2.5-2.4c0.4-0.1,1.6-0.2,1.7-0.2h-6v3.7L34-32.2z"/>
		<polygon points="34,-31.8 40.6,-35.7 40.6,-39.5 40.3,-39.5 40.3,-35.8 34,-32.2 27.6,-35.8 27.6,-39.5 27.3,-39.5 27.3,-35.7 		
			"/>
		<polygon fill="#FFFFFF" points="34,-31.5 40.9,-35.5 40.9,-39.5 40.6,-39.5 40.6,-35.7 34,-31.8 27.3,-35.7 27.3,-39.5 27,-39.5 
			27,-35.5 		"/>
		<polygon points="34,-31.2 41.2,-35.3 41.2,-39.5 40.9,-39.5 40.9,-35.5 34,-31.5 27,-35.5 27,-39.5 26.7,-39.5 26.7,-35.3 		"/>
		<polygon fill="#FFFFFF" points="34,-30.8 41.5,-35.2 41.5,-39.5 41.2,-39.5 41.2,-35.3 34,-31.2 26.7,-35.3 26.7,-39.5 
			26.4,-39.5 26.4,-35.2 		"/>
		<polygon points="34,-30.5 41.8,-35 41.8,-39.5 41.5,-39.5 41.5,-35.2 34,-30.8 26.4,-35.2 26.4,-39.5 26.1,-39.5 26.1,-35 		"/>
		<polygon fill="#FFFFFF" points="34,-30.1 42.1,-34.8 42.1,-39.5 41.8,-39.5 41.8,-35 34,-30.5 26.1,-35 26.1,-39.5 25.8,-39.5 
			25.8,-34.8 		"/>
		<polygon points="34,-29.8 42.4,-34.6 42.4,-39.5 42.1,-39.5 42.1,-34.8 34,-30.1 25.8,-34.8 25.8,-39.5 25.5,-39.5 25.5,-34.6 		
			"/>
		<polygon fill="#FFFFFF" points="34,-29.4 42.7,-34.5 42.7,-39.5 42.4,-39.5 42.4,-34.6 34,-29.8 25.5,-34.6 25.5,-39.5 
			25.2,-39.5 25.2,-34.5 		"/>
		<polygon points="34,-29.1 43,-34.3 43,-39.5 42.7,-39.5 42.7,-34.5 34,-29.4 25.2,-34.5 25.2,-39.5 24.9,-39.5 24.9,-34.3 		"/>
		<polygon fill="#FFFFFF" points="34,-28.7 43.3,-34.1 43.3,-39.5 43,-39.5 43,-34.3 34,-29.1 24.9,-34.3 24.9,-39.5 24.6,-39.5 
			24.6,-34.1 		"/>
		<polygon points="34,-28.4 43.6,-33.9 43.6,-39.5 43.3,-39.5 43.3,-34.1 34,-28.7 24.6,-34.1 24.6,-39.5 24.3,-39.5 24.3,-33.9 		
			"/>
		<polygon fill="#FFFFFF" points="34,-28 43.9,-33.8 43.9,-39.5 43.6,-39.5 43.6,-33.9 34,-28.4 24.3,-33.9 24.3,-39.5 24,-39.5 
			24,-33.8 		"/>
		<polygon points="34,-27.7 44.2,-33.6 44.2,-39.5 43.9,-39.5 43.9,-33.8 34,-28 24,-33.8 24,-39.5 23.7,-39.5 23.7,-33.6 		"/>
		<polygon fill="#FFFFFF" points="34,-27.3 44.5,-33.4 44.5,-39.5 44.2,-39.5 44.2,-33.6 34,-27.7 23.7,-33.6 23.7,-39.5 
			23.4,-39.5 23.4,-33.4 		"/>
		<polygon points="34,-27 44.8,-33.2 44.8,-39.5 44.5,-39.5 44.5,-33.4 34,-27.3 23.4,-33.4 23.4,-39.5 23.1,-39.5 23.1,-33.2 		"/>
		<path d="M29.4-36.9c0.7,1,2.2,0.1,3.3-1c0.3-0.3,1-1.2,1-1.3c0,0.1-0.5,1.2-0.6,1.6c-0.4,1.5-0.4,3.3,0.8,3.4
			c1.2-0.2,1.2-1.9,0.8-3.4c-0.1-0.4-0.6-1.5-0.6-1.6c0.1,0.1,0.8,1.1,1,1.3c1.1,1.1,2.6,2,3.3,1c0.5-1.1-1.1-2-2.5-2.4
			c-0.4-0.1-1.6-0.2-1.7-0.2h-0.7c-0.1,0-1.3,0.1-1.7,0.2C30.5-38.8,28.9-38,29.4-36.9z"/>
		<path fill="#FFFFFF" d="M6.3-23.4L0-27.1v2c1.2,0.2,1.2,1.9,0.8,3.4c-0.1,0.4-0.6,1.5-0.6,1.6c0.1-0.1,0.8-1.1,1-1.3
			c1.1-1.1,2.6-2,3.3-1c0.5,1.1-1.1,2-2.5,2.4c-0.4,0.1-1.6,0.2-1.7,0.2c0.1,0,1.3,0.1,1.7,0.2c1.5,0.4,3.1,1.3,2.5,2.4
			c-0.7,1-2.2,0.1-3.3-1c-0.3-0.3-1-1.2-1-1.3c0,0.1,0.5,1.2,0.6,1.6c0.4,1.5,0.4,3.3-0.8,3.4v2l6.3-3.7V-23.4z"/>
		<polygon points="6.6,-23.6 0,-27.4 0,-27.1 6.3,-23.4 6.3,-16.1 0,-12.4 0,-12.1 6.6,-15.9 		"/>
		<polygon fill="#FFFFFF" points="6.9,-23.7 0,-27.7 0,-27.4 6.6,-23.6 6.6,-15.9 0,-12.1 0,-11.8 6.9,-15.8 		"/>
		<polygon points="7.2,-23.9 0,-28.1 0,-27.7 6.9,-23.7 6.9,-15.8 0,-11.8 0,-11.4 7.2,-15.6 		"/>
		<polygon fill="#FFFFFF" points="7.5,-24.1 0,-28.4 0,-28.1 7.2,-23.9 7.2,-15.6 0,-11.4 0,-11.1 7.5,-15.4 		"/>
		<polygon points="7.8,-24.3 0,-28.8 0,-28.4 7.5,-24.1 7.5,-15.4 0,-11.1 0,-10.7 7.8,-15.2 		"/>
		<polygon fill="#FFFFFF" points="8.1,-24.4 0,-29.1 0,-28.8 7.8,-24.3 7.8,-15.2 0,-10.7 0,-10.4 8.1,-15.1 		"/>
		<polygon points="8.4,-24.6 0,-29.5 0,-29.1 8.1,-24.4 8.1,-15.1 0,-10.4 0,-10 8.4,-14.9 		"/>
		<polygon fill="#FFFFFF" points="8.7,-24.8 0,-29.8 0,-29.5 8.4,-24.6 8.4,-14.9 0,-10 0,-9.7 8.7,-14.7 		"/>
		<polygon points="9,-25 0,-30.2 0,-29.8 8.7,-24.8 8.7,-14.7 0,-9.7 0,-9.3 9,-14.5 		"/>
		<polygon fill="#FFFFFF" points="9.3,-25.1 0,-30.5 0,-30.2 9,-25 9,-14.5 0,-9.3 0,-9 9.3,-14.4 		"/>
		<polygon points="9.6,-25.3 0,-30.9 0,-30.5 9.3,-25.1 9.3,-14.4 0,-9 0,-8.6 9.6,-14.2 		"/>
		<polygon fill="#FFFFFF" points="9.9,-25.5 0,-31.2 0,-30.9 9.6,-25.3 9.6,-14.2 0,-8.6 0,-8.3 9.9,-14 		"/>
		<polygon points="10.2,-25.7 0,-31.6 0,-31.2 9.9,-25.5 9.9,-14 0,-8.3 0,-7.9 10.2,-13.8 		"/>
		<polygon fill="#FFFFFF" points="10.5,-25.8 0,-31.9 0,-31.6 10.2,-25.7 10.2,-13.8 0,-7.9 0,-7.6 10.5,-13.7 		"/>
		<polygon points="10.8,-26 0,-32.2 0,-31.9 10.5,-25.8 10.5,-13.7 0,-7.6 0,-7.2 10.8,-13.5 		"/>
		<path d="M0.8-17.9c-0.1-0.4-0.6-1.5-0.6-1.6c0.1,0.1,0.8,1.1,1,1.3c1.1,1.1,2.6,2,3.3,1c0.5-1.1-1.1-2-2.5-2.4
			c-0.4-0.1-1.6-0.2-1.7-0.2c0.1,0,1.3-0.1,1.7-0.2c1.5-0.4,3.1-1.3,2.5-2.4c-0.7-1-2.2-0.1-3.3,1c-0.3,0.3-1,1.2-1,1.3
			c0-0.1,0.5-1.2,0.6-1.6C1.2-23.1,1.2-24.9,0-25v10.5C1.2-14.6,1.2-16.4,0.8-17.9z"/>
		<path fill="#FFFFFF" d="M22.6-27.1l6.3,3.7v7.3l-6.3,3.7l-6.3-3.7v-7.3L22.6-27.1z M22.6-25c-1.2,0.2-1.2,1.9-0.8,3.4
			c0.1,0.4,0.6,1.5,0.6,1.6c-0.1-0.1-0.8-1.1-1-1.3c-1.1-1.1-2.6-2-3.3-1c-0.5,1.1,1.1,2,2.5,2.4c0.4,0.1,1.6,0.2,1.7,0.2
			c-0.1,0-1.3,0.1-1.7,0.2c-1.5,0.4-3.1,1.3-2.5,2.4c0.7,1,2.2,0.1,3.3-1c0.3-0.3,1-1.2,1-1.3c0,0.1-0.5,1.2-0.6,1.6
			c-0.4,1.5-0.4,3.3,0.8,3.4c1.2-0.2,1.2-1.9,0.8-3.4c-0.1-0.4-0.6-1.5-0.6-1.6c0.1,0.1,0.8,1.1,1,1.3c1.1,1.1,2.6,2,3.3,1
			c0.5-1.1-1.1-2-2.5-2.4c-0.4-0.1-1.6-0.2-1.7-0.2c0.1,0,1.3-0.1,1.7-0.2c1.5-0.4,3.1-1.3,2.5-2.4c-0.7-1-2.2-0.1-3.3,1
			c-0.3,0.3-1,1.2-1,1.3c0-0.1,0.5-1.2,0.6-1.6C23.8-23.1,23.9-24.9,22.6-25z"/>
		<path d="M22.6-27.4l6.6,3.8v7.6l-6.6,3.8L16-15.9v-7.6L22.6-27.4z M29-23.4l-6.3-3.7l-6.3,3.7v7.3l6.3,3.7l6.3-3.7V-23.4z"/>
		<path fill="#FFFFFF" d="M22.6-27.7l6.9,4v8l-6.9,4l-6.9-4v-8L22.6-27.7z M29.3-23.6l-6.6-3.8L16-23.6v7.6l6.6,3.8l6.6-3.8V-23.6z"
			/>
		<path d="M22.6-28.1l7.2,4.2v8.3l-7.2,4.2l-7.2-4.2v-8.3L22.6-28.1z M29.6-23.7l-6.9-4l-6.9,4v8l6.9,4l6.9-4V-23.7z"/>
		<path fill="#FFFFFF" d="M22.6-28.4l7.5,4.3v8.7l-7.5,4.3l-7.5-4.3v-8.7L22.6-28.4z M29.9-23.9l-7.2-4.2l-7.2,4.2v8.3l7.2,4.2
			l7.2-4.2V-23.9z"/>
		<path d="M22.6-28.8l7.8,4.5v9l-7.8,4.5l-7.8-4.5v-9L22.6-28.8z M30.2-24.1l-7.5-4.3l-7.5,4.3v8.7l7.5,4.3l7.5-4.3V-24.1z"/>
		<path fill="#FFFFFF" d="M22.6-29.1l8.1,4.7v9.4l-8.1,4.7l-8.1-4.7v-9.4L22.6-29.1z M30.5-24.3l-7.8-4.5l-7.8,4.5v9l7.8,4.5
			l7.8-4.5V-24.3z"/>
		<path d="M22.6-29.5l8.4,4.9v9.7L22.6-10l-8.4-4.9v-9.7L22.6-29.5z M30.8-24.4l-8.1-4.7l-8.1,4.7v9.4l8.1,4.7l8.1-4.7V-24.4z"/>
		<path fill="#FFFFFF" d="M22.6-29.8l8.7,5v10.1l-8.7,5l-8.7-5v-10.1L22.6-29.8z M31.1-24.6l-8.4-4.9l-8.4,4.9v9.7l8.4,4.9l8.4-4.9
			V-24.6z"/>
		<path d="M22.6-30.2l9,5.2v10.4l-9,5.2l-9-5.2V-25L22.6-30.2z M31.4-24.8l-8.7-5l-8.7,5v10.1l8.7,5l8.7-5V-24.8z"/>
		<path fill="#FFFFFF" d="M22.6-30.5l9.3,5.4v10.8L22.6-9l-9.3-5.4v-10.8L22.6-30.5z M31.7-25l-9-5.2l-9,5.2v10.4l9,5.2l9-5.2V-25z"
			/>
		<path d="M22.6-30.9l9.6,5.6v11.1l-9.6,5.6L13-14.2v-11.1L22.6-30.9z M32-25.1l-9.3-5.4l-9.3,5.4v10.8L22.6-9l9.3-5.4V-25.1z"/>
		<path fill="#FFFFFF" d="M22.6-31.2l9.9,5.7V-14l-9.9,5.7L12.7-14v-11.5L22.6-31.2z M32.3-25.3l-9.6-5.6L13-25.3v11.1l9.6,5.6
			l9.6-5.6V-25.3z"/>
		<path d="M22.6-31.6l10.2,5.9v11.8L22.6-7.9l-10.2-5.9v-11.8L22.6-31.6z M32.6-25.5l-9.9-5.7l-9.9,5.7V-14l9.9,5.7l9.9-5.7V-25.5z"
			/>
		<path fill="#FFFFFF" d="M22.6-31.9l10.5,6.1v12.2L22.6-7.6l-10.5-6.1v-12.2L22.6-31.9z M32.9-25.7l-10.2-5.9l-10.2,5.9v11.8
			l10.2,5.9l10.2-5.9V-25.7z"/>
		<path d="M22.6-32.2L33.5-26v12.5L22.6-7.2l-10.8-6.2V-26L22.6-32.2z M33.2-25.8l-10.5-6.1l-10.5,6.1v12.2l10.5,6.1l10.5-6.1V-25.8
			z"/>
		<path d="M21.9-21.6c0.1,0.4,0.6,1.5,0.6,1.6c-0.1-0.1-0.8-1.1-1-1.3c-1.1-1.1-2.6-2-3.3-1c-0.5,1.1,1.1,2,2.5,2.4
			c0.4,0.1,1.6,0.2,1.7,0.2c-0.1,0-1.3,0.1-1.7,0.2c-1.5,0.4-3.1,1.3-2.5,2.4c0.7,1,2.2,0.1,3.3-1c0.3-0.3,1-1.2,1-1.3
			c0,0.1-0.5,1.2-0.6,1.6c-0.4,1.5-0.4,3.3,0.8,3.4c1.2-0.2,1.2-1.9,0.8-3.4c-0.1-0.4-0.6-1.5-0.6-1.6c0.1,0.1,0.8,1.1,1,1.3
			c1.1,1.1,2.6,2,3.3,1c0.5-1.1-1.1-2-2.5-2.4c-0.4-0.1-1.6-0.2-1.7-0.2c0.1,0,1.3-0.1,1.7-0.2c1.5-0.4,3.1-1.3,2.5-2.4
			c-0.7-1-2.2-0.1-3.3,1c-0.3,0.3-1,1.2-1,1.3c0-0.1,0.5-1.2,0.6-1.6c0.4-1.5,0.4-3.3-0.8-3.4C21.4-24.9,21.5-23.1,21.9-21.6z"/>
		<path fill="#FFFFFF" d="M39-16.1l6.3,3.7v-2c-1.2-0.2-1.2-1.9-0.8-3.4c0.1-0.4,0.6-1.5,0.6-1.6c-0.1,0.1-0.8,1.1-1,1.3
			c-1.1,1.1-2.6,2-3.3,1c-0.5-1.1,1.1-2,2.5-2.4c0.4-0.1,1.6-0.2,1.7-0.2c-0.1,0-1.3-0.1-1.7-0.2c-1.5-0.4-3.1-1.3-2.5-2.4
			c0.7-1,2.2-0.1,3.3,1c0.3,0.3,1,1.2,1,1.3c0-0.1-0.5-1.2-0.6-1.6c-0.4-1.5-0.4-3.3,0.8-3.4v-2L39-23.4V-16.1z"/>
		<polygon points="38.7,-15.9 45.3,-12.1 45.3,-12.4 39,-16.1 39,-23.4 45.3,-27.1 45.3,-27.4 38.7,-23.6 		"/>
		<polygon fill="#FFFFFF" points="38.4,-15.8 45.3,-11.8 45.3,-12.1 38.7,-15.9 38.7,-23.6 45.3,-27.4 45.3,-27.7 38.4,-23.7 		"/>
		<polygon points="38.1,-15.6 45.3,-11.4 45.3,-11.8 38.4,-15.8 38.4,-23.7 45.3,-27.7 45.3,-28.1 38.1,-23.9 		"/>
		<polygon fill="#FFFFFF" points="37.8,-15.4 45.3,-11.1 45.3,-11.4 38.1,-15.6 38.1,-23.9 45.3,-28.1 45.3,-28.4 37.8,-24.1 		"/>
		<polygon points="37.5,-15.2 45.3,-10.7 45.3,-11.1 37.8,-15.4 37.8,-24.1 45.3,-28.4 45.3,-28.8 37.5,-24.3 		"/>
		<polygon fill="#FFFFFF" points="37.2,-15.1 45.3,-10.4 45.3,-10.7 37.5,-15.2 37.5,-24.3 45.3,-28.8 45.3,-29.1 37.2,-24.4 		"/>
		<polygon points="36.9,-14.9 45.3,-10 45.3,-10.4 37.2,-15.1 37.2,-24.4 45.3,-29.1 45.3,-29.5 36.9,-24.6 		"/>
		<polygon fill="#FFFFFF" points="36.6,-14.7 45.3,-9.7 45.3,-10 36.9,-14.9 36.9,-24.6 45.3,-29.5 45.3,-29.8 36.6,-24.8 		"/>
		<polygon points="36.3,-14.5 45.3,-9.3 45.3,-9.7 36.6,-14.7 36.6,-24.8 45.3,-29.8 45.3,-30.2 36.3,-25 		"/>
		<polygon fill="#FFFFFF" points="36,-14.4 45.3,-9 45.3,-9.3 36.3,-14.5 36.3,-25 45.3,-30.2 45.3,-30.5 36,-25.1 		"/>
		<polygon points="35.7,-14.2 45.3,-8.6 45.3,-9 36,-14.4 36,-25.1 45.3,-30.5 45.3,-30.9 35.7,-25.3 		"/>
		<polygon fill="#FFFFFF" points="35.4,-14 45.3,-8.3 45.3,-8.6 35.7,-14.2 35.7,-25.3 45.3,-30.9 45.3,-31.2 35.4,-25.5 		"/>
		<polygon points="35.1,-13.8 45.3,-7.9 45.3,-8.3 35.4,-14 35.4,-25.5 45.3,-31.2 45.3,-31.6 35.1,-25.7 		"/>
		<polygon fill="#FFFFFF" points="34.8,-13.7 45.3,-7.6 45.3,-7.9 35.1,-13.8 35.1,-25.7 45.3,-31.6 45.3,-31.9 34.8,-25.8 		"/>
		<polygon points="34.8,-13.7 34.8,-25.8 45.3,-31.9 45.3,-32.2 34.5,-26 34.5,-13.5 45.3,-7.2 45.3,-7.6 		"/>
		<path d="M44.5-21.6c0.1,0.4,0.6,1.5,0.6,1.6c-0.1-0.1-0.8-1.1-1-1.3c-1.1-1.1-2.6-2-3.3-1c-0.5,1.1,1.1,2,2.5,2.4
			c0.4,0.1,1.6,0.2,1.7,0.2c-0.1,0-1.3,0.1-1.7,0.2c-1.5,0.4-3.1,1.3-2.5,2.4c0.7,1,2.2,0.1,3.3-1c0.3-0.3,1-1.2,1-1.3
			c0,0.1-0.5,1.2-0.6,1.6c-0.4,1.5-0.4,3.3,0.8,3.4V-25C44.1-24.9,44.1-23.1,44.5-21.6z"/>
		<path fill="#FFFFFF" d="M11.3-7.3L5-3.7V0h6c-0.1,0-1.3-0.1-1.7-0.2C7.9-0.7,6.3-1.5,6.8-2.6c0.7-1,2.2-0.1,3.3,1
			c0.3,0.3,1,1.2,1,1.3c0-0.1-0.5-1.2-0.6-1.6c-0.4-1.5-0.4-3.3,0.8-3.4c1.2,0.2,1.2,1.9,0.8,3.4c-0.1,0.4-0.6,1.5-0.6,1.6
			c0.1-0.1,0.8-1.1,1-1.3c1.1-1.1,2.6-2,3.3-1c0.5,1.1-1.1,2-2.5,2.4C13-0.1,11.8,0,11.7,0h6v-3.7L11.3-7.3z"/>
		<polygon points="11.3,-7.7 4.7,-3.8 4.7,0 5,0 5,-3.7 11.3,-7.3 17.6,-3.7 17.6,0 17.9,0 17.9,-3.8 		"/>
		<polygon fill="#FFFFFF" points="11.3,-8 4.4,-4 4.4,0 4.7,0 4.7,-3.8 11.3,-7.7 17.9,-3.8 17.9,0 18.2,0 18.2,-4 		"/>
		<polygon points="11.3,-8.3 4.1,-4.2 4.1,0 4.4,0 4.4,-4 11.3,-8 18.2,-4 18.2,0 18.5,0 18.5,-4.2 		"/>
		<polygon fill="#FFFFFF" points="11.3,-8.7 3.8,-4.3 3.8,0 4.1,0 4.1,-4.2 11.3,-8.3 18.5,-4.2 18.5,0 18.8,0 18.8,-4.3 		"/>
		<polygon points="11.3,-9 3.5,-4.5 3.5,0 3.8,0 3.8,-4.3 11.3,-8.7 18.8,-4.3 18.8,0 19.1,0 19.1,-4.5 		"/>
		<polygon fill="#FFFFFF" points="11.3,-9.4 3.2,-4.7 3.2,0 3.5,0 3.5,-4.5 11.3,-9 19.1,-4.5 19.1,0 19.4,0 19.4,-4.7 		"/>
		<polygon points="11.3,-9.7 2.9,-4.9 2.9,0 3.2,0 3.2,-4.7 11.3,-9.4 19.4,-4.7 19.4,0 19.7,0 19.7,-4.9 		"/>
		<polygon fill="#FFFFFF" points="11.3,-10.1 2.6,-5 2.6,0 2.9,0 2.9,-4.9 11.3,-9.7 19.7,-4.9 19.7,0 20,0 20,-5 		"/>
		<polygon points="11.3,-10.4 2.3,-5.2 2.3,0 2.6,0 2.6,-5 11.3,-10.1 20,-5 20,0 20.3,0 20.3,-5.2 		"/>
		<polygon fill="#FFFFFF" points="11.3,-10.8 2,-5.4 2,0 2.3,0 2.3,-5.2 11.3,-10.4 20.3,-5.2 20.3,0 20.6,0 20.6,-5.4 		"/>
		<polygon points="11.3,-11.1 1.7,-5.6 1.7,0 2,0 2,-5.4 11.3,-10.8 20.6,-5.4 20.6,0 20.9,0 20.9,-5.6 		"/>
		<polygon fill="#FFFFFF" points="11.3,-11.5 1.4,-5.7 1.4,0 1.7,0 1.7,-5.6 11.3,-11.1 20.9,-5.6 20.9,0 21.2,0 21.2,-5.7 		"/>
		<polygon points="11.3,-11.8 1.1,-5.9 1.1,0 1.4,0 1.4,-5.7 11.3,-11.5 21.2,-5.7 21.2,0 21.5,0 21.5,-5.9 		"/>
		<polygon fill="#FFFFFF" points="11.3,-12.2 0.8,-6.1 0.8,0 1.1,0 1.1,-5.9 11.3,-11.8 21.5,-5.9 21.5,0 21.8,0 21.8,-6.1 		"/>
		<polygon points="11.3,-12.5 0.5,-6.2 0.5,0 0.8,0 0.8,-6.1 11.3,-12.2 21.8,-6.1 21.8,0 22.1,0 22.1,-6.2 		"/>
		<path d="M15.9-2.6c-0.7-1-2.2-0.1-3.3,1c-0.3,0.3-1,1.2-1,1.3c0-0.1,0.5-1.2,0.6-1.6c0.4-1.5,0.4-3.3-0.8-3.4
			c-1.2,0.2-1.2,1.9-0.8,3.4c0.1,0.4,0.6,1.5,0.6,1.6c-0.1-0.1-0.8-1.1-1-1.3c-1.1-1.1-2.6-2-3.3-1c-0.5,1.1,1.1,2,2.5,2.4
			C9.7-0.1,10.9,0,11,0h0.7c0.1,0,1.3-0.1,1.7-0.2C14.8-0.7,16.4-1.5,15.9-2.6z"/>
		<path fill="#FFFFFF" d="M34-7.3l-6.3,3.7V0h6c-0.1,0-1.3-0.1-1.7-0.2c-1.5-0.4-3.1-1.3-2.5-2.4c0.7-1,2.2-0.1,3.3,1
			c0.3,0.3,1,1.2,1,1.3c0-0.1-0.5-1.2-0.6-1.6c-0.4-1.5-0.4-3.3,0.8-3.4c1.2,0.2,1.2,1.9,0.8,3.4c-0.1,0.4-0.6,1.5-0.6,1.6
			c0.1-0.1,0.8-1.1,1-1.3c1.1-1.1,2.6-2,3.3-1c0.5,1.1-1.1,2-2.5,2.4C35.6-0.1,34.4,0,34.3,0h6v-3.7L34-7.3z"/>
		<polygon points="34,-7.7 27.3,-3.8 27.3,0 27.6,0 27.6,-3.7 34,-7.3 40.3,-3.7 40.3,0 40.6,0 40.6,-3.8 		"/>
		<polygon fill="#FFFFFF" points="34,-8 27,-4 27,0 27.3,0 27.3,-3.8 34,-7.7 40.6,-3.8 40.6,0 40.9,0 40.9,-4 		"/>
		<polygon points="34,-8.3 26.7,-4.2 26.7,0 27,0 27,-4 34,-8 40.9,-4 40.9,0 41.2,0 41.2,-4.2 		"/>
		<polygon fill="#FFFFFF" points="34,-8.7 26.4,-4.3 26.4,0 26.7,0 26.7,-4.2 34,-8.3 41.2,-4.2 41.2,0 41.5,0 41.5,-4.3 		"/>
		<polygon points="34,-9 26.1,-4.5 26.1,0 26.4,0 26.4,-4.3 34,-8.7 41.5,-4.3 41.5,0 41.8,0 41.8,-4.5 		"/>
		<polygon fill="#FFFFFF" points="34,-9.4 25.8,-4.7 25.8,0 26.1,0 26.1,-4.5 34,-9 41.8,-4.5 41.8,0 42.1,0 42.1,-4.7 		"/>
		<polygon points="34,-9.7 25.5,-4.9 25.5,0 25.8,0 25.8,-4.7 34,-9.4 42.1,-4.7 42.1,0 42.4,0 42.4,-4.9 		"/>
		<polygon fill="#FFFFFF" points="34,-10.1 25.2,-5 25.2,0 25.5,0 25.5,-4.9 34,-9.7 42.4,-4.9 42.4,0 42.7,0 42.7,-5 		"/>
		<polygon points="34,-10.4 24.9,-5.2 24.9,0 25.2,0 25.2,-5 34,-10.1 42.7,-5 42.7,0 43,0 43,-5.2 		"/>
		<polygon fill="#FFFFFF" points="34,-10.8 24.6,-5.4 24.6,0 24.9,0 24.9,-5.2 34,-10.4 43,-5.2 43,0 43.3,0 43.3,-5.4 		"/>
		<polygon points="34,-11.1 24.3,-5.6 24.3,0 24.6,0 24.6,-5.4 34,-10.8 43.3,-5.4 43.3,0 43.6,0 43.6,-5.6 		"/>
		<polygon fill="#FFFFFF" points="34,-11.5 24,-5.7 24,0 24.3,0 24.3,-5.6 34,-11.1 43.6,-5.6 43.6,0 43.9,0 43.9,-5.7 		"/>
		<polygon points="34,-11.8 23.7,-5.9 23.7,0 24,0 24,-5.7 34,-11.5 43.9,-5.7 43.9,0 44.2,0 44.2,-5.9 		"/>
		<polygon fill="#FFFFFF" points="34,-12.2 23.4,-6.1 23.4,0 23.7,0 23.7,-5.9 34,-11.8 44.2,-5.9 44.2,0 44.5,0 44.5,-6.1 		"/>
		<polygon points="34,-12.5 23.1,-6.2 23.1,0 23.4,0 23.4,-6.1 34,-12.2 44.5,-6.1 44.5,0 44.8,0 44.8,-6.2 		"/>
		<path d="M38.5-2.6c-0.7-1-2.2-0.1-3.3,1c-0.3,0.3-1,1.2-1,1.3c0-0.1,0.5-1.2,0.6-1.6c0.4-1.5,0.4-3.3-0.8-3.4
			c-1.2,0.2-1.2,1.9-0.8,3.4c0.1,0.4,0.6,1.5,0.6,1.6c-0.1-0.1-0.8-1.1-1-1.3c-1.1-1.1-2.6-2-3.3-1c-0.5,1.1,1.1,2,2.5,2.4
			C32.3-0.1,33.5,0,33.6,0h0.7c0.1,0,1.3-0.1,1.7-0.2C37.4-0.7,39-1.5,38.5-2.6z"/>
	</g>
</pattern>
<g id="footer">
</g>
<g id="content">
	<g id="tmp-mg-img_2_" display="none">
		<rect x="35" y="-995.9" display="inline" opacity="0.15" fill="#A8A8A8" width="460" height="1527.6"/>
	</g>
	<g id="tmp-mg-img_1_" display="none">
		<rect x="-466.7" y="-996.2" display="inline" opacity="0.15" fill="#A8A8A8" width="467" height="1529"/>
	</g>
	<g>
		<rect x="-11.3" y="-1.8" fill="#150037" width="1024" height="190.5"/>
		<pattern  id="SVGID_1_" xlink:href="#hexagon1" patternTransform="matrix(1 0 0 1 32.9074 -18.875)">
		</pattern>
		<rect x="-11.3" y="-1.8" opacity="6.000000e-02" fill="url(#SVGID_1_)" width="1024" height="190.5"/>
	</g>
</g>
<g id="browser">
</g>
<g id="content_needs" display="none">
	<rect x="-3413.8" y="-2411.4" display="inline" opacity="0.49" width="4419.8" height="3653.7"/>
</g>
</svg>
