<?xml version="1.0" encoding="utf-8"?>
<!-- Generator: Adobe Illustrator 18.0.0, SVG Export Plug-In . SVG Version: 6.00 Build 0)  -->
<!DOCTYPE svg PUBLIC "-//W3C//DTD SVG 1.1//EN" "http://www.w3.org/Graphics/SVG/1.1/DTD/svg11.dtd">
<svg version="1.1" id="Layer_1" xmlns="http://www.w3.org/2000/svg" xmlns:xlink="http://www.w3.org/1999/xlink" x="0px" y="0px"
	 viewBox="0 0 14 29" enable-background="new 0 0 14 29" xml:space="preserve">
<symbol  id="radio-checked" viewBox="-7 -7 14 14">
	<path fill="#FFFFFF" d="M-6.5,0c0,3.6,2.9,6.5,6.5,6.5S6.5,3.6,6.5,0S3.6-6.5,0-6.5S-6.5-3.6-6.5,0z"/>
	<path fill="#A9AAAA" d="M0,6.4c3.5,0,6.4-2.9,6.4-6.4S3.5-6.4,0-6.4S-6.4-3.5-6.4,0S-3.5,6.4,0,6.4 M0,7c-3.9,0-7-3.1-7-7
		s3.1-7,7-7s7,3.1,7,7S3.9,7,0,7L0,7z"/>
	<g>
		<path fill="#8430A6" d="M4,0c0-2.2-1.8-4-4-4s-4,1.8-4,4s1.8,4,4,4S4,2.2,4,0z"/>
	</g>
</symbol>
<symbol  id="radio-unchecked" viewBox="-7 -7 14 14">
	<path fill="#FFFFFF" d="M-6.5,0c0,3.6,2.9,6.5,6.5,6.5S6.5,3.6,6.5,0S3.6-6.5,0-6.5S-6.5-3.6-6.5,0z"/>
	<path fill="#A9AAAA" d="M0,6.4c3.5,0,6.4-2.9,6.4-6.4S3.5-6.4,0-6.4S-6.4-3.5-6.4,0S-3.5,6.4,0,6.4 M0,7c-3.9,0-7-3.1-7-7
		s3.1-7,7-7s7,3.1,7,7S3.9,7,0,7L0,7z"/>
</symbol>
<g id="source" display="none">
	<g id="ojcJUw.tif" display="inline">
	</g>
	<g display="inline">
		<path fill="#A9AAAA" d="M12,1c6.1,0,11,4.9,11,11s-4.9,11-11,11S1,18.1,1,12S5.9,1,12,1 M12,0C5.4,0,0,5.4,0,12s5.4,12,12,12
			s12-5.4,12-12S18.6,0,12,0L12,0z"/>
	</g>
	<g display="inline">
		<path fill="#A9AAAA" d="M12,27c6.1,0,11,4.9,11,11s-4.9,11-11,11S1,44.1,1,38S5.9,27,12,27 M12,26C5.4,26,0,31.4,0,38
			s5.4,12,12,12s12-5.4,12-12S18.6,26,12,26L12,26z"/>
	</g>
	<g display="inline">
		<circle fill="#8430A6" cx="12" cy="38" r="5.1"/>
	</g>
</g>
<g id="ojcJUw.tif_1_" display="none">
</g>
<use xlink:href="#radio-checked"  width="14" height="14" x="-7" y="-7" transform="matrix(1 0 0 -1 7 22)" overflow="visible"/>
<use xlink:href="#radio-unchecked"  width="14" height="14" x="-7" y="-7" transform="matrix(1 0 0 -1 7 7)" overflow="visible"/>
</svg>
