<?xml version="1.0" encoding="utf-8"?>
<!-- Generator: Adobe Illustrator 17.0.0, SVG Export Plug-In . SVG Version: 6.00 Build 0)  -->
<!DOCTYPE svg PUBLIC "-//W3C//DTD SVG 1.1//EN" "http://www.w3.org/Graphics/SVG/1.1/DTD/svg11.dtd">
<svg version="1.1" xmlns="http://www.w3.org/2000/svg" xmlns:xlink="http://www.w3.org/1999/xlink" x="0px" y="0px" width="55px"
	 height="56px" viewBox="0 0 55 56" style="enable-background:new 0 0 55 56;" xml:space="preserve">
<style type="text/css">
	.st0{display:none;}
	.st1{display:inline;}
	.st2{display:none;fill:#CCCCCC;}
	.st3{fill:#A9AAAA;}
	.st4{fill:#D8D8D8;}
	.st5{fill:#AFAFAF;}
	.st6{font-family:'ArialMT';}
	.st7{font-size:12;}
	.st8{fill:#8430A6;}
	.st9{display:inline;fill:#A9AAAA;}
	.st10{fill:#CCCCCC;}
</style>
<g id="source" class="st0">
	<g id="bg" class="st1">
	</g>
	<g id="inner_box" class="st1">
		<rect x="0" class="st2" width="22.083" height="26"/>
		<g>
			<path class="st3" d="M51,1c1.654,0,3,1.346,3,3v18c0,1.654-1.346,3-3,3H4c-1.654,0-3-1.346-3-3V4c0-1.654,1.346-3,3-3H51 M51,0H4
				C1.8,0,0,1.8,0,4v18c0,2.2,1.8,4,4,4h47c2.2,0,4-1.8,4-4V4C55,1.8,53.2,0,51,0L51,0z"/>
		</g>
		<g>
			<path class="st4" d="M21,20c0,1.1-0.9,2-2,2H6c-1.1,0-2-0.9-2-2V6c0-1.1,0.9-2,2-2h13c1.1,0,2,0.9,2,2V20z"/>
		</g>
		<text transform="matrix(1 0 0 1 24.846 17.25)" class="st5 st6 st7">OFF</text>
	</g>
	<g id="bg_copy" class="st1">
	</g>
	<g id="inner_box_copy" class="st1">
		<rect x="0" y="28.473" class="st2" width="22.083" height="26"/>
		<g>
			<path class="st3" d="M51,31c1.654,0,3,1.346,3,3v18c0,1.654-1.346,3-3,3H4c-1.654,0-3-1.346-3-3V34c0-1.654,1.346-3,3-3H51
				 M51,30H4c-2.2,0-4,1.8-4,4v18c0,2.2,1.8,4,4,4h47c2.2,0,4-1.8,4-4V34C55,31.8,53.2,30,51,30L51,30z"/>
		</g>
		<g>
			<path class="st8" d="M51,50c0,1.1-0.9,2-2,2H36c-1.1,0-2-0.9-2-2V36c0-1.1,0.9-2,2-2h13c1.1,0,2,0.9,2,2V50z"/>
		</g>
		<text transform="matrix(1 0 0 1 9.1047 47.25)" class="st8 st6 st7">ON</text>
	</g>
</g>
<g id="output">
	<g id="bg_copy_4_1_">
	</g>
	<g id="inner_box_copy_4_1_">
		<rect x="0" class="st2" width="22.083" height="26"/>
		<path class="st3" d="M51,1c1.654,0,3,1.346,3,3v18c0,1.654-1.346,3-3,3H4c-1.654,0-3-1.346-3-3V4c0-1.654,1.346-3,3-3H51 M51,0H4
			C1.8,0,0,1.8,0,4v18c0,2.2,1.8,4,4,4h47c2.2,0,4-1.8,4-4V4C55,1.8,53.2,0,51,0L51,0z"/>
		<g>
			<path class="st4" d="M21,20c0,1.1-0.9,2-2,2H6c-1.1,0-2-0.9-2-2V6c0-1.1,0.9-2,2-2h13c1.1,0,2,0.9,2,2V20z"/>
		</g>
		<g>
			<path class="st5" d="M25,13.67c0-1.426,0.383-2.542,1.149-3.349c0.766-0.807,1.754-1.21,2.965-1.21
				c0.793,0,1.508,0.189,2.145,0.568s1.121,0.907,1.455,1.585s0.502,1.446,0.502,2.306c0,0.871-0.176,1.65-0.527,2.338
				s-0.85,1.208-1.494,1.562S29.854,18,29.108,18c-0.809,0-1.531-0.195-2.168-0.586s-1.119-0.924-1.448-1.6
				C25.164,15.139,25,14.424,25,13.67z M26.172,13.688c0,1.035,0.277,1.851,0.834,2.446s1.256,0.894,2.096,0.894
				c0.855,0,1.559-0.301,2.111-0.902s0.83-1.455,0.83-2.561c0-0.699-0.119-1.31-0.355-1.831s-0.582-0.926-1.037-1.213
				s-0.965-0.431-1.531-0.431c-0.805,0-1.498,0.276-2.078,0.829S26.172,12.395,26.172,13.688z"/>
			<path class="st5" d="M35.338,17.854v-8.59h5.795v1.014h-4.658v2.66h4.031v1.014h-4.031v3.902H35.338z"/>
			<path class="st5" d="M43.268,17.854v-8.59h5.795v1.014h-4.658v2.66h4.031v1.014h-4.031v3.902H43.268z"/>
		</g>
	</g>
	<g id="bg_copy_4">
	</g>
	<g id="inner_box_copy_4">
		<rect x="0" y="28.473" class="st2" width="22.083" height="26"/>
		<path class="st3" d="M51,31c1.654,0,3,1.346,3,3v18c0,1.654-1.346,3-3,3H4c-1.654,0-3-1.346-3-3V34c0-1.654,1.346-3,3-3H51 M51,30
			H4c-2.2,0-4,1.8-4,4v18c0,2.2,1.8,4,4,4h47c2.2,0,4-1.8,4-4V34C55,31.8,53.2,30,51,30L51,30z"/>
		<g>
			<path class="st8" d="M51,50c0,1.1-0.9,2-2,2H36c-1.1,0-2-0.9-2-2V36c0-1.1,0.9-2,2-2h13c1.1,0,2,0.9,2,2V50z"/>
		</g>
		<g>
			<path class="st8" d="M9,42.67c0-1.426,0.383-2.542,1.149-3.349c0.766-0.807,1.754-1.21,2.965-1.21
				c0.793,0,1.508,0.189,2.145,0.568s1.121,0.907,1.455,1.585s0.502,1.446,0.502,2.306c0,0.871-0.176,1.65-0.527,2.338
				s-0.85,1.208-1.494,1.562S13.854,47,13.108,47c-0.809,0-1.531-0.195-2.168-0.586s-1.119-0.924-1.448-1.6
				C9.164,44.139,9,43.424,9,42.67z M10.172,42.688c0,1.035,0.277,1.851,0.834,2.446s1.256,0.894,2.096,0.894
				c0.855,0,1.559-0.301,2.111-0.902s0.83-1.455,0.83-2.561c0-0.699-0.119-1.31-0.355-1.831s-0.582-0.926-1.037-1.213
				s-0.965-0.431-1.531-0.431c-0.805,0-1.498,0.276-2.078,0.829S10.172,41.395,10.172,42.688z"/>
			<path class="st8" d="M19.268,46.854v-8.59h1.166l4.512,6.744v-6.744h1.09v8.59H24.87l-4.512-6.75v6.75H19.268z"/>
		</g>
	</g>
</g>
<g id="old_output" class="st0">
	<g id="bg_copy_3">
		<path class="st9" d="M51,1c1.654,0,3,1.346,3,3v18c0,1.654-1.346,3-3,3H4c-1.654,0-3-1.346-3-3V4c0-1.654,1.346-3,3-3H51 M51,0H4
			C1.8,0,0,1.8,0,4v18c0,2.2,1.8,4,4,4h47c2.2,0,4-1.8,4-4V4C55,1.8,53.2,0,51,0L51,0z"/>
	</g>
	<g id="inner_box_copy_3">
		<rect x="0" class="st10" width="22.083" height="26"/>
		<g class="st1">
			<path class="st4" d="M20.992,20.598c0,1.1-0.9,2-2,2H5.556c-1.1,0-2-0.9-2-2V5.402c0-1.1,0.9-2,2-2h13.436c1.1,0,2,0.9,2,2
				V20.598z"/>
		</g>
		<g class="st1">
			<path class="st5" d="M25.426,13.066c0-1.426,0.383-2.542,1.149-3.349c0.766-0.807,1.754-1.21,2.965-1.21
				c0.793,0,1.508,0.189,2.145,0.568s1.121,0.907,1.455,1.585s0.502,1.446,0.502,2.306c0,0.871-0.176,1.65-0.527,2.338
				s-0.85,1.208-1.494,1.562s-1.34,0.53-2.086,0.53c-0.809,0-1.531-0.195-2.168-0.586s-1.119-0.924-1.448-1.6
				C25.59,14.535,25.426,13.82,25.426,13.066z M26.599,13.084c0,1.035,0.277,1.851,0.834,2.446s1.256,0.894,2.096,0.894
				c0.855,0,1.559-0.301,2.111-0.902s0.83-1.455,0.83-2.561c0-0.699-0.119-1.31-0.355-1.831s-0.582-0.926-1.037-1.213
				s-0.965-0.431-1.531-0.431c-0.805,0-1.498,0.276-2.078,0.829S26.599,11.791,26.599,13.084z"/>
			<path class="st5" d="M35.765,17.25V8.66h5.795v1.014h-4.658v2.66h4.031v1.014h-4.031v3.902H35.765z"/>
			<path class="st5" d="M43.694,17.25V8.66h5.795v1.014h-4.658v2.66h4.031v1.014h-4.031v3.902H43.694z"/>
		</g>
	</g>
	<g id="bg_copy_2">
		<path class="st9" d="M51,30.973c1.654,0,3,1.346,3,3v18c0,1.654-1.346,3-3,3H4c-1.654,0-3-1.346-3-3v-18c0-1.654,1.346-3,3-3H51
			 M51,29.973H4c-2.2,0-4,1.8-4,4v18c0,2.2,1.8,4,4,4h47c2.2,0,4-1.8,4-4v-18C55,31.773,53.2,29.973,51,29.973L51,29.973z"/>
	</g>
	<g id="inner_box_copy_2">
		<rect x="0" y="28.473" class="st10" width="22.083" height="26"/>
		<g class="st1">
			<path class="st8" d="M51.394,50.571c0,1.1-0.9,2-2,2H35.958c-1.1,0-2-0.9-2-2V35.375c0-1.1,0.9-2,2-2h13.436c1.1,0,2,0.9,2,2
				V50.571z"/>
		</g>
		<g class="st1">
			<path class="st8" d="M9.685,43.04c0-1.426,0.383-2.542,1.149-3.349c0.766-0.807,1.754-1.21,2.965-1.21
				c0.793,0,1.508,0.189,2.145,0.568s1.121,0.907,1.455,1.585S17.9,42.081,17.9,42.94c0,0.871-0.176,1.65-0.527,2.338
				s-0.85,1.208-1.494,1.562s-1.34,0.53-2.086,0.53c-0.809,0-1.531-0.195-2.168-0.586s-1.119-0.924-1.448-1.6
				C9.849,44.508,9.685,43.793,9.685,43.04z M10.857,43.057c0,1.035,0.277,1.851,0.834,2.446s1.256,0.894,2.096,0.894
				c0.855,0,1.559-0.301,2.111-0.902s0.83-1.455,0.83-2.561c0-0.699-0.119-1.31-0.355-1.831s-0.582-0.926-1.037-1.213
				s-0.965-0.431-1.531-0.431c-0.805,0-1.498,0.276-2.078,0.829S10.857,41.764,10.857,43.057z"/>
			<path class="st8" d="M19.953,47.223v-8.59h1.166l4.512,6.744v-6.744h1.09v8.59h-1.166l-4.512-6.75v6.75H19.953z"/>
		</g>
	</g>
</g>
</svg>
