<?xml version="1.0" encoding="utf-8"?>
<!-- Generator: Adobe Illustrator 17.0.0, SVG Export Plug-In . SVG Version: 6.00 Build 0)  -->
<!DOCTYPE svg PUBLIC "-//W3C//DTD SVG 1.1//EN" "http://www.w3.org/Graphics/SVG/1.1/DTD/svg11.dtd">
<svg version="1.1" xmlns="http://www.w3.org/2000/svg" xmlns:xlink="http://www.w3.org/1999/xlink" x="0px" y="0px" width="24px"
	 height="50px" viewBox="0 0 24 50" style="enable-background:new 0 0 24 50;" xml:space="preserve">
<style type="text/css">
	.st0{display:none;}
	.st1{display:inline;}
	.st2{fill:#A9AAAA;}
	.st3{fill:#8430A6;}
</style>
<g id="source" class="st0">
	<g id="ojcJUw.tif">
		<image style="display:inline;overflow:visible;" width="24" height="124" id="Layer_0_2_" xlink:href="1773C4F8A8921EC.png" >
		</image>
	</g>
	<g class="st1">
		<path class="st2" d="M12,1c6.065,0,11,4.935,11,11s-4.935,11-11,11S1,18.065,1,12S5.935,1,12,1 M12,0C5.373,0,0,5.373,0,12
			s5.373,12,12,12s12-5.373,12-12S18.627,0,12,0L12,0z"/>
	</g>
	<g class="st1">
		<path class="st2" d="M12,27c6.065,0,11,4.935,11,11s-4.935,11-11,11S1,44.065,1,38S5.935,27,12,27 M12,26C5.373,26,0,31.373,0,38
			s5.373,12,12,12s12-5.373,12-12S18.627,26,12,26L12,26z"/>
	</g>
	<g class="st1">
		<circle class="st3" cx="12" cy="38" r="5.101"/>
	</g>
</g>
<g id="outlines">
	<g id="ojcJUw.tif_1_" class="st0">
		<image style="display:inline;overflow:visible;" width="24" height="124" id="Layer_0_1_" xlink:href="1773C4F8A8921ED.png" >
		</image>
	</g>
	<path class="st2" d="M12,1c6.065,0,11,4.935,11,11s-4.935,11-11,11S1,18.065,1,12S5.935,1,12,1 M12,0C5.373,0,0,5.373,0,12
		s5.373,12,12,12s12-5.373,12-12S18.627,0,12,0L12,0z"/>
	<path class="st2" d="M12,27c6.065,0,11,4.935,11,11s-4.935,11-11,11S1,44.065,1,38S5.935,27,12,27 M12,26C5.373,26,0,31.373,0,38
		s5.373,12,12,12s12-5.373,12-12S18.627,26,12,26L12,26z"/>
	<g>
		<circle class="st3" cx="12" cy="38" r="5.101"/>
	</g>
</g>
</svg>
